SplineFontDB: 3.2
FontName: AbtahaHandwriting
FullName: AbtahaHandwriting
FamilyName: AbtahaHandwriting
Weight: Regular
Copyright: Copyright (c) 2019, Abtaha
UComments: "2019-12-12: Created with FontForge (http://fontforge.org)"
Version: 001.000
ItalicAngle: 0
UnderlinePosition: -100
UnderlineWidth: 50
Ascent: 800
Descent: 200
InvalidEm: 0
LayerCount: 2
Layer: 0 0 "Back" 1
Layer: 1 0 "Fore" 0
XUID: [1021 812 -1162206269 31204]
StyleMap: 0x0000
FSType: 0
OS2Version: 0
OS2_WeightWidthSlopeOnly: 0
OS2_UseTypoMetrics: 1
CreationTime: 1576138688
ModificationTime: 1576167621
OS2TypoAscent: 0
OS2TypoAOffset: 1
OS2TypoDescent: 0
OS2TypoDOffset: 1
OS2TypoLinegap: 90
OS2WinAscent: 0
OS2WinAOffset: 1
OS2WinDescent: 0
OS2WinDOffset: 1
HheadAscent: 0
HheadAOffset: 1
HheadDescent: 0
HheadDOffset: 1
MarkAttachClasses: 1
DEI: 91125
Encoding: ISO8859-1
UnicodeInterp: none
NameList: AGL For New Fonts
DisplaySize: -48
AntiAlias: 1
FitToEm: 0
WinInfo: 25 25 8
BeginPrivate: 0
EndPrivate
BeginChars: 256 52

StartChar: B
Encoding: 66 66 0
Width: 638
VWidth: 0
Flags: HW
LayerCount: 2
Fore
SplineSet
290.041015625 191.814453125 m 1
 307.23046875 274.48828125 330.96875 285.67578125 397.680664062 250.205078125 c 0
 438.608398438 228.786132812 482.264648438 213.233398438 520.463867188 188.130859375 c 0
 611.186523438 128.512695312 623.874023438 33.697265625 555.251953125 -51.705078125 c 0
 474.48828125 -152.114257812 366.302734375 -193.861328125 239.8359375 -199.727539062 c 0
 150.75 -203.956054688 100.955078125 -138.608398438 39.97265625 -93.1787109375 c 0
 31.923828125 -87.17578125 32.0595703125 -64.8017578125 34.515625 -51.0234375 c 0
 48.158203125 22.646484375 64.529296875 95.634765625 77.216796875 169.440429688 c 0
 89.904296875 243.247070312 99.5908203125 319.508789062 111.323242188 394.40625 c 0
 113.37890625 404.924804688 119.490234375 420.9375 124.965820312 430.150390625 c 0
 126.057617188 431.787109375 144.474609375 428.240234375 145.838867188 424.147460938 c 0
 147.91796875 415.948242188 149.60546875 402.427734375 149.60546875 393.96875 c 0
 149.60546875 391.94140625 149.506835938 388.654296875 149.385742188 386.629882812 c 0
 149.56640625 380.897460938 149.712890625 371.58984375 149.712890625 365.854492188 c 0
 149.712890625 347.51953125 148.221679688 317.833007812 146.384765625 299.590820312 c 0
 134.65234375 217.735351562 124.965820312 134.65234375 105.45703125 54.0244140625 c 0
 71.896484375 -94.2705078125 151.432617188 -184.038085938 299.181640625 -152.66015625 c 0
 401.7734375 -130.96875 487.17578125 -78.03515625 531.10546875 20.736328125 c 0
 542.155273438 45.8388671875 538.19921875 95.498046875 520.600585938 112.141601562 c 0
 468.622070312 161.391601562 411.459960938 213.505859375 327.1484375 186.220703125 c 0
 316.5078125 182.810546875 302.591796875 189.631835938 290.041015625 191.814453125 c 1
131.787109375 713.096679688 m 1
 181.446289062 800.681640625 281.85546875 822.237304688 378.444335938 777.625976562 c 0
 522.374023438 711.595703125 569.440429688 599.590820312 550.75 486.357421875 c 0
 538.471679688 410.641601562 430.96875 309.00390625 366.166015625 311.186523438 c 1
 389.495117188 344.748046875 404.229492188 380.354492188 430.559570312 401.91015625 c 0
 557.298828125 505.184570312 496.58984375 666.302734375 362.346679688 729.331054688 c 0
 340.125 740.854492188 301.775390625 750.20703125 276.744140625 750.20703125 c 0
 253.221679688 750.20703125 216.9453125 741.893554688 195.770507812 731.650390625 c 0
 178.510742188 725.151367188 149.846679688 716.83984375 131.787109375 713.096679688 c 1
93.724609375 672.305664062 m 2
 88.138671875 652.267578125 75.9150390625 620.974609375 66.439453125 602.456054688 c 0
 57.08984375 590.879882812 38.0205078125 577.739257812 23.8740234375 573.124023438 c 0
 18.0078125 570.532226562 -0.681640625 580.627929688 -0.4091796875 584.174804688 c 0
 0.5458984375 601.500976562 0.681640625 623.874023438 11.1865234375 634.515625 c 0
 29.9619140625 650.541015625 62.5380859375 673.583007812 83.9013671875 685.948242188 c 2
 93.724609375 672.305664062 l 2
EndSplineSet
Validated: 524321
EndChar

StartChar: A
Encoding: 65 65 1
Width: 535
VWidth: 0
Flags: HW
LayerCount: 2
Fore
SplineSet
143.267578125 42.0576171875 m 0
 138.578125 16.6416015625 130.408203125 0.1513671875 134.190429688 -12.556640625 c 0
 158.396484375 -92.8896484375 99.39453125 -136.9140625 58.5478515625 -187.74609375 c 0
 50.6806640625 -197.73046875 22.087890625 -203.782226562 13.162109375 -197.427734375 c 0
 5.671875 -189.35546875 -0.4072265625 -173.866210938 -0.4072265625 -162.854492188 c 0
 -0.4072265625 -159.8359375 0.1142578125 -154.9921875 0.7568359375 -152.041992188 c 0
 61.2705078125 17.3974609375 119.515625 187.74609375 187.897460938 353.857421875 c 0
 242.057617188 485.779296875 273.374023438 628.592773438 364.901367188 743.873046875 c 0
 370.196289062 750.680664062 368.380859375 762.783203125 373.22265625 770.34765625 c 0
 380.484375 781.54296875 392.284179688 800.60546875 399.39453125 799.39453125 c 0
 414.6328125 797.727539062 434.626953125 786.543945312 444.024414062 774.432617188 c 0
 454.561523438 753.217773438 464.45703125 716.822265625 466.112304688 693.192382812 c 0
 478.8203125 499.848632812 488.956054688 306.203125 501.209960938 112.708007812 c 0
 504.387695312 62.330078125 514.826171875 12.25390625 516.338867188 -38.578125 c 0
 516.338867188 -58.09375 503.630859375 -92.73828125 491.981445312 -95.0078125 c 0
 455.521484375 -101.815429688 444.024414062 -74.583984375 447.50390625 -41.30078125 c 0
 452.647460938 7.1103515625 429.500976562 19.212890625 383.661132812 19.212890625 c 0
 343.418945312 19.212890625 303.479492188 35.8544921875 262.6328125 39.7880859375 c 0
 221.78515625 43.7216796875 184.87109375 42.0576171875 143.267578125 42.0576171875 c 0
445.83984375 86.2333984375 m 2
 443.418945312 125.71875 440.2421875 160.967773438 439.485351562 196.217773438 c 0
 436.005859375 334.0390625 434.190429688 471.709960938 429.349609375 609.379882812 c 0
 429.349609375 624.508789062 413.010742188 639.63671875 404.387695312 653.706054688 c 1
 393.495117188 641.754882812 378.21484375 631.619140625 372.465820312 617.548828125 c 0
 345.688476562 551.740234375 321.936523438 484.87109375 296.823242188 418.608398438 c 0
 276.248046875 364.75 255.219726562 311.1953125 234.493164062 257.48828125 c 0
 226.3515625 231.518554688 210.356445312 190.446289062 198.790039062 165.809570312 c 0
 174.432617188 121.78515625 183.661132812 91.5283203125 235.401367188 87.5947265625 c 0
 304.689453125 82.1484375 374.129882812 86.2333984375 446.595703125 86.2333984375 c 2
 445.83984375 86.2333984375 l 2
EndSplineSet
Validated: 524321
EndChar

StartChar: C
Encoding: 67 67 2
Width: 893
VWidth: 0
Flags: HW
LayerCount: 2
Fore
SplineSet
862.833984375 44.83203125 m 1
 686.26171875 -173.083984375 383.936523438 -274.07421875 135.443359375 -138.200195312 c 0
 18.5185546875 -73.6005859375 -25.83984375 62.4892578125 14.642578125 195.564453125 c 0
 84.1943359375 424.892578125 241.817382812 583.161132812 436.908203125 705.0390625 c 0
 519.810546875 756.288085938 623.384765625 778.036132812 720.71484375 799.569335938 c 0
 747.631835938 805.3828125 785.314453125 761.670898438 818.044921875 740.784179688 c 1
 793.06640625 724.418945312 766.580078125 692.119140625 743.325195312 694.272460938 c 0
 484.926757812 718.173828125 338.500976562 547.846679688 200.04296875 373.427734375 c 0
 161.364257812 321.5625 116.69921875 228.663085938 100.344726562 166.063476562 c 0
 65.4609375 42.4638671875 118.216796875 -41.9462890625 240.094726562 -88.2431640625 c 0
 286.255859375 -105.849609375 363.81640625 -120.139648438 413.221679688 -120.139648438 c 0
 462.625976562 -120.139648438 540.186523438 -105.849609375 586.34765625 -88.2431640625 c 0
 661.499023438 -60.8955078125 748.708007812 -49.6982421875 799.741210938 28.251953125 c 0
 808.78515625 41.6025390625 841.30078125 39.6640625 862.833984375 44.83203125 c 1
EndSplineSet
Validated: 524321
EndChar

StartChar: D
Encoding: 68 68 3
Width: 734
VWidth: 0
Flags: HW
LayerCount: 2
Fore
SplineSet
3.9580078125 -199.504882812 m 0
 -10.720703125 -155.467773438 17.6484375 -123.96484375 36.9453125 -82.56640625 c 0
 73.06640625 -8.5107421875 82.6328125 78.080078125 108.857421875 157.579101562 c 0
 145.307617188 267.58984375 186.375976562 376.1171875 226.950195312 484.64453125 c 0
 238.49609375 515.322265625 255.484375 544.021484375 269.998046875 573.544921875 c 2
 288.141601562 544.845703125 l 1
 256.473632812 643.806640625 l 1
 334.48828125 631.436523438 l 2
 368.793945312 673.330078125 400.461914062 720.666015625 440.2109375 758.436523438 c 0
 516.411132812 829.688476562 616.03125 805.607421875 658.584960938 708.956054688 c 0
 718.456054688 571.565429688 718.951171875 434.174804688 675.078125 289.196289062 c 0
 643.181640625 191.311523438 564.266601562 47.298828125 498.927734375 -32.26171875 c 0
 412.666992188 -142.107421875 295.563476562 -194.392578125 157.017578125 -199.010742188 c 0
 108.362304688 -200.82421875 59.541015625 -199.504882812 3.9580078125 -199.504882812 c 0
658.584960938 476.727539062 m 2
 642.091796875 537.588867188 629.556640625 602.243164062 607.125 663.43359375 c 0
 580.076171875 736.995117188 514.266601562 743.591796875 458.68359375 688.338867188 c 0
 425.697265625 655.352539062 410.193359375 611.64453125 384.462890625 579.811523438 c 0
 305.624023438 481.840820312 282.368164062 362.592773438 233.052734375 253.735351562 c 0
 212.930664062 209.533203125 192.973632812 165.000976562 176.48046875 119.313476562 c 0
 149.595703125 45.2578125 132.442382812 -33.0859375 98.13671875 -103.348632812 c 0
 74.3857421875 -152.829101562 92.36328125 -164.374023438 129.96875 -158.931640625 c 0
 190.004882812 -150.189453125 254 -142.4375 306.614257812 -114.3984375 c 0
 541.810546875 7.982421875 612.897460938 231.634765625 658.584960938 476.397460938 c 2
 658.584960938 476.727539062 l 2
EndSplineSet
Validated: 524321
EndChar

StartChar: E
Encoding: 69 69 4
Width: 831
VWidth: 0
Flags: HW
LayerCount: 2
Fore
SplineSet
310.708007812 254.595703125 m 0
 309.90234375 258.056640625 306.836914062 262.448242188 303.865234375 264.3984375 c 0
 175.698242188 317.662109375 195.302734375 347.25390625 261.698242188 442.870117188 c 0
 331.71875 544.328125 481.935546875 662.563476562 597.00390625 706.787109375 c 0
 613.126953125 714.912109375 635.829101562 732.560546875 647.678710938 746.180664062 c 0
 658.775390625 757.462890625 663.583984375 780.950195312 675.420898438 784.46484375 c 0
 702.17578125 792.95703125 746.671875 799.850585938 774.7421875 799.850585938 c 0
 776.068359375 799.850585938 778.219726562 799.833984375 779.544921875 799.815429688 c 0
 789.346679688 799.815429688 809.505859375 755.61328125 804.8828125 750.8046875 c 0
 784.723632812 729.350585938 751.43359375 695.321289062 732.938476562 700.869140625 c 0
 632.328125 730.4609375 592.010742188 641.872070312 529.499023438 602.478515625 c 0
 460.329101562 559.015625 401.146484375 499.833984375 337.709960938 447.124023438 c 0
 335.045898438 444.337890625 331.6484375 439.200195312 330.127929688 435.657226562 c 0
 315.948242188 410.997721354 301.830729167 386.338541667 287.775390625 361.6796875 c 1
 320.140625 349.288085938 352.875976562 325.615234375 384.686523438 326.909179688 c 0
 447.012695312 329.499023438 508.599609375 345.404296875 569.631835938 356.315429688 c 0
 590.900390625 359.830078125 612.354492188 360.754882812 633.807617188 362.973632812 c 2
 643.055664062 336.157226562 l 1
 574.810546875 305.456054688 508.78515625 268.282226562 438.135742188 245.71875 c 0
 327.602539062 213.23828125 176.474609375 116.380859375 100.794921875 29.517578125 c 0
 45.3115234375 -35.2138671875 58.8125 -95.8759765625 139.44921875 -118.439453125 c 0
 182.359375 -130.314453125 253.3203125 -139.952148438 297.84375 -139.952148438 c 0
 306.3515625 -139.952148438 320.151367188 -139.594726562 328.6484375 -139.153320312 c 0
 425.004882812 -133.974609375 520.806640625 -116.959960938 616.608398438 -103.458007812 c 0
 653.59765625 -98.2802734375 690.5859375 -89.40234375 742.37109375 -79.416015625 c 1
 728.5 -97.91015625 721.841796875 -114.555664062 710.375 -118.439453125 c 0
 636.397460938 -144.146484375 563.8984375 -178.545898438 488.440429688 -187.793945312 c 0
 373.219726562 -201.6640625 255.594726562 -197.411132812 139.079101562 -200.5546875 c 0
 138.934570312 -200.55859375 138.700195312 -200.560546875 138.556640625 -200.560546875 c 0
 134.745117188 -200.560546875 129.096679688 -198.818359375 125.948242188 -196.670898438 c 0
 81.19140625 -159.681640625 6.2880859375 -126.76171875 0.3701171875 -84.4091796875 c 0
 -7.0283203125 -31.69921875 29.40625 42.8330078125 71.01953125 83.1513671875 c 0
 140.743164062 149.916992188 228.962890625 198.002929688 310.708007812 254.595703125 c 0
EndSplineSet
Validated: 524321
EndChar

StartChar: F
Encoding: 70 70 5
Width: 943
VWidth: 0
Flags: HW
LayerCount: 2
Fore
SplineSet
26.470703125 533.235351562 m 1
 123.3828125 581.6171875 178.823242188 692.793945312 293.823242188 710.735351562 c 0
 376.912109375 723.676757812 461.912109375 723.529296875 546.029296875 729.264648438 c 0
 749.1171875 742.94140625 952.352539062 755.587890625 1155.29394531 771.176757812 c 0
 1189.70605469 773.823242188 1223.08789062 788.970703125 1263.08789062 800.587890625 c 1
 1253.67675781 748.529296875 1222.79394531 737.793945312 1186.47070312 733.823242188 c 0
 1051.6171875 719.1171875 917.05859375 701.176757812 781.912109375 689.706054688 c 0
 641.176757812 678.529296875 499.852539062 668.823242188 358.823242188 669.1171875 c 0
 272.94140625 669.1171875 216.764648438 621.764648438 155.587890625 577.5 c 0
 126.176757812 556.176757812 98.6767578125 532.352539062 67.3525390625 513.087890625 c 0
 58.529296875 507.647460938 42.2060546875 514.264648438 29.2646484375 515.293945312 c 2
 26.470703125 533.235351562 l 1
418.676757812 413.823242188 m 2
 410.8828125 378.823242188 409.264648438 340.293945312 394.264648438 309.55859375 c 0
 323.3828125 162.5 248.676757812 16.3232421875 175.8828125 -130.44140625 c 0
 167.94140625 -146.6171875 167.206054688 -167.352539062 156.764648438 -181.323242188 c 0
 149.264648438 -191.470703125 131.470703125 -194.1171875 118.235351562 -200 c 1
 114.852539062 -186.912109375 104.55859375 -170.587890625 109.1171875 -161.176757812 c 0
 148.823242188 -79.8525390625 192.647460938 -0.587890625 232.352539062 80.8828125 c 0
 268.823242188 155.293945312 301.176757812 231.764648438 336.470703125 306.764648438 c 0
 354.55859375 345.293945312 375.147460938 382.647460938 395.293945312 420.587890625 c 2
 418.676757812 413.823242188 l 2
434.1171875 106.029296875 m 2
 457.453125 114.14453125 496.19140625 123.895507812 520.587890625 127.793945312 c 0
 616.6171875 134.706054688 714.706054688 120.293945312 807.206054688 160.293945312 c 0
 815.587890625 163.823242188 827.5 158.823242188 839.264648438 157.647460938 c 1
 799.706054688 86.7646484375 546.6171875 46.029296875 437.5 90.2939453125 c 1
 434.1171875 106.029296875 l 2
200.293945312 401.6171875 m 1
 216.470703125 361.6171875 187.05859375 321.912109375 142.5 333.3828125 c 0
 106.38671875 343.998046875 51.5732421875 369.428710938 20.1474609375 390.147460938 c 0
 6.912109375 398.235351562 -1.3232421875 425.587890625 0.1474609375 443.087890625 c 0
 1.6171875 460.587890625 17.7939453125 477.94140625 27.6474609375 495.293945312 c 1
 39.1171875 478.676757812 58.8232421875 462.94140625 60.8828125 445.293945312 c 0
 69.55859375 371.323242188 122.5 353.676757812 200.293945312 401.6171875 c 1
EndSplineSet
Validated: 524321
EndChar

StartChar: G
Encoding: 71 71 6
Width: 1065
VWidth: 0
Flags: HW
LayerCount: 2
Fore
SplineSet
859.48828125 770.576171875 m 1
 599.360351562 704.904296875 442.00390625 519.403320312 276.333007812 348.400390625 c 0
 217.072265625 286.052734375 138.6484375 172.572265625 101.279296875 95.095703125 c 0
 45.62890625 -18.1240234375 114.286132812 -116.844726562 239.232421875 -114.499023438 c 0
 339.01953125 -112.580078125 438.592773438 -99.787109375 547.334960938 -91.2578125 c 1
 531.556640625 -107.888671875 517.057617188 -137.100585938 496.588867188 -142.00390625 c 0
 402.131835938 -165.032226562 300.852539062 -210.021484375 211.30078125 -194.030273438 c 0
 8.1025390625 -157.782226562 -58.208984375 -19.4033203125 55.0107421875 162.686523438 c 0
 146.908203125 310.661132812 277.612304688 436.034179688 399.573242188 563.326171875 c 0
 474.626953125 641.364257812 565.884765625 703.837890625 649.466796875 773.774414062 c 0
 687.419921875 805.543945312 807.249023438 812.79296875 859.48828125 770.576171875 c 1
1010.234375 -144.349609375 m 2
 984.221679688 -164.178710938 969.295898438 -182.515625 950.533203125 -186.993164062 c 0
 921.961914062 -195.309570312 886.567382812 -205.1171875 862.046875 -194.669921875 c 0
 843.283203125 -186.780273438 829.637695312 -149.6796875 826.865234375 -124.09375 c 0
 818.124023438 -41.1513671875 880.383789062 9.16796875 923.880859375 67.8037109375 c 0
 937.313476562 85.7138671875 950.3203125 103.625 969.083007812 128.998046875 c 1
 947.2265625 139.26953125 909.888671875 147.606445312 885.73828125 147.606445312 c 0
 845.72265625 147.606445312 788.58984375 126.469726562 758.208984375 100.426757812 c 0
 709.16796875 61.6201171875 683.369140625 62.4736328125 651.599609375 106.18359375 c 0
 536.4609375 24.7333984375 473.560546875 18.5498046875 420.255859375 79.1044921875 c 0
 464.178710938 144.349609375 464.178710938 144.349609375 580.596679688 102.985351562 c 2
 526.439453125 182.729492188 l 2
 593.390625 192.537109375 650.959960938 218.549804688 695.095703125 204.05078125 c 0
 788.059570312 173.134765625 865.671875 208.315429688 948.400390625 230.704101562 c 0
 977.612304688 238.379882812 1012.3671875 227.71875 1043.70996094 225.373046875 c 0
 1042.8359375 202.489257812 1036.24511719 166.286132812 1028.99804688 144.5625 c 0
 990.192382812 66.7373046875 946.481445312 -8.5283203125 898.720703125 -95.7353515625 c 1
 1010.234375 -144.349609375 l 2
EndSplineSet
Validated: 524321
EndChar

StartChar: H
Encoding: 72 72 7
Width: 791
VWidth: 0
Flags: HW
LayerCount: 2
Fore
SplineSet
547.029296875 205.438476562 m 1
 428.600585938 186.303710938 320.443359375 178.045898438 219.537109375 147.23046875 c 0
 185.498046875 136.958984375 165.55859375 70.2919921875 145.619140625 26.384765625 c 0
 115.810546875 -39.0732421875 93.2529296875 -107.75390625 63.6455078125 -173.4140625 c 0
 57.8046875 -186.505859375 34.44140625 -191.541015625 18.9326171875 -200.40234375 c 1
 12.4873046875 -181.671875 -4.2294921875 -159.114257812 1.2080078125 -145.014648438 c 0
 25.5791015625 -82.1748046875 61.6318359375 -24.1689453125 83.98828125 39.87890625 c 0
 152.668945312 229.80859375 217.522460938 421.1484375 282.98046875 612.084960938 c 0
 301.510742188 665.861328125 314.803710938 721.450195312 334.541992188 774.622070312 c 0
 338.5703125 785.498046875 360.724609375 789.728515625 374.82421875 796.978515625 c 1
 384.89453125 774.219726562 406.84765625 748.841796875 402.416992188 729.3046875 c 0
 389.534179688 681.280273438 364.268554688 604.763671875 346.022460938 558.509765625 c 0
 307.956054688 451.158203125 269.28515625 344.0078125 228.801757812 231.419921875 c 1
 321.249023438 241.490234375 404.229492188 261.833007812 485.397460938 256.595703125 c 0
 608.056640625 248.540039062 606.244140625 351.057617188 642.69921875 416.314453125 c 0
 679.154296875 481.571289062 700.50390625 553.876953125 728.297851562 623.162109375 c 0
 749.848632812 676.737304688 769.990234375 730.916015625 793.958007812 784.290039062 c 0
 798.1875 793.5546875 827.794921875 802.013671875 829.002929688 800.40234375 c 0
 840.080078125 782.678710938 858.610351562 760.12109375 853.977539062 744.208984375 c 0
 840.82421875 704.928710938 815.55859375 642.758789062 797.583007812 605.438476562 c 0
 772.00390625 546.625976562 731.520507812 490.231445312 723.463867188 429.40625 c 0
 712.185546875 341.590820312 662.034179688 277.341796875 627.391601562 202.819335938 c 0
 588.51953125 118.428710938 571.399414062 23.9677734375 540.181640625 -64.25 c 0
 531.923828125 -87.61328125 506.344726562 -104.53125 488.821289062 -124.672851562 c 1
 480.362304688 -101.510742188 460.422851562 -75.5283203125 465.458007812 -55.9921875 c 0
 486.203125 24.572265625 514.602539062 104.330078125 547.029296875 205.438476562 c 1
EndSplineSet
Validated: 524321
EndChar

StartChar: J
Encoding: 74 74 8
Width: 920
VWidth: 0
Flags: HW
LayerCount: 2
Fore
SplineSet
745.68359375 699.467773438 m 2
 704.857421875 690.26953125 664.192382812 680.42578125 623.205078125 672.03515625 c 0
 594.567382812 664.374023438 547.288085938 657.145507812 517.669921875 655.8984375 c 0
 504.115234375 655.8984375 491.205078125 682.846679688 478.134765625 697.370117188 c 1
 492.173828125 707.212890625 505.083007812 722.54296875 520.736328125 726.254882812 c 0
 629.013671875 752.235351562 737.453125 777.247070312 846.700195312 799.193359375 c 0
 868.162109375 803.388671875 892.528320312 793.22265625 915.765625 789.672851562 c 1
 907.051757812 771.4375 902.372070312 741.26171875 888.978515625 736.905273438 c 0
 787.961914062 701.081054688 757.947265625 604.583007812 711.473632812 527.125976562 c 0
 629.336914062 387.704101562 584.798828125 231.983398438 539.29296875 76.5849609375 c 0
 515.411132812 -5.228515625 494.271484375 -93.9814453125 417.137695312 -151.10546875 c 0
 365.983398438 -189.188476562 311.924804688 -211.618164062 248.991210938 -192.092773438 c 0
 143.779296875 -159.819335938 45.6669921875 -118.34765625 6.9384765625 1.548828125 c 0
 -9.1982421875 48.6689453125 3.06640625 92.560546875 36.953125 107.407226562 c 0
 129.901367188 147.91015625 228.3359375 175.666015625 324.834960938 207.616210938 c 0
 328.223632812 208.74609375 334.032226562 202.291015625 348.233398438 193.416015625 c 1
 332.427734375 182.916015625 305.96875 167.228515625 289.171875 158.399414062 c 0
 223.011067708 129.460611979 156.635091146 101.328776042 90.0439453125 74.00390625 c 0
 50.8310546875 57.8671875 43.2470703125 39.79296875 61.158203125 -4.259765625 c 0
 84.0732421875 -60.578125 114.087890625 -94.142578125 175.407226562 -99.4677734375 c 0
 188.37109375 -102.763671875 207.529296875 -112.016601562 218.169921875 -120.123046875 c 0
 302.243164062 -168.533203125 395.67578125 -142.391601562 430.046875 -50.0888671875 c 0
 471.357421875 58.3505859375 496.046875 173.245117188 538.809570312 281.0390625 c 0
 594.158203125 420.9453125 642.891601562 565.854492188 757.625 674.778320312 c 1
 745.68359375 699.467773438 l 2
EndSplineSet
Validated: 524321
EndChar

StartChar: K
Encoding: 75 75 9
Width: 827
VWidth: 0
Flags: HW
LayerCount: 2
Fore
SplineSet
210.90234375 82.099609375 m 1
 254.860351562 136.638671875 298.912109375 199.768554688 352.049804688 252.890625 c 0
 473.475585938 374.486328125 598.344726562 492.760742188 725.057617188 608.681640625 c 0
 741.512695312 623.7265625 775.876953125 619.249023438 802.029296875 623.860351562 c 2
 812.705078125 607.884765625 l 2
 797.61328125 583.080078125 787.897460938 546.006835938 766.889648438 535.516601562 c 0
 596.444335938 451.887695312 489.592773438 299.287109375 358.609375 173.149414062 c 0
 343.3359375 158.491210938 328 144.178710938 303.75 121.686523438 c 1
 370.333984375 91.4609375 427.973632812 62.3359375 487.844726562 38.7822265625 c 0
 569.456054688 6.3837890625 629.083984375 -74.537109375 729.76171875 -68.212890625 c 0
 742.650390625 -67.3701171875 758.047851562 -109.122070312 772.450195312 -131.048828125 c 1
 749.333984375 -138.696289062 721.293945312 -157.927734375 704.637695312 -151.578125 c 0
 639.744140625 -125.875 578.834960938 -90.361328125 515.776367188 -59.87109375 c 0
 413.435546875 -12.197265625 310.778320312 35.2412109375 210.90234375 82.099609375 c 1
5.345703125 -179.161132812 m 2
 16.3740234375 -140.428710938 23.8984375 -101.063476562 37.3115234375 -63.6962890625 c 0
 91.857421875 88.7890625 151.865234375 238.665039062 202.5 392.068359375 c 0
 238.5703125 501.470703125 263.8515625 614.329101562 292.1796875 726.1171875 c 0
 309.049804688 792.48828125 313.248046875 798.05078125 383.0859375 796.971679688 c 1
 362.740234375 721.950195312 347.071289062 647.75390625 323.038085938 577.440429688 c 0
 273.688476562 434.979492188 219.6328125 294.904296875 171.1796875 152.421875 c 0
 160.5703125 121.442382812 165.190429688 85.111328125 163.280273438 51.3798828125 c 2
 180.354492188 49.7470703125 l 1
 146.010742188 -21.8486328125 113.674804688 -94.697265625 75.388671875 -165.203125 c 0
 67.4609375 -179.995117188 40.646484375 -184.901367188 22.28515625 -194.2109375 c 2
 5.345703125 -179.161132812 l 2
EndSplineSet
Validated: 524321
EndChar

StartChar: L
Encoding: 76 76 10
Width: 627
VWidth: 0
Flags: HW
LayerCount: 2
Fore
SplineSet
122.501953125 -59.7744140625 m 1
 237.706054688 -128.41015625 449.000976562 -115.204101562 562.120117188 -34.2314453125 c 0
 570.4609375 -28.3232421875 587.489257812 -34.2314453125 600.521484375 -35.2734375 c 1
 592.006835938 -61.51171875 589.921875 -104.778320312 573.76171875 -111.034179688 c 0
 515.715820312 -133.688476562 418.564453125 -159.377929688 356.907226562 -168.375 c 0
 295.569335938 -176.368164062 231.625 -161.077148438 169.0703125 -162.98828125 c 0
 134.318359375 -164.03125 100.782226562 -180.365234375 66.376953125 -188.184570312 c 0
 44.6572265625 -193.223632812 22.2412109375 -196.00390625 0 -199.826171875 c 1
 1.5634765625 -181.233398438 -2.0849609375 -160.208984375 5.560546875 -144.5703125 c 0
 114.161132812 78.3662109375 225.54296875 300.782226562 333.1015625 523.71875 c 0
 366.811523438 593.223632812 390.095703125 668.809570312 418.940429688 741.094726562 c 0
 423.635742188 756.293945312 435.702148438 778.55859375 445.873046875 790.791015625 c 0
 452.217773438 795.786132812 463.919921875 799.840820312 471.99609375 799.840820312 c 0
 475.873046875 799.840820312 481.99609375 798.822265625 485.665039062 797.567382812 c 0
 492.366210938 790.87890625 497.805664062 777.764648438 497.805664062 768.295898438 c 0
 497.805664062 765.745117188 497.348632812 761.654296875 496.78515625 759.166015625 c 0
 450.564453125 648.305664062 402.432617188 538.314453125 354.126953125 429.018554688 c 0
 347.176757812 413.206054688 334.4921875 400.173828125 327.193359375 384.53515625 c 0
 259.079101562 237.706054688 192.006835938 91.224609375 122.501953125 -59.7744140625 c 1
EndSplineSet
Validated: 524321
EndChar

StartChar: M
Encoding: 77 77 11
Width: 885
VWidth: 0
Flags: HW
LayerCount: 2
Fore
SplineSet
800.203125 682.87890625 m 2
 799.352141239 683.629525136 759.507585876 649.28562453 750.577148438 627.760742188 c 0
 723.359375 562.158203125 702.529574392 494.08966669 677.880859375 427.284179688 c 0
 673.046875 414.182617188 665.1426163 402.209926572 659.659179688 389.22265625 c 0
 639.704101562 341.959960938 625.924817595 291.485961908 598.932617188 249.034179688 c 0
 568.142578125 200.609375 510.773350837 127.832400723 470.467773438 86.9873046875 c 0
 444.860351562 61.037109375 407.29671705 82.1141475027 395.139648438 111.469726562 c 0
 378.735351562 151.081054688 359.36995165 217.496813062 351.932617188 259.721679688 c 0
 351.78125 260.581054688 351.542032739 261.97627251 351.390625 262.834960938 c 0
 339.471679688 330.431640625 336.627929688 399.481445312 329.80078125 467.975585938 c 1
 313.770507812 467.919921875 l 2
 303.619174087 467.884672041 295.022469811 364.121204729 282.813476562 312.712890625 c 0
 264.236328125 234.490234375 244.619140625 156.376953125 221.94921875 79.0361328125 c 0
 199.279296875 1.6953125 172.986229497 -75.5785629347 147.809570312 -153.774414062 c 0
 145.171875 -161.966796875 143.545851608 -173.61817225 137.359375 -177.196289062 c 0
 124.2890625 -184.755859375 102.349609375 -195.548828125 88.384765625 -201.287109375 c 1
 85.4677734375 -184.7421875 76.5996102165 -166.156927828 81.3134765625 -152.083984375 c 0
 113.028320312 -57.4013671875 153.051315842 34.7446693793 179.865234375 130.815429688 c 0
 207.387695312 229.424804688 222.073161542 331.612523185 243.426757812 431.89453125 c 0
 246.297851562 445.377929688 243.48823631 468.695951 250.13671875 471.571289062 c 0
 317.875976562 500.8671875 302.379684585 566.706013901 319.60546875 618.404296875 c 0
 325.231445312 635.2890625 342.177734375 648.337890625 353.866210938 663.084960938 c 1
 362.024414062 644.110351562 378.677031209 624.569045025 377.108398438 606.525390625 c 0
 364.685546875 463.627929688 389.212048726 324.497131925 413.807617188 185.041992188 c 0
 416.301757812 170.900390625 434.17168212 147.198113281 442.576171875 148.413085938 c 0
 443.3125 148.51953125 444.503948271 148.710698973 445.236328125 148.83984375 c 0
 461.4296875 151.6953125 484.042845228 163.457978256 494.560546875 176.09765625 c 0
 516.95703125 203.012695313 549.177943005 249.563507007 566.012695312 280.265625 c 0
 598.229492188 339.020507812 616.724074393 405.586174434 655.42578125 460.360351562 c 0
 723.408392606 556.575529096 701.002061664 750 856 750 c 0
 856 750 l 1
 874 744 l 0
 869.133742062 708.72037757 862.837391407 697.456114456 853.55078125 638.334960938 c 0
 821.538085937 434.533203125 739.023490805 244.897113693 689.672851562 46.171875 c 0
 677.138671875 -4.30078125 647.47519153 -63.2170536474 695.21484375 -116.7421875 c 0
 701.395507812 -123.671875 680.977539062 -154.247070312 672.897460938 -173.751953125 c 1
 656.63671875 -164.225585938 628.283440803 -155.091909335 627.650390625 -144.548828125 c 0
 624.48828125 -91.8857421875 618.822188676 -36.0002074488 632.422851562 13.6220703125 c 0
 677.23046875 177.103515625 731.40862444 337.261847554 778.82421875 500.63671875 c 0
 794.969726562 556.267578125 835.351154944 651.876228755 813.153320312 671.456054688 c 2
 800.203125 682.87890625 l 2
EndSplineSet
Validated: 524325
EndChar

StartChar: N
Encoding: 78 78 12
Width: 639
VWidth: 0
Flags: HW
LayerCount: 2
Fore
SplineSet
629.97265625 767.369140625 m 1
 620.0703125 707.157226562 609.4296875 647.018554688 597.65625 587.030273438 c 0
 571.263671875 452.553710938 544.931640625 318.064453125 517.006835938 183.064453125 c 0
 506.951171875 134.451171875 486.817382812 87.830078125 478.965820312 38.6591796875 c 0
 477.313476562 28.3115234375 478.263671875 11.6669921875 479.534179688 1.265625 c 0
 486.805664062 -58.2880859375 459.559570312 -142.384765625 422.044921875 -189.205078125 c 0
 395.522460938 -222.306640625 367.177734375 -222.990234375 342.513671875 -187.211914062 c 0
 325.462890625 -162.477539062 298.556640625 -140.01953125 294.28125 -111.114257812 c 0
 282.596679688 -32.1201171875 273.50390625 43.1044921875 260.017578125 117.970703125 c 0
 245.333984375 199.481445312 226.939453125 280.227539062 208.873046875 361.030273438 c 0
 206.6640625 370.91015625 194.041992188 378.524414062 185.607421875 386.83203125 c 1
 175.764648438 375.756835938 159.546875 365.891601562 157.48046875 353.5625 c 0
 144.926757812 278.649414062 137.416015625 202.919921875 124.6640625 128.088867188 c 0
 107.674804688 28.390625 89.0458984375 -71.05859375 66.830078125 -170.451171875 c 0
 63.9267578125 -183.440429688 37.7861328125 -191.290039062 22.6396484375 -201.51953125 c 1
 19.2177734375 -187.604492188 14.791015625 -164.486328125 17.2001953125 -150.360351562 c 0
 34.6435546875 -48.0927734375 53.041015625 53.7939453125 72.44921875 155.287109375 c 0
 93.3798828125 264.744140625 116.146484375 373.889648438 136.80078125 483.94921875 c 0
 144.541992188 525.19921875 146.595703125 567.596679688 154.876953125 608.877929688 c 0
 157.489257812 621.900390625 170.263671875 632.931640625 178.301757812 645.153320312 c 1
 188.029296875 634.819335938 203.227539062 626.451171875 205.846679688 615.219726562 c 0
 209.837890625 598.106445312 210.88671875 570.112304688 209.20703125 552.620117188 c 0
 200.922851562 466.357421875 248.293945312 393.129882812 265.541015625 312.836914062 c 0
 288.317382812 206.80078125 308.935546875 100.254882812 330.673828125 -6.017578125 c 0
 338.149414062 -42.5634765625 342.053710938 -80.365234375 354.733398438 -115.1953125 c 0
 358.92578125 -126.7109375 377.46484375 -144.626953125 385.284179688 -141.953125 c 0
 385.512695312 -141.875 385.8828125 -141.744140625 386.110351562 -141.661132812 c 0
 398.454101562 -137.16796875 413.266601562 -123.7421875 415.573242188 -110.810546875 c 0
 463.213867188 156.270507812 487.779296875 428.26953125 555.174804688 691.16796875 c 0
 558.409179688 703.78515625 560.353515625 716.770507812 565 729 c 0
 570.55859375 743.629882812 607.46875 754.612304688 629.97265625 767.369140625 c 1
EndSplineSet
Validated: 524321
EndChar

StartChar: O
Encoding: 79 79 13
Width: 1027
VWidth: 0
Flags: HW
LayerCount: 2
Fore
SplineSet
176.330078125 211.834960938 m 2
 114.76953125 -122.213867188 l 2
 198.758789062 -118.396484375 293.008789062 -131.758789062 377.237304688 -107.181640625 c 0
 630.3984375 -32.498046875 776.903320312 159.341796875 880.219726562 390.3125 c 0
 887.756835938 403.405273438 894.383789062 426.280273438 895.012695312 441.374023438 c 0
 889.763671875 495.776367188 895.012695312 562.109375 866.141601562 599.09375 c 0
 849.916015625 619.61328125 769.267578125 597.184570312 721.545898438 582.15234375 c 0
 629.524414062 555.91015625 484.146484375 502.462890625 397.041015625 462.848632812 c 0
 347.888671875 438.98828125 319.732421875 375.280273438 276.067382812 336.387695312 c 0
 250.637695312 318.375976562 206.489257812 294.431640625 177.5234375 282.939453125 c 2
 149.368164062 306.799804688 l 2
 166.547851562 349.749023438 175.13671875 399.140625 202.337890625 433.739257812 c 0
 271.772460938 521.78515625 340.73046875 613.6484375 426.389648438 683.798828125 c 0
 491.529296875 737.24609375 579.575195312 768.50390625 662.372070312 792.603515625 c 0
 718.682617188 808.828125 783.583984375 795.705078125 846.814453125 784.967773438 c 1
 731.806640625 709.568359375 552.374023438 767.788085938 477.928710938 592.651367188 c 1
 493.337890625 589.471679688 518.61328125 586.890625 534.346679688 586.890625 c 0
 590.483398438 586.890625 670.927734375 616.1953125 713.911132812 652.302734375 c 0
 783.583984375 704.795898438 854.450195312 700.0234375 925.31640625 684.752929688 c 0
 955.55859375 672.760742188 985.916992188 637.271484375 993.080078125 605.536132812 c 0
 1005.24902344 455.9296875 1000.23828125 308.947265625 879.7421875 192.26953125 c 0
 816.034179688 130.708984375 762.34765625 59.126953125 703.412109375 -7.4443359375 c 0
 541.3984375 -189.978515625 335.958007812 -226.723632812 109.282226562 -184.013671875 c 0
 21.474609375 -167.549804688 -22.90625 -70.6748046875 11.9306640625 15.22265625 c 0
 34.359375 70.3408203125 59.6513671875 123.55078125 85.4208984375 177.475585938 c 0
 114.29296875 239.513671875 152.708007812 226.389648438 176.330078125 211.834960938 c 2
EndSplineSet
Validated: 524321
EndChar

StartChar: P
Encoding: 80 80 14
Width: 715
VWidth: 0
Flags: HW
LayerCount: 2
Fore
SplineSet
-0 -182.094726562 m 2
 31.412109375 -112.046875 62.82421875 -42.6259765625 91.4091796875 28.05078125 c 0
 111.35546875 76.58203125 128.7890625 126.212890625 145.4375 176.000976562 c 0
 166.821289062 233.235351562 196.163085938 327.802734375 210.931640625 387.08984375 c 0
 224.28125 449.9140625 221.454101562 515.250976562 229.46484375 579.016601562 c 0
 231.8203125 598.806640625 246.426757812 617.182617188 255.536132812 636.186523438 c 1
 267.159179688 618.752929688 279.409179688 601.947265625 289.932617188 583.885742188 c 0
 296.23828125 571.204101562 305.244140625 550.095703125 310.036132812 536.767578125 c 1
 325.7421875 559.85546875 338.149414062 573.51953125 346.9453125 588.754882812 c 0
 376.943359375 640.583984375 402.387695312 695.3984375 436.469726562 744.244140625 c 0
 455.811523438 775.0859375 501.055664062 800.116210938 537.4609375 800.116210938 c 0
 545.014648438 800.116210938 557.116210938 798.727539062 564.47265625 797.015625 c 0
 609.58203125 788.666015625 653.55859375 745.392578125 662.635742188 700.423828125 c 0
 715.250976562 506.76953125 687.608398438 329.134765625 557.876953125 172.545898438 c 0
 484.686523438 84.2783203125 383.697265625 88.990234375 282.865234375 98.884765625 c 0
 256.165039062 101.397460938 229.778320312 105.32421875 208.889648438 107.994140625 c 0
 161.771484375 5.591796875 121.092773438 -90.21484375 73.818359375 -183.037109375 c 0
 67.2216796875 -196.23046875 31.7265625 -194.66015625 9.7373046875 -200 c 2
 -0 -182.094726562 l 2
634.678710938 493.26171875 m 2
 618.97265625 574.461914062 608.450195312 641.998046875 590.702148438 707.4921875 c 0
 579.393554688 748.955078125 544.840820312 757.279296875 512.95703125 728.6953125 c 0
 484.420898438 703.58984375 443.399414062 658.064453125 421.391601562 627.077148438 c 0
 393.546875 588.067382812 355.12890625 520.870117188 335.63671875 477.084960938 c 0
 297 386.618164062 264.645507812 293.325195312 231.192382812 200.659179688 c 0
 218.626953125 165.791992188 235.58984375 144.118164062 269.986328125 135.479492188 c 0
 352.28515625 114.43359375 527.720703125 187.309570312 560.860351562 265.368164062 c 0
 594 343.426757812 612.219726562 422.271484375 634.678710938 493.10546875 c 2
 634.678710938 493.26171875 l 2
EndSplineSet
Validated: 524321
EndChar

StartChar: Q
Encoding: 81 81 15
Width: 1000
VWidth: 0
Flags: H
LayerCount: 2
Fore
SplineSet
983.272460938 -95.63671875 m 1
 975.275390625 -111.129882812 960.04296875 -134.833007812 949.272460938 -148.545898438 c 0
 878 -216.545898438 680.36328125 -217.818359375 610.909179688 -147.454101562 c 0
 563.818359375 -99.63671875 514 -127.090820312 464 -129.272460938 c 0
 394.727539062 -133.090820312 325.272460938 -139.818359375 256.181640625 -138 c 0
 193.090820312 -136.36328125 147.090820312 -101.63671875 114.727539062 -46.181640625 c 0
 62.9091796875 41.818359375 2.9091796875 126.36328125 0.181640625 232.909179688 c 0
 0.078125 236.4296875 -0.0048828125 242.14453125 -0.0048828125 245.666015625 c 0
 -0.0048828125 280.927734375 8.2236328125 336.955078125 18.36328125 370.727539062 c 0
 24.9091796875 391.818359375 54.7275390625 408.727539062 78.181640625 420.727539062 c 0
 105.150390625 432.78515625 149.869140625 449.890625 178 458.909179688 c 0
 159.818359375 584.181640625 250.727539062 640.727539062 326.909179688 702.36328125 c 0
 363.272460938 731.63671875 410 748.36328125 452.181640625 770.545898438 c 0
 576.181640625 835.63671875 712.181640625 789.63671875 773.090820312 664.545898438 c 0
 859.090820312 488.36328125 886.909179688 311.090820312 786.181640625 131.272460938 c 0
 755.818359375 76.7275390625 719.090820312 27.0908203125 686.181640625 -25.2724609375 c 0
 676 -41.63671875 657.090820312 -66.5458984375 662.545898438 -75.818359375 c 0
 673.454101562 -94 697.63671875 -116.545898438 717.090820312 -117.272460938 c 0
 719.751953125 -117.29296875 724.072265625 -117.309570312 726.734375 -117.309570312 c 0
 768.735351562 -117.309570312 836.666015625 -113.220703125 878.36328125 -108.181640625 c 0
 908.727539062 -105.63671875 938.36328125 -101.090820312 983.272460938 -95.63671875 c 1
385.454101562 424 m 0
 339.454101562 415.272460938 292.909179688 408.727539062 247.454101562 397.454101562 c 0
 214.909179688 389.272460938 184.727539062 369.63671875 152 364.181640625 c 0
 67.0908203125 350.181640625 31.0908203125 288.727539062 65.63671875 210.727539062 c 0
 79.2724609375 180.181640625 84.9091796875 144.909179688 102.909179688 117.454101562 c 0
 152.727539062 42.181640625 183.818359375 -64.36328125 279.63671875 -81.63671875 c 0
 366.36328125 -96.36328125 461.454101562 -67.63671875 552.36328125 -54.5458984375 c 0
 558.909179688 -54.5458984375 565.63671875 -25.2724609375 565.272460938 -9.818359375 c 0
 564 56.36328125 549.454101562 123.818359375 558.909179688 188 c 0
 582.545898438 354.181640625 548.181640625 405.454101562 385.454101562 424 c 0
656.545898438 31.0908203125 m 1
 785.272460938 201.454101562 804.727539062 379.818359375 734.181640625 569.090820312 c 0
 719.454101562 608.545898438 701.090820312 653.272460938 670.36328125 678.181640625 c 0
 639.63671875 703.090820312 585.090820312 726.727539062 550 717.454101562 c 0
 484.833007812 700.805664062 386.598632812 656.90234375 330.727539062 619.454101562 c 0
 287.090820312 589.272460938 264.36328125 528.545898438 226.181640625 474 c 1
 252.986328125 477.169921875 296.645507812 479.858398438 323.63671875 480 c 0
 384.232421875 478.337890625 481.977539062 469.133789062 541.818359375 459.454101562 c 0
 569.451171875 451.00390625 600.892578125 422.494140625 612 395.818359375 c 0
 635.090820312 326 655.454101562 256 626.181640625 177.63671875 c 0
 610.909179688 135.090820312 585.090820312 71.818359375 656.545898438 31.0908203125 c 1
EndSplineSet
Validated: 524321
EndChar

StartChar: R
Encoding: 82 82 16
Width: 789
VWidth: 0
Flags: HW
LayerCount: 2
Fore
SplineSet
676.920898438 -141.602539062 m 1
 648.297851562 -207.40234375 590.721679688 -223.852539062 535.450195312 -162.987304688 c 0
 465.208007812 -86.6591796875 391.67578125 -19.2138671875 297.911132812 28.3271484375 c 0
 245.928710938 54.6474609375 239.841796875 100.872070312 282.612304688 144.46484375 c 0
 317.950195312 178.259765625 381.549804688 224.541015625 424.576171875 247.771484375 c 0
 516.697265625 300.904296875 595.1640625 366.869140625 650.435546875 458.33203125 c 0
 697.154296875 535.318359375 662.444335938 671.03125 584.635742188 712.979492188 c 0
 568.185546875 721.862304688 535.28515625 729.428710938 527.224609375 720.7109375 c 0
 485.606445312 679.5859375 418.490234375 669.221679688 398.255859375 599.802734375 c 0
 382.958007812 546.998046875 344.793945312 501.102539062 321.434570312 450.271484375 c 0
 278.6640625 356.999023438 240.665039062 261.588867188 198.223632812 168.317382812 c 0
 159.236328125 82.94140625 119.262695312 -2.10546875 74.84765625 -84.849609375 c 0
 66.4580078125 -100.3125 35.6962890625 -103.931640625 15.298828125 -112.979492188 c 1
 10.36328125 -93.8974609375 -4.1123046875 -70.7021484375 2.138671875 -56.390625 c 0
 29.4453125 6.9423828125 65.96484375 66.4912109375 93.107421875 129.98828125 c 0
 133.739257812 225.727539062 178.483398438 321.302734375 204.638671875 421.319335938 c 0
 229.149414062 515.084960938 232.110351562 614.443359375 243.131835938 711.499023438 c 0
 246.916015625 744.3984375 280.638671875 756.078125 318.966796875 735.680664062 c 0
 340.1875 724.330078125 360.256835938 710.840820312 384.767578125 696.03515625 c 0
 411.086914062 724.165039062 430.004882812 756.572265625 458.298828125 772.857421875 c 0
 567.692382812 835.3671875 680.2109375 785.359375 725.77734375 660.009765625 c 0
 773.647460938 528.409179688 749.465820312 435.794921875 632.340820312 325.0859375 c 0
 546.96484375 244.481445312 445.961914062 180.326171875 341.009765625 100.70703125 c 1
 396.282226562 64.517578125 456.16015625 28.8203125 511.59765625 -11.3173828125 c 0
 567.034179688 -51.4560546875 616.712890625 -93.732421875 676.920898438 -141.602539062 c 1
EndSplineSet
Validated: 524321
EndChar

StartChar: S
Encoding: 83 83 17
Width: 476
VWidth: 0
Flags: HW
LayerCount: 2
Fore
SplineSet
95.6337890625 153.52734375 m 1
 85.208984375 93.095703125 74.935546875 31.455078125 64.3603515625 -29.4306640625 c 0
 50.7626953125 -107.690429688 75.23828125 -137.754882812 155.008789062 -141.229492188 c 0
 157.685546875 -141.25 162.030273438 -141.266601562 164.70703125 -141.266601562 c 0
 211.991210938 -141.266601562 288.392578125 -136.106445312 335.247070312 -129.748046875 c 0
 380.571289062 -125.21484375 403.233398438 -96.2080078125 395.678710938 -51.48828125 c 0
 379.815429688 52.455078125 365.462890625 157.002929688 342.045898438 259.434570312 c 0
 321.649414062 348.572265625 260.61328125 415.047851562 192.778320312 473.515625 c 0
 127.96484375 529.415039062 92.4609375 594.379882812 115.424804688 682.459960938 c 0
 133.857421875 752.107421875 189.756835938 778.848632812 251.397460938 794.258789062 c 0
 264.321289062 797.233398438 285.57421875 799.647460938 298.836914062 799.647460938 c 0
 312.098632812 799.647460938 333.3515625 797.233398438 346.275390625 794.258789062 c 0
 364.858398438 790.028320312 379.2109375 766.913085938 395.376953125 752.258789062 c 1
 376.4921875 747.2734375 356.247070312 735.337890625 339.024414062 738.8125 c 0
 289.016601562 748.784179688 197.16015625 722.49609375 176.008789062 686.840820312 c 0
 154.857421875 651.185546875 170.418945312 589.544921875 215.2890625 539.38671875 c 0
 237.551757812 511.594726562 276.334960938 468.885742188 301.858398438 444.0546875 c 0
 403.53515625 354.615234375 411.088867188 229.21875 432.693359375 110.016601562 c 0
 443.571289062 49.5849609375 444.62890625 -13.7177734375 449.463867188 -75.6611328125 c 0
 454.147460938 -134.12890625 423.477539062 -172.201171875 370.448242188 -183.532226562 c 0
 268.318359375 -205.438476562 165.432617188 -210.122070312 67.3818359375 -162.380859375 c 0
 58.6142578125 -158.9375 45.4833984375 -151.424804688 38.072265625 -145.611328125 c 0
 -30.2158203125 -81.7041015625 -3.77734375 111.52734375 95.6337890625 153.52734375 c 1
EndSplineSet
Validated: 524321
EndChar

StartChar: T
Encoding: 84 84 18
Width: 829
VWidth: 0
Flags: HW
LayerCount: 2
Fore
SplineSet
1078.47363281 762.1484375 m 2
 1041.23730469 751.376953125 1004.61621094 734.758789062 966.763671875 731.374023438 c 0
 766.733398438 711.216796875 566.702148438 694.752929688 366.671875 676.134765625 c 0
 292.506835938 669.2109375 217.879882812 662.748046875 144.637695312 649.668945312 c 0
 119.403320312 645.20703125 98.4765625 619.97265625 74.1650390625 606.893554688 c 0
 58.7783203125 599.045898438 35.3896484375 587.3515625 28.00390625 593.19921875 c 0
 14.17578125 604.0546875 1.6982421875 627.078125 0.154296875 644.591796875 c 0
 3.1474609375 660.329101562 17.4853515625 678.321289062 32.1591796875 684.751953125 c 0
 70.984375 699.158203125 135.782226562 715.495117188 176.796875 721.21875 c 0
 397.599609375 744.453125 618.7109375 763.994140625 839.821289062 784.766601562 c 0
 898.907226562 790.306640625 957.993164062 797.692382812 1017.23339844 800.154296875 c 0
 1037.08300781 801.077148438 1057.546875 789.998046875 1077.85839844 784.766601562 c 2
 1078.47363281 762.1484375 l 2
382.05859375 586.583007812 m 2
 391.4453125 571.1953125 408.370117188 555.80859375 409.139648438 540.421875 c 0
 410.17578125 523.267578125 411.016601562 495.3984375 411.016601562 478.213867188 c 0
 411.016601562 388.575195312 388.668945312 246.590820312 361.1328125 161.286132812 c 0
 328.204101562 60.6552734375 310.817382812 -45.052734375 288.505859375 -148.915039062 c 0
 282.8125 -175.842773438 286.198242188 -205.693359375 244.806640625 -199.845703125 c 0
 203.416015625 -193.999023438 217.264648438 -164.763671875 222.95703125 -142.453125 c 0
 263.424804688 17.8798828125 306.354492188 177.596679688 346.053710938 338.390625 c 0
 350.188476562 362.270507812 353.544921875 401.3203125 353.544921875 425.555664062 c 0
 353.544921875 431.227539062 353.359375 440.431640625 353.130859375 446.099609375 c 0
 354.208007812 489.952148438 353.130859375 533.651367188 353.130859375 577.50390625 c 2
 382.05859375 586.583007812 l 2
EndSplineSet
Validated: 524321
EndChar

StartChar: U
Encoding: 85 85 19
Width: 862
VWidth: 0
Flags: HW
LayerCount: 2
Fore
SplineSet
135.635742188 786.508789062 m 1
 164.05859375 771.9375 197.158203125 765.4609375 204.712890625 748.192382812 c 0
 212.268554688 730.922851562 196.618164062 701.061523438 188.5234375 677.67578125 c 0
 169.275390625 621.190429688 141.751953125 566.504882812 129.51953125 508.400390625 c 0
 103.076171875 382.478515625 82.568359375 254.21875 63.140625 126.317382812 c 0
 59.36328125 101.493164062 63.140625 64.076171875 78.251953125 50.404296875 c 0
 99.837890625 31.3369140625 147.329101562 11.728515625 164.778320312 22.7021484375 c 0
 260.298828125 83.32421875 349.34375 154.200195312 442.705078125 218.780273438 c 0
 460.098632812 228.638671875 489.997070312 240.405273438 509.444335938 245.043945312 c 0
 514.185546875 265.380859375 524.33984375 297.6171875 532.110351562 316.999023438 c 0
 575.643554688 403.166015625 622.0546875 487.534179688 665.227539062 573.700195312 c 0
 694.549804688 632.704101562 717.03515625 694.9453125 747.077148438 753.588867188 c 0
 756.970703125 772.836914062 780.715820312 785.069335938 798.344726562 800.359375 c 1
 808.418945312 778.233398438 819.931640625 756.466796875 828.38671875 733.62109375 c 0
 828.791015625 731.6484375 829.119140625 728.412109375 829.119140625 726.397460938 c 0
 829.119140625 720.837890625 826.776367188 712.46875 823.889648438 707.716796875 c 0
 773.16015625 613.815429688 718.474609375 521.892578125 671.5234375 426.19140625 c 0
 642.239257812 369.287109375 604.845703125 272.981445312 588.055664062 211.224609375 c 0
 556.21484375 82.2451171875 535.34765625 -49.43359375 509.624023438 -180.032226562 c 0
 506.986328125 -185.8671875 501.5859375 -194.651367188 497.571289062 -199.640625 c 0
 454.578125 -178.953125 450.440429688 -144.0546875 458.715820312 -105.73828125 c 0
 476.704101562 -22.6298828125 497.571289062 59.9384765625 512.682617188 143.407226562 c 0
 516.280273438 162.834960938 503.6875 185.141601562 498.470703125 206.188476562 c 1
 485.571289062 198.940429688 465.98828125 185.240234375 454.7578125 175.607421875 c 0
 381.18359375 98.615234375 313.905273438 16.40625 209.030273438 -24.6083984375 c 0
 85.267578125 -72.9990234375 -13.3115234375 -18.3125 0.7197265625 113.185546875 c 0
 19.7880859375 291.634765625 30.041015625 472.962890625 113.330078125 640.438476562 c 0
 132.397460938 677.31640625 127.361328125 725.885742188 135.635742188 786.508789062 c 1
EndSplineSet
Validated: 524321
EndChar

StartChar: V
Encoding: 86 86 20
Width: 796
VWidth: 0
Flags: HW
LayerCount: 2
Fore
SplineSet
159.436523438 -55.09765625 m 1
 216.251953125 6.1220703125 255.670898438 51.9267578125 298.612304688 93.98828125 c 0
 360.2734375 154.327148438 440.431640625 200.352539062 435.146484375 305.174804688 c 0
 437.653320312 325.624023438 448.998046875 356.109375 460.471679688 373.221679688 c 0
 519.195638021 489.642252604 578.800455729 605.695963542 639.286132812 721.3828125 c 0
 653.600585938 748.689453125 672.319335938 773.353515625 689.49609375 800 c 0
 765.029296875 758.599609375 726.4921875 709.711914062 708.875 674.256835938 c 0
 646.333007812 548.513671875 575.423828125 426.954101562 510.680664062 302.091796875 c 0
 437.127929688 159.612304688 340.233398438 32.98828125 243.118164062 -92.7548828125 c 0
 209.424804688 -136.797851562 155.032226562 -165.646484375 107.245117188 -195.595703125 c 0
 101.051757812 -197.793945312 90.6904296875 -199.577148438 84.119140625 -199.577148438 c 0
 73.1279296875 -199.577148438 56.654296875 -194.833984375 47.3466796875 -188.989257812 c 0
 38.3173828125 -183.263671875 35.6748046875 -152.653320312 42.0615234375 -138.559570312 c 0
 108.125976562 10.966796875 72.0107421875 163.576171875 54.1728515625 313.983398438 c 0
 40.51953125 428.715820312 10.1298828125 541.24609375 -0.4404296875 669.852539062 c 1
 19.8193359375 651.133789062 48.447265625 636.159179688 58.7978515625 612.81640625 c 0
 107.494140625 507.061523438 147.015625 326.740234375 147.015625 210.3125 c 0
 147.015625 205.922851562 146.956054688 198.795898438 146.883789062 194.40625 c 0
 145.342773438 134.288085938 137.194335938 74.1689453125 137.634765625 14.26953125 c 0
 140.66796875 -5.8134765625 150.434570312 -36.890625 159.436523438 -55.09765625 c 1
EndSplineSet
Validated: 524321
EndChar

StartChar: W
Encoding: 87 87 21
Width: 1375
VWidth: 0
Flags: HW
LayerCount: 2
Fore
SplineSet
651.061523438 215.362304688 m 1
 643.756835938 201.5859375 641.251953125 190.106445312 634.155273438 184.6796875 c 0
 559.22265625 129.576171875 550.665039062 38.572265625 517.686523438 -37.4033203125 c 0
 508.0859375 -59.5283203125 509.12890625 -108.161132812 518.939453125 -112.3359375 c 0
 534.71875 -117.880859375 561.100585938 -122.380859375 577.826171875 -122.380859375 c 0
 587.711914062 -122.380859375 603.596679688 -120.779296875 613.283203125 -118.805664062 c 0
 645.217773438 -112.961914062 675.900390625 -95.01171875 721.40234375 -77.0615234375 c 1
 686.336914062 -156.376953125 591.158203125 -208.766601562 529.79296875 -200 c 0
 420.420898438 -184.13671875 436.493164062 -104.404296875 455.904296875 -17.57421875 c 1
 375.127929688 -56.3974609375 309.796875 -88.33203125 244.2578125 -119.014648438 c 0
 228.720703125 -126.603515625 202.444335938 -135.954101562 185.60546875 -139.887695312 c 0
 60.37109375 -166.186523438 -0.3681640625 -122.98046875 23.009765625 -0.66796875 c 0
 48.2646484375 132.498046875 101.490234375 260.23828125 140.938476562 390.899414062 c 0
 176.004882812 506.950195312 274.313476562 597.954101562 272.017578125 729.66015625 c 0
 272.017578125 749.071289062 296.856445312 771.404296875 315.015625 787.05859375 c 0
 321.485351562 792.694335938 342.567382812 781.423828125 356.759765625 777.875 c 0
 352.708984375 758.630859375 344.38671875 727.866210938 338.18359375 709.205078125 c 0
 289.133789062 583.969726562 238.622070312 458.735351562 189.36328125 333.5 c 0
 152.418945312 239.783203125 112.969726562 145.6484375 82.49609375 50.6787109375 c 0
 71.642578125 16.865234375 82.49609375 -24.462890625 85.0009765625 -62.2421875 c 1
 123.614257812 -58.0673828125 162.646484375 -55.5625 201.051757812 -49.30078125 c 0
 226.307617188 -45.1259765625 250.936523438 -28.4287109375 275.775390625 -28.4287109375 c 0
 401.009765625 -28.4287109375 457.783203125 62.3671875 521.65234375 146.900390625 c 0
 551.708984375 187.810546875 569.868164062 257.733398438 651.061523438 215.362304688 c 1
1297.48242188 559.548828125 m 1
 1034.48925781 85.744140625 l 2
 973.124023438 115.80078125 936.388671875 91.3798828125 901.114257812 31.4755859375 c 0
 873.706054688 -15.7978515625 807.501953125 -60.02734375 753.336914062 -67.2509765625 c 2
 739.561523438 -48.4658203125 l 1
 809.692382812 12.6904296875 888.172851562 66.75 948.286132812 136.881835938 c 0
 1024.26171875 226.424804688 1086.25292969 327.865234375 1151.16601562 426.3828125 c 0
 1181.640625 472.928710938 1202.51269531 525.735351562 1233.1953125 572.490234375 c 0
 1240.29199219 583.134765625 1269.72167969 578.9609375 1288.71582031 581.46484375 c 2
 1297.48242188 559.548828125 l 1
1246.97070312 628.845703125 m 2
 1267.84375 669.337890625 1291.4296875 709.205078125 1312.30175781 750.115234375 c 0
 1328.16503906 781.21484375 1343.40136719 819.411132812 1384.31152344 788.728515625 c 0
 1396 779.962890625 1391.82617188 736.547851562 1382.015625 714.83984375 c 0
 1368.50683594 686.020507812 1339.61230469 644.03515625 1317.51953125 621.123046875 c 0
 1305.4140625 608.599609375 1279.11425781 609.643554688 1259.28613281 604.424804688 c 2
 1246.97070312 628.845703125 l 2
EndSplineSet
Validated: 524321
EndChar

StartChar: X
Encoding: 88 88 22
Width: 658
VWidth: 0
Flags: HW
LayerCount: 2
Fore
SplineSet
220.990234375 800 m 1
 381.571289062 562.186523438 l 1
 459.758789062 651.271484375 475.434570312 794.264648438 628.369140625 774.000976562 c 1
 577.13671875 709.00390625 534.314453125 633.68359375 471.994140625 581.686523438 c 0
 400.305664062 521.659179688 396.482421875 462.014648438 422.481445312 383.0625 c 0
 466.067382812 250.391601562 502.962890625 115.427734375 546.740234375 -18.390625 c 0
 561.078125 -61.78515625 589.944335938 -100.209960938 608.870117188 -142.458007812 c 0
 615.370117188 -157.178710938 618.045898438 -188.147460938 611.546875 -191.779296875 c 0
 602.6484375 -196.813476562 587.129882812 -200.899414062 576.90625 -200.899414062 c 0
 570.465820312 -200.899414062 560.291992188 -199.211914062 554.196289062 -197.1328125 c 0
 538.611328125 -187.217773438 521.482421875 -164.865234375 515.962890625 -147.237304688 c 0
 466.83203125 0.91796875 420.37890625 150.219726562 371.822265625 298.18359375 c 0
 362.2265625 320.002929688 343.127929688 353.403320312 329.19140625 372.739257812 c 1
 310.07421875 353.623046875 290.958007812 334.505859375 274.134765625 313.668945312 c 0
 233.798828125 264.538085938 193.270507812 215.408203125 155.228515625 164.366210938 c 0
 121.200195312 118.676757812 92.525390625 68.7822265625 56.77734375 24.6220703125 c 0
 46.64453125 12.0048828125 19.6904296875 12.9609375 -0.5732421875 7.7998046875 c 1
 -0.5732421875 26.916015625 -6.6904296875 50.62109375 2.4853515625 62.4736328125 c 0
 90.61328125 177.174804688 179.888671875 290.919921875 272.4140625 401.796875 c 0
 314.471679688 452.265625 317.912109375 494.895507812 278.72265625 548.614257812 c 0
 251.518554688 587.581054688 214.006835938 654.553710938 194.991210938 698.107421875 c 0
 183.521484375 723.150390625 186.006835938 754.310546875 181.9921875 782.603515625 c 2
 220.990234375 800 l 1
2628.10644531 606.626953125 m 1024
EndSplineSet
Validated: 524321
EndChar

StartChar: Y
Encoding: 89 89 23
Width: 658
VWidth: 0
Flags: HW
LayerCount: 2
Fore
SplineSet
83.28515625 706.93359375 m 1
 115.650390625 715.1328125 134.206054688 721.317382812 147.87109375 678.165039062 c 0
 179.373046875 579.056640625 171.749023438 479.8046875 169.447265625 379.545898438 c 0
 169.447265625 363.00390625 180.091796875 346.317382812 185.989257812 329.631835938 c 1
 198.072265625 339.844726562 210.875 349.337890625 222.23828125 360.270507812 c 0
 245.397460938 382.56640625 265.391601562 410.328125 291.139648438 427.157226562 c 0
 325.805664062 449.166015625 358.458007812 468.440429688 358.458007812 515.62109375 c 0
 359.053710938 521.607421875 363.435546875 529.405273438 368.239257812 533.026367188 c 0
 454.545898438 590.563476562 489.499023438 686.219726562 542.721679688 767.922851562 c 0
 560.702148438 795.397460938 574.223632812 816.685546875 614.643554688 781.30078125 c 0
 543.728515625 676.294921875 472.669921875 572.295898438 402.905273438 467.43359375 c 0
 362.485351562 406.587890625 324.510742188 344.16015625 284.666015625 282.8828125 c 0
 277.927734375 274.260742188 265.813476562 261.372070312 257.624023438 254.114257812 c 2
 243.239257812 295.541015625 l 2
 211.096679688 285.000976562 178.875 249.686523438 171.317382812 216.71484375 c 0
 137.946289062 88.6943359375 99.3955078125 -37.744140625 59.6953125 -164.0390625 c 0
 54.9482421875 -179.57421875 32.220703125 -202.301757812 21.14453125 -200.71875 c 0
 -15.8232421875 -195.109375 6.7607421875 -169.361328125 12.0830078125 -151.092773438 c 0
 45.5986328125 -45.224609375 85.443359375 59.0625 111.046875 166.657226562 c 0
 125.431640625 224.194335938 116.369140625 288.923828125 115.075195312 350.201171875 c 0
 112.773111979 446.097005208 108.985026042 542.472330729 103.7109375 639.327148438 c 0
 102.416992188 660.471679688 91.6279296875 680.322265625 83.28515625 706.93359375 c 1
2628.10644531 606.626953125 m 1024
EndSplineSet
Validated: 524321
EndChar

StartChar: Z
Encoding: 90 90 24
Width: 1207
VWidth: 0
Flags: HW
LayerCount: 2
Fore
SplineSet
1168.13574219 145.747070312 m 1
 1184.66308594 48.34765625 1170.33984375 15.513671875 1065.00683594 -10.2685546875 c 0
 836.4921875 -66.4609375 606.213867188 -114.940429688 375.49609375 -161.877929688 c 0
 295.275390625 -176.573242188 164.172851562 -193.553710938 82.85546875 -199.779296875 c 0
 59.498046875 -201.983398438 34.15625 -186.337890625 0 -175.759765625 c 1
 314.67578125 120.405273438 653.37109375 363.463867188 910.092773438 710.75390625 c 1
 707.80078125 772.455078125 557.514648438 622.609375 379.461914062 613.353515625 c 1
 436.9765625 677.919921875 491.185546875 738.959960938 579.770507812 752.181640625 c 0
 676.950195312 766.9453125 773.46875 790.745117188 871.088867188 799.779296875 c 0
 906.346679688 802.864257812 963.860351562 784.133789062 976.201171875 758.572265625 c 0
 988.541015625 733.009765625 971.352539062 675.275390625 947.774414062 648.391601562 c 0
 846.62890625 530.71875 743.279296875 414.147460938 631.555664062 306.831054688 c 0
 519.833007812 199.515625 394.447265625 98.58984375 273.688476562 -3.216796875 c 0
 250.455078125 -20.49609375 210.965820312 -45.76953125 185.543945312 -59.6298828125 c 1
 291.538085938 -153.944335938 939.841796875 -18.421875 1168.13574219 145.747070312 c 1
1495.28417969 987.103515625 m 1024
EndSplineSet
Validated: 524321
EndChar

StartChar: a
Encoding: 97 97 25
Width: 636
VWidth: -170
Flags: HW
LayerCount: 2
Fore
SplineSet
379.9765625 89.23828125 m 0
 357.337890625 59.953125 328.3359375 8.0869140625 315.239257812 -26.533203125 c 0
 312.920898438 -30.19921875 311.040039062 -36.6943359375 311.040039062 -41.03125 c 0
 311.040039062 -47.4365234375 314.80078125 -56.2265625 319.434570312 -60.650390625 c 0
 321.6640625 -61.306640625 324.795898438 -63.185546875 326.424804688 -64.8447265625 c 0
 345.30078125 -89.453125 371.028320312 -89.3134765625 397.454101562 -84 c 0
 418.741210938 -80.1943359375 452.879882812 -72.2392578125 473.657226562 -66.2431640625 c 0
 479.805664062 -64.7666015625 489.889648438 -62.9501953125 496.166992188 -62.1875 c 0
 506.198242188 -61.5634765625 517.661132812 -53.6083984375 521.754882812 -44.4306640625 c 0
 522.630859375 -43.3212890625 524.384765625 -41.943359375 525.669921875 -41.3544921875 c 0
 535.876953125 -38.55859375 546.643554688 -39.1171875 556.989257812 -36.3212890625 c 0
 571.690429688 -33.4091796875 586.598632812 -19.251953125 590.266601562 -4.7216796875 c 0
 591.805664062 1.291015625 593.623046875 7.1630859375 601.172851562 8.421875 c 0
 625.641601562 -2.3447265625 632.073242188 -20.521484375 617.952148438 -42.3330078125 c 0
 606.478515625 -58.76171875 581.986328125 -77.9296875 563.282226562 -85.1181640625 c 0
 537.5546875 -96.3046875 510.149414062 -102.456054688 483.723632812 -111.265625 c 0
 471.1171875 -111.578125 451.82421875 -116.588867188 440.659179688 -122.451171875 c 0
 432.676757812 -127.280273438 418.645507812 -131.727539062 409.338867188 -132.377929688 c 0
 402.068359375 -132.377929688 400.809570312 -137.970703125 397.874023438 -142.4453125 c 0
 392.770507812 -146.734375 383.217773438 -150.215820312 376.551757812 -150.215820312 c 0
 373.1796875 -150.215820312 367.885742188 -149.240234375 364.735351562 -148.038085938 c 0
 340.034179688 -142.1015625 301.448242188 -128.2578125 278.606445312 -117.137695312 c 0
 266.861328125 -101.7578125 253.578125 -86.9365234375 256.793945312 -65.263671875 c 0
 257.392578125 -63.8740234375 258.895507812 -62.0576171875 260.149414062 -61.208984375 c 0
 269.797851562 -56.4873046875 278.254882812 -43.958984375 279.026367188 -33.2451171875 c 0
 282.940429688 -10.8740234375 286.295898438 11.6376953125 290.350585938 34.0087890625 c 0
 290.604492188 36.2373046875 290.809570312 39.8671875 290.809570312 42.1103515625 c 0
 290.809570312 50.0166015625 288.348632812 62.3603515625 285.317382812 69.6630859375 c 0
 285.317382812 85.7421875 285.317382812 101.822265625 267.83984375 110.491210938 c 0
 264.344726562 119.299804688 256.793945312 119.579101562 248.82421875 119.999023438 c 0
 236.379882812 120.837890625 223.516601562 117.0625 211.631835938 123.633789062 c 0
 207.297851562 133.282226562 212.889648438 139.993164062 218.342773438 146.705078125 c 0
 261.827148438 165.161132812 306.010742188 178.723632812 354.109375 168.237304688 c 0
 375.360351562 161.700195312 392.608398438 138.350585938 392.608398438 116.1171875 c 0
 392.608398438 111.068359375 391.270507812 103.098632812 389.624023438 98.326171875 c 0
 387.38671875 92.8740234375 381.793945312 93.4326171875 379.9765625 89.23828125 c 0
345.440429688 323.857421875 m 0
 345.440429688 316.8671875 345.440429688 311.133789062 354.109375 308.477539062 c 0
 362.778320312 305.821289062 366.833007812 301.346679688 373.684570312 298.969726562 c 0
 382.461914062 296.815429688 389.665039062 287.732421875 389.763671875 278.6953125 c 0
 395.497070312 262.4765625 400.669921875 245.977539062 407.520507812 230.038085938 c 0
 408.821289062 225.564453125 409.876953125 218.151367188 409.876953125 213.4921875 c 0
 409.876953125 205.490234375 406.879882812 193.233398438 403.186523438 186.133789062 c 0
 400.389648438 178.303710938 394.9375 180.122070312 389.204101562 183.897460938 c 0
 382.928710938 189.071289062 376.163085938 199.657226562 374.104492188 207.526367188 c 0
 369.931640625 222.635742188 355.2109375 240.676757812 341.24609375 247.794921875 c 0
 333.014648438 256.04296875 316.875976562 262.737304688 305.22265625 262.737304688 c 0
 302.481445312 262.737304688 298.07421875 262.307617188 295.384765625 261.77734375 c 0
 259.697265625 256.053710938 204.637695312 238.013671875 172.481445312 221.508789062 c 0
 165.422851562 217.430664062 153.076171875 214.120117188 144.922851562 214.120117188 c 0
 142.793945312 214.120117188 139.35546875 214.361328125 137.247070312 214.657226562 c 0
 132.192382812 216.9609375 125.928710938 222.786132812 123.264648438 227.661132812 c 0
 112.358398438 244.579101562 116.973632812 258.282226562 136.408203125 263.315429688 c 0
 146.061523438 265.287109375 159.780273438 272.302734375 167.028320312 278.975585938 c 0
 206.52734375 306.57421875 277.686523438 329.5625 325.866210938 330.290039062 c 0
 332.716796875 329.73046875 340.686523438 331.828125 345.440429688 323.857421875 c 0
341.9453125 247.794921875 m 1
 356.153320312 246.720703125 370.498046875 234.630859375 373.963867188 220.809570312 c 0
 378.997070312 206.828125 382.353515625 191.7265625 397.733398438 182.778320312 c 1
 404.584960938 204.03125 412.5546875 224.724609375 396.615234375 244.999023438 c 0
 392.411132812 251.364257812 389 262.720703125 389 270.348632812 c 0
 389 272.671875 389.342773438 276.411132812 389.763671875 278.6953125 c 1
 396.373046875 276.232421875 403.263671875 268.71484375 405.143554688 261.916992188 c 0
 416.889648438 213.5390625 431.5703125 164.881835938 409.19921875 115.524414062 c 0
 403.465820312 102.940429688 398.573242188 87.560546875 379.9765625 89.23828125 c 1
 400.809570312 122.515625 379.9765625 159.1484375 341.24609375 165.021484375 c 0
 297.0625 171.732421875 258.891601562 153.8359375 218.483398438 143.908203125 c 0
 213.336914062 140.98046875 204.354492188 138.604492188 198.432617188 138.604492188 c 0
 196.583007812 138.604492188 193.602539062 138.850585938 191.77734375 139.154296875 c 0
 185.764648438 139.853515625 179.193359375 139.154296875 174.579101562 144.1875 c 1
 202.165039062 157.032226562 248.958007812 171.250976562 279.026367188 175.926757812 c 0
 293.391601562 177.265625 316.762695312 178.3515625 331.190429688 178.3515625 c 0
 337.518554688 178.3515625 347.786132812 178.142578125 354.109375 177.884765625 c 0
 369.489257812 177.884765625 370.46875 183.337890625 368.091796875 195.641601562 c 0
 362.778320312 214.9375 347.397460938 228.918945312 341.9453125 247.794921875 c 1
6.5146484375 -44.01171875 m 0
 -4.9501953125 -34.6435546875 0.22265625 -28.630859375 10.4296875 -23.177734375 c 0
 20.6357421875 -17.724609375 28.046875 -21.919921875 38.3935546875 -19.9619140625 c 1
 16.5810546875 15.2724609375 32.6611328125 45.333984375 50.138671875 75.3955078125 c 0
 51.9033203125 78.7509765625 56.099609375 82.822265625 59.5068359375 84.484375 c 2
 133.471679688 121.81640625 l 2
 135.985351562 119.521484375 138.025390625 114.895507812 138.025390625 111.4921875 c 0
 138.025390625 109.9609375 137.551757812 107.571289062 136.967773438 106.15625 c 0
 134.03125 98.466796875 126.900390625 96.5087890625 120.049804688 94.1318359375 c 0
 113.198242188 91.7548828125 102.431640625 87.560546875 93.623046875 83.9248046875 c 0
 69.853515625 73.998046875 65.6591796875 52.7451171875 62.3037109375 30.9326171875 c 0
 59.2275390625 26.1787109375 52.9345703125 25.060546875 49.2998046875 20.865234375 c 0
 47.5498046875 18.84375 46.12890625 15.03125 46.12890625 12.3564453125 c 0
 46.12890625 10.255859375 47.0478515625 7.115234375 48.1806640625 5.345703125 c 0
 50.138671875 1.7099609375 52.7958984375 -1.3662109375 57.26953125 -0.806640625 c 0
 61.7431640625 -0.2470703125 64.6806640625 5.2060546875 65.7978515625 10.099609375 c 0
 66.4853515625 14.68359375 68.7412109375 21.7626953125 70.83203125 25.8994140625 c 0
 76.2001953125 35.3408203125 89.3544921875 43.546875 100.194335938 44.2158203125 c 0
 102.600585938 44.70703125 106.547851562 45.10546875 109.002929688 45.10546875 c 0
 111.459960938 45.10546875 115.405273438 44.70703125 117.811523438 44.2158203125 c 0
 127.180664062 16.251953125 89.84765625 -36.041015625 61.8837890625 -35.76171875 c 0
 57.5498046875 -35.76171875 53.0751953125 -34.083984375 50.138671875 -38.9775390625 c 0
 47.2021484375 -43.87109375 41.7490234375 -47.5068359375 36.1572265625 -44.990234375 c 0
 26.0888671875 -41.3544921875 16.3017578125 -44.990234375 6.5146484375 -44.01171875 c 0
279.026367188 -114.061523438 m 1
 267.918945312 -116.146484375 252.383789062 -124.290039062 244.350585938 -132.23828125 c 0
 221.190429688 -153.220703125 177.030273438 -170.25 145.778320312 -170.25 c 0
 138.938476562 -170.25 127.912109375 -169.319335938 121.166992188 -168.171875 c 2
 114.31640625 -161.4609375 l 2
 119.909179688 -152.791992188 129.836914062 -154.609375 137.806640625 -151.673828125 c 0
 147.685546875 -149.43359375 163.909179688 -147.116210938 174.020507812 -146.5 c 0
 174.055664062 -146.5 174.114257812 -146.5 174.149414062 -146.5 c 0
 177.915039062 -146.5 183.557617188 -144.872070312 186.743164062 -142.864257812 c 0
 191.078125 -140.068359375 195.413085938 -136.852539062 194.853515625 -131.120117188 c 0
 194.293945312 -125.38671875 188.701171875 -123.848632812 183.666992188 -122.73046875 c 0
 178.633789062 -121.612304688 169.685546875 -122.73046875 164.372070312 -118.536132812 c 0
 163.333007812 -116.541015625 162.489257812 -113.095703125 162.489257812 -110.845703125 c 0
 162.489257812 -108.595703125 163.333007812 -105.150390625 164.372070312 -103.155273438 c 0
 167.467773438 -97.15625 175.046875 -90.203125 181.290039062 -87.6357421875 c 0
 200.446289062 -78.4072265625 220.719726562 -71.9755859375 239.735351562 -62.4677734375 c 0
 241.805664062 -61.078125 245.506835938 -59.9501953125 247.999023438 -59.9501953125 c 0
 251.321289062 -59.9501953125 255.950195312 -61.8291015625 258.33203125 -64.1455078125 c 0
 257.493164062 -84 270.635742188 -98.1220703125 279.026367188 -114.061523438 c 1
138.225585938 -154.749023438 m 0
 131.094726562 -160.342773438 121.866210938 -157.685546875 114.31640625 -161.4609375 c 0
 113.055664062 -161.623046875 110.999023438 -161.75390625 109.727539062 -161.75390625 c 0
 104.430664062 -161.75390625 96.4013671875 -159.618164062 91.8056640625 -156.986328125 c 0
 47.0625 -131.819335938 10.8486328125 -99.939453125 6.5146484375 -44.01171875 c 0
 10.0517578125 -40.5302734375 16.9501953125 -37.7041015625 21.9130859375 -37.7041015625 c 0
 25.0830078125 -37.7041015625 29.8974609375 -38.9638671875 32.6611328125 -40.515625 c 0
 38.5341796875 -43.4521484375 44.5458984375 -44.990234375 47.6220703125 -36.4609375 c 0
 60.625 -37.439453125 65.6591796875 -50.443359375 74.7470703125 -56.455078125 c 0
 86.0302734375 -62.8486328125 101.438476562 -76.5048828125 109.143554688 -86.9365234375 c 0
 104.80859375 -96.7236328125 115.015625 -106.231445312 109.143554688 -116.159179688 c 0
 102.291992188 -118.815429688 96.1396484375 -115.1796875 89.7080078125 -113.782226562 c 0
 87.4716796875 -113.173828125 83.7763671875 -112.680664062 81.4580078125 -112.680664062 c 0
 79.1416015625 -112.680664062 75.4453125 -113.173828125 73.208984375 -113.782226562 c 0
 69.4345703125 -115.040039062 65.5185546875 -116.717773438 64.9599609375 -121.052734375 c 0
 64.400390625 -125.38671875 69.0146484375 -127.344726562 72.509765625 -128.602539062 c 0
 88.7294921875 -134.3359375 105.368164062 -139.369140625 121.586914062 -145.1015625 c 0
 128.297851562 -146.5 135.4296875 -147.338867188 138.225585938 -154.749023438 c 0
168.147460938 274.221679688 m 0
 161.899414062 266.522460938 148.807617188 259.6328125 138.924804688 258.840820312 c 0
 119.209960938 254.086914062 116.133789062 245.698242188 127.459960938 228.779296875 c 0
 130.815429688 223.74609375 134.450195312 218.9921875 137.946289062 214.098632812 c 1
 109.981445312 196.48046875 80.8994140625 181.240234375 46.5029296875 186.133789062 c 0
 33.9189453125 188.091796875 37.9736328125 202.353515625 41.0498046875 208.0859375 c 0
 47.4814453125 219.831054688 47.9013671875 233.25390625 54.0537109375 244.859375 c 0
 86.3525390625 254.506835938 115.994140625 271.984375 149.831054688 277.297851562 c 0
 156.262695312 278.555664062 163.114257812 281.072265625 168.147460938 274.221679688 c 0
637.946289062 -60.509765625 m 0
 623.963867188 -67.5009765625 609.981445312 -73.6533203125 596 -81.7626953125 c 0
 564.260742188 -101.7578125 527.208007812 -108.46875 494.0703125 -124.967773438 c 0
 489.953125 -126.67578125 482.993164062 -128.061523438 478.536132812 -128.061523438 c 0
 476.040039062 -128.061523438 472.036132812 -127.615234375 469.6015625 -127.064453125 c 0
 469.6015625 -116.998046875 475.75390625 -112.244140625 483.583984375 -107.629882812 c 2
 559.086914062 -81.7626953125 l 2
 573.641601562 -76.5107421875 594.061523438 -63.10546875 604.668945312 -51.8408203125 c 0
 623.543945312 -32.685546875 631.654296875 -13.2509765625 601.034179688 6.603515625 c 0
 598.000976562 7.7060546875 595.370117188 11.2138671875 595.161132812 14.43359375 c 0
 601.592773438 31.3525390625 609.143554688 33.7294921875 622.286132812 22.5439453125 c 0
 628.018554688 17.7900390625 635.009765625 13.875 637.806640625 6.1845703125 c 0
 636.827148438 -16.046875 644.657226562 -38.2783203125 637.946289062 -60.509765625 c 0
134.450195312 103.918945312 m 2
 134.450195312 121.81640625 l 2
 143.639648438 131.619140625 161.805664062 141.641601562 174.999023438 144.1875 c 2
 192.196289062 144.1875 l 2
 183.688476562 130.16015625 165.397460938 111.869140625 151.369140625 103.360351562 c 0
 149.450195312 101.620117188 145.7890625 100.208007812 143.198242188 100.208007812 c 0
 140.349609375 100.208007812 136.430664062 101.870117188 134.450195312 103.918945312 c 2
134.450195312 103.918945312 m 2
 135.446289062 103.799804688 137.069335938 103.702148438 138.073242188 103.702148438 c 0
 145.946289062 103.702148438 156.413085938 108.623046875 161.436523438 114.685546875 c 0
 171.502929688 124.752929688 181.989257812 134.260742188 192.4765625 143.908203125 c 2
 219.182617188 143.908203125 l 1
 212.470703125 123.9140625 l 2
 202.614257812 109.013671875 180.627929688 93.103515625 163.393554688 88.3994140625 c 0
 138.0859375 82.38671875 116.693359375 72.4599609375 107.465820312 45.6142578125 c 0
 106.486328125 42.95703125 103.690429688 41.69921875 101.172851562 40.30078125 c 0
 91.203125 39.6943359375 79.1767578125 32.115234375 74.3271484375 23.3828125 c 0
 66.6376953125 19.1875 63.4208984375 23.3828125 60.345703125 29.9541015625 c 0
 60.345703125 67.42578125 70.6923828125 81.12890625 106.067382812 93.8525390625 c 2
 134.450195312 103.918945312 l 2
100.893554688 40.30078125 m 1
 106.919921875 65.8935546875 133.040039062 88.8203125 159.19921875 91.4755859375 c 0
 171.723632812 93.958984375 188.762695312 103.73046875 197.23046875 113.287109375 c 0
 201.145507812 117.341796875 205.060546875 122.794921875 211.211914062 123.494140625 c 0
 227.151367188 123.494140625 243.091796875 123.494140625 259.170898438 123.494140625 c 0
 267.700195312 123.494140625 273.153320312 121.1171875 268.399414062 110.630859375 c 0
 264.204101562 109.232421875 259.590820312 105.876953125 255.955078125 106.715820312 c 0
 233.723632812 111.889648438 218.762695312 100.84375 202.962890625 87.140625 c 0
 184.786132812 71.3408203125 161.016601562 65.748046875 139.344726562 54.841796875 c 0
 131.934570312 51.20703125 125.362304688 47.0126953125 117.392578125 43.09765625 c 0
 114.142578125 41.392578125 108.526367188 40.0087890625 104.856445312 40.0087890625 c 0
 103.756835938 40.0087890625 101.981445312 40.1396484375 100.893554688 40.30078125 c 1
259.311523438 -64.1455078125 m 1
 267.000976562 -25.8349609375 274.831054688 12.3369140625 282.1015625 50.5078125 c 0
 283.16796875 56.400390625 286.174804688 65.5458984375 288.813476562 70.921875 c 1
 304.333007812 42.95703125 290.211914062 15.83203125 287.973632812 -11.5732421875 c 0
 287.973632812 -20.9404296875 284.478515625 -30.029296875 283.219726562 -39.537109375 c 0
 283.014648438 -52.541015625 272.303710938 -63.5654296875 259.311523438 -64.1455078125 c 1
523.29296875 -43.3125 m 1
 531.682617188 -39.3974609375 539.931640625 -35.3427734375 548.4609375 -31.70703125 c 0
 553.633789062 -29.4697265625 560.206054688 -27.5126953125 562.442382812 -22.478515625 c 0
 568.174804688 -4.0224609375 585.932617188 1.7099609375 598.237304688 13.0361328125 c 2
 601.592773438 6.603515625 l 2
 598.946289062 5.439453125 596.126953125 2.244140625 595.30078125 -0.52734375 c 0
 586.211914062 -31.8466796875 572.649414062 -42.4736328125 540.350585938 -43.7314453125 c 0
 534.19921875 -44.01171875 528.74609375 -43.4521484375 523.29296875 -43.3125 c 1
483.024414062 -107.629882812 m 2
 469.041992188 -127.064453125 l 1
 395.216796875 -141.046875 l 2
 395.216796875 -135.874023438 393.819335938 -127.064453125 401.928710938 -128.602539062 c 0
 420.104492188 -130.83984375 433.528320312 -119.793945312 448.627929688 -113.782226562 c 0
 456.754882812 -110.337890625 470.514648438 -107.543945312 479.340820312 -107.543945312 c 0
 480.358398438 -107.543945312 482.008789062 -107.58203125 483.024414062 -107.629882812 c 2
475.893554688 -70.2978515625 m 1
 475.893554688 -64.984375 469.182617188 -60.3701171875 474.635742188 -54.6376953125 c 0
 482.211914062 -54.4951171875 493.362304688 -50.7998046875 499.5234375 -46.388671875 c 0
 503.375 -43.8662109375 510.237304688 -41.8193359375 514.840820312 -41.8193359375 c 0
 517.270507812 -41.8193359375 521.120117188 -42.42578125 523.432617188 -43.171875 c 0
 523.532226562 -43.876953125 523.614257812 -45.02734375 523.614257812 -45.7392578125 c 0
 523.614257812 -55.126953125 516.015625 -63.3095703125 506.654296875 -64.005859375 c 0
 497.006835938 -66.3828125 486.240234375 -68.4794921875 475.893554688 -70.2978515625 c 1
60.625 29.39453125 m 0
 65.37890625 27.716796875 68.1748046875 22.1240234375 74.607421875 22.8232421875 c 1
 73.3486328125 17.509765625 72.509765625 12.056640625 70.9716796875 6.8837890625 c 0
 69.4345703125 1.7099609375 67.1962890625 -6.259765625 59.0869140625 -7.0986328125 c 0
 58.5478515625 -7.1904296875 57.6669921875 -7.2646484375 57.1201171875 -7.2646484375 c 0
 52.4013671875 -7.2646484375 47.3935546875 -3.619140625 45.9443359375 0.87109375 c 0
 43.70703125 7.1630859375 38.1142578125 13.734375 44.4052734375 20.865234375 c 0
 47.4365234375 25.5791015625 54.4443359375 29.4033203125 60.0478515625 29.4033203125 c 0
 60.20703125 29.4033203125 60.4658203125 29.3994140625 60.625 29.39453125 c 0
138.225585938 -154.749023438 m 0
 116.274414062 -147.19921875 94.322265625 -139.7890625 72.3701171875 -131.958984375 c 0
 66.6376953125 -129.861328125 56.8505859375 -130.28125 58.3876953125 -121.192382812 c 0
 60.2646484375 -113.467773438 68.23828125 -107.198242188 76.1865234375 -107.198242188 c 0
 76.3681640625 -107.198242188 76.6630859375 -107.204101562 76.8447265625 -107.209960938 c 0
 89.0087890625 -106.231445312 98.9365234375 -114.061523438 110.680664062 -114.061523438 c 0
 111.372070312 -113.762695312 112.541992188 -113.51953125 113.293945312 -113.51953125 c 0
 114.868164062 -113.51953125 117.016601562 -114.451171875 118.091796875 -115.599609375 c 0
 122.893554688 -119.491210938 131.805664062 -122.6484375 137.987304688 -122.6484375 c 0
 142.504882812 -122.6484375 149.376953125 -120.869140625 153.327148438 -118.67578125 c 0
 155.077148438 -117.456054688 158.228515625 -116.465820312 160.362304688 -116.465820312 c 0
 161.5 -116.465820312 163.295898438 -116.766601562 164.372070312 -117.137695312 c 0
 171.631835938 -117.188476562 183.344726562 -118.127929688 190.518554688 -119.235351562 c 0
 202.68359375 -122.03125 204.500976562 -130.560546875 197.23046875 -140.34765625 c 0
 193.461914062 -145.388671875 185.319335938 -149.9609375 179.053710938 -150.5546875 c 0
 165.491210938 -152.372070312 151.928710938 -153.491210938 138.225585938 -154.749023438 c 0
164.512695312 -117.416992188 m 0
 140.043945312 -131.399414062 129.836914062 -131.399414062 110.821289062 -114.340820312 c 0
 106.20703125 -105.952148438 98.7958984375 -97.8427734375 107.465820312 -87.6357421875 c 0
 127.599609375 -92.3896484375 149.411132812 -90.431640625 167.30859375 -103.994140625 c 0
 168.846679688 -109.028320312 165.491210938 -112.943359375 164.512695312 -117.416992188 c 0
EndSplineSet
Validated: 37
EndChar

StartChar: b
Encoding: 98 98 26
Width: 607
VWidth: 0
Flags: HW
LayerCount: 2
Fore
SplineSet
397.912109375 494.508789062 m 4
 389.823242188 560.771484375 434.776367188 620.65625 420.77734375 687.541015625 c 4
 419.310546875 691.165039062 418.12109375 697.280273438 418.12109375 701.190429688 c 4
 418.12109375 710.318359375 423.701171875 722.600585938 430.576171875 728.604492188 c 4
 443.331054688 742.759765625 449.864257812 771.224609375 478.329101562 755.98046875 c 4
 500.260742188 744.314453125 503.682617188 724.872070312 495.905273438 701.6953125 c 4
 486.728515625 674.474609375 488.594726562 645.232421875 482.216796875 617.389648438 c 4
 472.884765625 548.794921875 472.884765625 477.399414062 437.419921875 415.181640625 c 4
 433.56640625 410.145507812 430.4375 400.912109375 430.4375 394.571289062 c 4
 430.4375 387.541992188 434.193359375 377.541992188 438.8203125 372.250976562 c 4
 445.224609375 366.37109375 457.477539062 361.598632812 466.171875 361.598632812 c 4
 470.692382812 361.598632812 477.741210938 363.025390625 481.90625 364.784179688 c 4
 565.58984375 385.471679688 608.053710938 353.896484375 606.342773438 269.435546875 c 4
 606.342773438 229.771484375 612.408203125 187.9296875 587.676757812 151.532226562 c 4
 572.122070312 115.134765625 556.567382812 79.5146484375 539.302734375 43.7392578125 c 4
 535.984375 42.3369140625 530.368164062 41.1982421875 526.765625 41.1982421875 c 4
 516.713867188 41.1982421875 504.3515625 48.1904296875 499.171875 56.8046875 c 4
 496.27734375 62.2490234375 493.928710938 71.669921875 493.928710938 77.8349609375 c 4
 493.928710938 81.6962890625 494.883789062 87.814453125 496.060546875 91.4912109375 c 4
 516.28125 148.732421875 555.323242188 201.151367188 540.391601562 267.2578125 c 4
 535.368164062 276.608398438 524.149414062 289.01171875 515.348632812 294.944335938 c 4
 462.462890625 315.943359375 432.598632812 281.723632812 402.266601562 248.28125 c 4
 363.69140625 205.662109375 345.026367188 147.176757812 294.474609375 114.356445312 c 4
 275.649414062 93.2705078125 253.350585938 54.3173828125 244.700195312 27.4072265625 c 4
 242.846679688 23.2548828125 239.153320312 16.9130859375 236.456054688 13.2529296875 c 4
 218.891601562 -6.998046875 193.0390625 -41.83984375 178.749023438 -64.5205078125 c 4
 170.971679688 -75.09765625 159.927734375 -86.140625 145.461914062 -80.8525390625 c 4
 130.99609375 -75.5634765625 131.307617188 -60.009765625 132.084960938 -46.4765625 c 4
 145.6171875 9.052734375 183.5703125 54.6279296875 205.658203125 116.845703125 c 5
 156.194335938 106.11328125 142.506835938 60.2275390625 104.864257812 51.361328125 c 4
 100.786132812 50.3037109375 94.056640625 49.4462890625 89.8427734375 49.4462890625 c 4
 89.1806640625 49.4462890625 88.10546875 49.4677734375 87.443359375 49.494140625 c 4
 50.890625 60.0712890625 44.046875 82.00390625 69.400390625 108.756835938 c 4
 108.287109375 149.821289062 148.106445312 187.774414062 214.6796875 169.73046875 c 4
 259.009765625 157.75390625 285.141601562 198.973632812 296.962890625 227.126953125 c 4
 334.293945312 315.009765625 396.044921875 394.02734375 397.912109375 494.508789062 c 4
397.912109375 494.508789062 m 5
 402.111328125 418.447265625 325.583007812 232.259765625 273.475585938 183.418945312 c 4
 261.583007812 169.637695312 237.15625 158.453125 218.953125 158.453125 c 4
 212.823242188 158.453125 203.103515625 159.951171875 197.258789062 161.797851562 c 4
 141.728515625 173.930664062 102.375976562 135.35546875 70.9560546875 95.69140625 c 4
 50.890625 70.337890625 78.111328125 64.58203125 96.62109375 59.2939453125 c 4
 90.087890625 25.8515625 65.51171875 -4.634765625 80.1328125 -41.4990234375 c 4
 93.8212890625 -88.1630859375 111.2421875 -130.9375 169.260742188 -134.826171875 c 4
 182.79296875 -134.826171875 196.169921875 -134.826171875 209.546875 -134.826171875 c 4
 213.8671875 -135.4765625 220.920898438 -136.004882812 225.290039062 -136.004882812 c 4
 248.426757812 -136.004882812 280.884765625 -123.142578125 297.740234375 -107.294921875 c 4
 307.6640625 -97.65625 326.200195312 -85.8095703125 339.115234375 -80.8525390625 c 4
 370.224609375 -82.71875 387.490234375 -45.5439453125 419.999023438 -49.7431640625 c 4
 429.651367188 -51.6669921875 442.194335938 -59.6806640625 447.997070312 -67.630859375 c 4
 446.286132812 -99.984375 411.444335938 -101.073242188 397.133789062 -121.60546875 c 4
 333.671875 -175.268554688 252.4765625 -177.446289062 177.348632812 -196.888671875 c 4
 86.8212890625 -214.62109375 48.8681640625 -152.403320312 17.759765625 -86.9189453125 c 4
 -6.81640625 -35.27734375 -11.0166015625 16.830078125 29.5810546875 68.626953125 c 4
 55.556640625 101.7578125 77.7998046875 136.444335938 112.641601562 161.954101562 c 4
 128.483398438 174.90625 157.948242188 185.418945312 178.412109375 185.418945312 c 4
 182.82421875 185.418945312 189.943359375 184.87109375 194.302734375 184.196289062 c 4
 256.521484375 171.442382812 287.629882812 207.061523438 303.184570312 255.436523438 c 4
 330.872070312 337.408203125 385.934570312 407.404296875 397.912109375 494.508789062 c 5
397.755859375 -114.76171875 m 6
 444.419921875 -68.09765625 l 6
 463.084960938 -19.72265625 483.461914062 27.095703125 536.502929688 48.4052734375 c 4
 543.27734375 80.5849609375 566.2734375 126.85546875 587.83203125 151.6875 c 5
 559.211914062 35.4951171875 508.815429688 -66.0751953125 399.000976562 -127.205078125 c 4
 395.422851562 -125.02734375 394.0234375 -122.3828125 394.645507812 -119.583007812 c 4
 395.267578125 -116.783203125 396.666992188 -114.76171875 397.755859375 -114.76171875 c 6
482.83984375 617.856445312 m 5
 480.396484375 627.053710938 478.4140625 642.240234375 478.4140625 651.756835938 c 4
 478.4140625 664.641601562 481.999023438 684.923828125 486.416992188 697.029296875 c 4
 494.0390625 717.872070312 495.905273438 736.537109375 475.217773438 746.803710938 c 4
 448.930664062 759.713867188 454.997070312 726.426757812 441.930664062 719.583007812 c 4
 431.950195312 713.473632812 422.473632812 699.119140625 420.77734375 687.541015625 c 5
 409.578125 730.471679688 445.6640625 796.422851562 486.416992188 799.688476562 c 4
 515.659179688 802.64453125 518.770507812 776.82421875 517.526367188 755.825195312 c 4
 514.673828125 716.055664062 499.133789062 654.24609375 482.83984375 617.856445312 c 5
397.755859375 -114.76171875 m 5
 399.466796875 -126.893554688 l 5
 337.249023438 -187.08984375 257.765625 -192.844726562 177.815429688 -197.044921875 c 5
 251.388671875 -170.135742188 330.715820312 -159.091796875 397.755859375 -114.76171875 c 5
107.353515625 59.7607421875 m 4
 164.283203125 45.9169921875 167.23828125 28.6513671875 121.352539062 -23.1455078125 c 4
 105.797851562 -32.322265625 99.4208984375 -64.0537109375 71.111328125 -45.232421875 c 4
 59.6005859375 -5.568359375 54.4677734375 32.5400390625 97.0869140625 58.8271484375 c 4
 98.197265625 58.4169921875 100.05859375 58.083984375 101.241210938 58.083984375 c 4
 103.055664062 58.083984375 105.793945312 58.8349609375 107.353515625 59.7607421875 c 4
338.959960938 -90.6513671875 m 5
 350.470703125 -78.052734375 377.846679688 -84.2744140625 378.001953125 -58.142578125 c 6
 398.844726562 -43.98828125 l 6
 429.954101562 2.67578125 478.172851562 38.9169921875 494.194335938 96.0029296875 c 4
 495.232421875 96.3623046875 496.967773438 96.654296875 498.06640625 96.654296875 c 4
 501.44921875 96.654296875 505.77734375 94.4111328125 507.7265625 91.6474609375 c 6
 505.548828125 59.2939453125 l 6
 500.491210938 14.3720703125 463.209960938 -37.751953125 422.33203125 -57.0537109375 c 4
 390.756835938 -58.9208984375 378.624023438 -108.228515625 338.959960938 -90.6513671875 c 5
121.352539062 -46.4765625 m 6
 140.795898438 -42.27734375 l 6
 142.817382812 -51.4541015625 141.884765625 -65.919921875 147.328125 -68.875 c 4
 160.23828125 -76.0302734375 167.083007812 -61.564453125 172.215820312 -53.3212890625 c 4
 189.791992188 -23.9228515625 202.236328125 8.8974609375 237.078125 24.4521484375 c 5
 217.946289062 -6.6572265625 198.813476562 -39.0107421875 179.37109375 -70.5859375 c 4
 165.215820312 -93.451171875 142.817382812 -93.91796875 119.641601562 -91.1181640625 c 4
 88.376953125 -75.09765625 96.154296875 -60.4755859375 121.352539062 -46.4765625 c 6
422.33203125 -56.5869140625 m 4
 448.619140625 -16.767578125 489.838867188 12.3193359375 505.548828125 59.7607421875 c 6
 536.658203125 48.5615234375 l 6
 494.81640625 18.541015625 482.83984375 -34.966796875 444.575195312 -67.7861328125 c 4
 443.634765625 -67.94140625 442.09765625 -68.06640625 441.14453125 -68.06640625 c 4
 434.018554688 -68.06640625 425.590820312 -62.923828125 422.33203125 -56.5869140625 c 4
516.904296875 141.110351562 m 4
 530.903320312 186.685546875 553.145507812 230.548828125 548.946289062 281.1015625 c 5
 573.989257812 266.946289062 566.989257812 242.993164062 560.767578125 224.793945312 c 4
 545.212890625 180.15234375 540.546875 131.466796875 507.7265625 92.8916015625 c 6
 501.66015625 97.7138671875 l 6
 491.861328125 116.690429688 508.348632812 127.422851562 516.904296875 141.110351562 c 4
283.5859375 118.08984375 m 5
 280.94140625 80.2919921875 252.4765625 55.8720703125 236.922851562 24.7626953125 c 5
 233.966796875 64.4267578125 258.232421875 90.869140625 283.5859375 118.08984375 c 5
121.352539062 -46.4765625 m 6
 115.752929688 -62.03125 97.2431640625 -75.408203125 119.641601562 -91.2734375 c 4
 125.708007812 -118.02734375 183.881835938 -103.40625 166.3046875 -149.291992188 c 4
 113.909179688 -145.627929688 71.3857421875 -100.026367188 71.3857421875 -47.5029296875 c 4
 71.3857421875 -46.748046875 71.40234375 -45.521484375 71.4228515625 -44.765625 c 5
 92.8876953125 -48.1875 100.04296875 -18.7900390625 121.663085938 -22.6787109375 c 6
 121.352539062 -46.4765625 l 6
208.458007812 -148.359375 m 6
 306.139648438 -114.76171875 l 6
 282.963867188 -153.336914062 245.944335938 -151.469726562 208.458007812 -148.359375 c 6
EndSplineSet
Validated: 37
EndChar

StartChar: c
Encoding: 99 99 27
Width: 634
VWidth: 0
Flags: HW
LayerCount: 2
Fore
SplineSet
351.31640625 -152.591796875 m 4
 337.012695312 -152.924804688 313.790039062 -153.1953125 299.483398438 -153.1953125 c 4
 251.319335938 -153.1953125 173.262695312 -150.137695312 125.247070312 -146.370117188 c 4
 86.0009765625 -143.01953125 56.9638671875 -130.416015625 39.095703125 -94.2001953125 c 4
 15.3232421875 -54.1552734375 5.591796875 -14.4296875 33.990234375 28.96484375 c 4
 38.19140625 38.509765625 41.6005859375 54.720703125 41.6005859375 65.150390625 c 4
 41.6005859375 66.392578125 41.55078125 68.4072265625 41.4892578125 69.6474609375 c 4
 44.5087890625 83.1376953125 56.4443359375 100.077148438 68.1318359375 107.458984375 c 4
 81.3740234375 122.13671875 94.1376953125 141.44140625 115.994140625 135.37890625 c 4
 137.850585938 129.31640625 136.096679688 109.373046875 131.948242188 91.185546875 c 4
 115.994140625 45.8759765625 89.9892578125 3.9169921875 86.4794921875 -45.7001953125 c 4
 95.0947265625 -83.6708984375 125.56640625 -86.5419921875 155.719726562 -86.7021484375 c 4
 162.116210938 -86.4345703125 172.504882812 -86.2177734375 178.907226562 -86.2177734375 c 4
 216.479492188 -86.2177734375 276.565429688 -93.58203125 313.026367188 -102.65625 c 4
 378.59765625 -93.0830078125 447.518554688 -102.65625 507.028320312 -60.6962890625 c 4
 512.436523438 -56.8486328125 522.21484375 -53.7255859375 528.852539062 -53.7255859375 c 4
 542.602539062 -53.7255859375 558.127929688 -63.99609375 563.504882812 -76.650390625 c 4
 576.108398438 -106.325195312 547.551757812 -108.55859375 529.204101562 -120.365234375 c 4
 474.322265625 -155.783203125 410.346679688 -139.03125 351.31640625 -152.591796875 c 4
290.052734375 326.827148438 m 4
 337.915039062 342.78125 388.010742188 361.607421875 422.311523438 301.620117188 c 4
 435.393554688 255.991210938 397.104492188 255.034179688 372.215820312 250.087890625 c 4
 353.05078125 247.545898438 322.889648438 239.754882812 304.889648438 232.698242188 c 4
 284.788085938 228.390625 265.483398438 226.794921875 251.444335938 246.418945312 c 4
 241.711914062 284.0703125 265.004882812 305.927734375 290.052734375 326.827148438 c 4
351.31640625 -152.591796875 m 5
 408.750976562 -133.447265625 473.524414062 -146.2109375 526.811523438 -111.430664062 c 4
 539.095703125 -103.453125 563.504882812 -102.815429688 556.166992188 -82.0751953125 c 4
 548.827148438 -61.3349609375 525.694335938 -67.23828125 509.899414062 -74.736328125 c 4
 471.303710938 -92.5234375 405.489257812 -106.959960938 362.9921875 -106.959960938 c 4
 349.264648438 -106.959960938 327.094726562 -105.388671875 313.504882812 -103.453125 c 5
 363.44140625 -80.4794921875 421.993164062 -98.029296875 470.811523438 -69.630859375 c 4
 500.805664062 -45.0615234375 545.956054688 -47.1357421875 569.88671875 -9.484375 c 4
 574.176757812 -3.076171875 583.916992188 2.1240234375 591.627929688 2.1240234375 c 4
 600.42578125 2.1240234375 610.840820312 -4.2197265625 614.877929688 -12.037109375 c 4
 624.768554688 -36.765625 629.555664062 -68.03515625 607.219726562 -89.5732421875 c 4
 591.602539062 -104.190429688 562.512695312 -121.701171875 542.286132812 -128.661132812 c 4
 506.280273438 -144.291992188 445.200195312 -156.978515625 405.946289062 -156.978515625 c 4
 390.771484375 -156.978515625 366.296875 -155.013671875 351.31640625 -152.591796875 c 5
290.052734375 326.827148438 m 5
 253.198242188 256.948242188 l 6
 177.2578125 222.328125 131.948242188 154.044921875 73.8759765625 100.279296875 c 4
 64.431640625 96.4404296875 54.2822265625 85.43359375 51.220703125 75.7099609375 c 4
 45.3173828125 29.443359375 19.3125 -11.2392578125 14.0478515625 -57.8251953125 c 5
 -20.732421875 1.205078125 19.1533203125 52.5771484375 42.4462890625 96.1318359375 c 4
 97.4873046875 199.03515625 186.830078125 271.9453125 290.052734375 326.827148438 c 5
542.764648438 -128.661132812 m 5
 568.9296875 -102.017578125 615.994140625 -93.5625 616.631835938 -44.5830078125 c 4
 616.631835938 -32.9365234375 618.387695312 -19.53515625 607.37890625 -12.6748046875 c 4
 604.345703125 -11.1435546875 599.125976562 -9.900390625 595.727539062 -9.900390625 c 4
 588.830078125 -9.900390625 579.754882812 -14.2880859375 575.470703125 -19.6953125 c 4
 547.231445312 -50.486328125 509.102539062 -58.7822265625 471.76953125 -69.9501953125 c 5
 501.389648438 -48.6484375 545.918945312 -9.98046875 571.163085938 16.361328125 c 4
 582.809570312 28.6455078125 600.518554688 48.26953125 622.694335938 32.3154296875 c 4
 644.87109375 16.361328125 627.640625 -0.7099609375 627.321289062 -16.8232421875 c 4
 625.407226562 -102.177734375 614.717773438 -115.259765625 542.764648438 -128.661132812 c 5
306.006835938 239.877929688 m 4
 335.04296875 265.084960938 380.671875 237.005859375 408.431640625 273.380859375 c 4
 414.850585938 280.055664062 421.069335938 292.920898438 422.311523438 302.098632812 c 5
 451.348632812 272.583007812 432.362304688 251.364257812 404.602539062 247.854492188 c 4
 290.211914062 233.815429688 206.61328125 173.030273438 139.287109375 84.3251953125 c 4
 134.34765625 85.873046875 130.338867188 91.3291015625 130.338867188 96.5048828125 c 4
 130.338867188 96.666015625 130.344726562 96.927734375 130.352539062 97.0888671875 c 4
 153.327148438 188.02734375 221.76953125 223.604492188 306.006835938 239.877929688 c 4
87.4365234375 -45.7001953125 m 5
 67.4931640625 7.4267578125 112.004882812 43.4833984375 122.854492188 88.314453125 c 4
 123.91796875 89.990234375 126.391601562 91.3515625 128.377929688 91.3515625 c 4
 129.567382812 91.3515625 131.309570312 90.7763671875 132.266601562 90.0693359375 c 6
 139.287109375 83.8466796875 l 6
 121.897460938 40.611328125 104.666992188 -2.46484375 87.4365234375 -45.7001953125 c 5
14.0478515625 -57.8251953125 m 4
 7.1875 -7.888671875 36.54296875 31.8369140625 51.220703125 75.7099609375 c 5
 50.2626953125 58.1611328125 56.0068359375 35.666015625 47.2314453125 24.01953125 c 4
 18.0361328125 -15.2275390625 29.8427734375 -54.1552734375 39.095703125 -94.2001953125 c 5
 28.9287109375 -86.4013671875 17.7080078125 -70.1044921875 14.0478515625 -57.8251953125 c 4
131.948242188 90.0693359375 m 4
 130.137695312 88.9921875 126.959960938 88.119140625 124.854492188 88.119140625 c 4
 124.209960938 88.119140625 123.170898438 88.2060546875 122.53515625 88.314453125 c 4
 118.546875 100.598632812 131.788085938 119.264648438 115.994140625 125.16796875 c 4
 95.732421875 132.666015625 91.10546875 103.310546875 73.5556640625 100.279296875 c 5
 98.28515625 171.594726562 195.923828125 256.948242188 252.879882812 256.948242188 c 4
 265.643554688 236.368164062 287.5 243.70703125 305.6875 239.877929688 c 5
 235.967773438 203.981445312 161.143554688 173.66796875 131.948242188 90.0693359375 c 4
EndSplineSet
Validated: 37
EndChar

StartChar: d
Encoding: 100 100 28
Width: 730
VWidth: 0
Flags: HW
LayerCount: 2
Fore
SplineSet
486.6953125 197.48828125 m 0
 500.202148438 198.43359375 500.202148438 208.427734375 502.498046875 218.692382812 c 0
 529.509765625 335.926757812 578.40234375 446.137695312 611.8984375 560.8046875 c 0
 632.5625 631.982421875 669.299804688 701.809570312 662.276367188 780.28125 c 0
 660.385742188 801.350585938 674.296875 802.026367188 688.208007812 798.37890625 c 0
 714.275390625 791.491210938 738.721679688 738.546875 726.970703125 714.37109375 c 0
 685.237304688 628.741210938 659.440429688 537.708984375 630.942382812 447.217773438 c 0
 626.889648438 433.711914062 621.7578125 421.9609375 617.435546875 409.400390625 c 0
 601.80078125 355.368164062 571.970703125 269.205078125 550.849609375 217.072265625 c 0
 535.047851562 177.904296875 515.463867188 140.76171875 520.866210938 96.5966796875 c 0
 521.048828125 95.0693359375 521.197265625 92.58203125 521.197265625 91.0439453125 c 0
 521.197265625 79.4404296875 514.151367188 63.775390625 505.46875 56.078125 c 0
 498.986328125 38.9248046875 492.908203125 21.63671875 486.155273438 4.619140625 c 0
 479.40234375 -12.3984375 472.649414062 -29.6865234375 451.579101562 -22.3935546875 c 0
 438.08984375 -18.875 427.142578125 -4.7060546875 427.142578125 9.234375 c 0
 427.142578125 12.8740234375 428.288085938 18.5517578125 429.69921875 21.9072265625 c 0
 434.966796875 35.4130859375 441.719726562 48.919921875 447.797851562 63.236328125 c 0
 470.48828125 114.559570312 453.740234375 170.205078125 393.772460938 177.36328125 c 0
 380.266601562 178.984375 366.760742188 190.870117188 354.19921875 197.083007812 c 0
 331.9140625 206.131835938 309.899414062 212.07421875 286.668945312 197.083007812 c 0
 283.107421875 193.912109375 276.34765625 191.337890625 271.579101562 191.337890625 c 0
 261.967773438 191.337890625 252.1484375 198.873046875 249.661132812 208.158203125 c 0
 240.612304688 231.118164062 261.681640625 232.063476562 274.91796875 235.169921875 c 0
 291.5625 239.79296875 319.090820312 243.544921875 336.365234375 243.544921875 c 0
 367.115234375 243.544921875 414.25390625 232.108398438 441.584960938 218.017578125 c 0
 453.455078125 211.075195312 473.6640625 201.877929688 486.6953125 197.48828125 c 0
576.646484375 -136.520507812 m 0
 529.509765625 -150.02734375 488.451171875 -177.0390625 439.2890625 -188.790039062 c 0
 309.62890625 -220.124023438 192.125 -178.66015625 72.5947265625 -143.138671875 c 0
 55.30859375 -136.610351562 32.134765625 -119.42578125 20.8662109375 -104.78125 c 0
 13.4931640625 -93.5849609375 7.509765625 -73.6181640625 7.509765625 -60.212890625 c 0
 7.509765625 -52.8212890625 9.439453125 -41.142578125 11.8173828125 -34.1435546875 c 0
 32.9091796875 40.3134765625 101.22265625 137.125976562 164.302734375 181.956054688 c 0
 201.309570312 208.158203125 199.958984375 175.067382812 200.904296875 151.161132812 c 0
 198.845703125 140.80078125 194.065429688 124.403320312 190.234375 114.559570312 c 0
 175.512695312 88.7626953125 149.715820312 75.2568359375 128.375976562 56.212890625 c 0
 92.314453125 23.6630859375 54.7666015625 -8.88671875 70.5693359375 -66.1533203125 c 0
 91.7734375 -101.809570312 129.7265625 -107.6171875 164.4375 -114.775390625 c 0
 190.133789062 -119.94140625 229.584960938 -134.463867188 252.498046875 -147.190429688 c 0
 271.272460938 -155.157226562 303.061523438 -161.623046875 323.45703125 -161.623046875 c 0
 339.217773438 -161.623046875 364.184570312 -157.698242188 379.186523438 -152.86328125 c 0
 434.021484375 -134.359375 496.28515625 -141.788085938 546.797851562 -106.537109375 c 0
 550.541992188 -103.837890625 557.318359375 -101.41796875 561.924804688 -101.134765625 c 0
 584.615234375 -105.591796875 588.262695312 -118.017578125 576.646484375 -136.520507812 c 0
191.1796875 147.245117188 m 0
 189.829101562 158.455078125 198.203125 173.176757812 187.127929688 180.200195312 c 0
 176.052734375 187.22265625 167.813476562 172.63671875 158.899414062 166.693359375 c 0
 95.4208984375 122.663085938 56.3876953125 59.859375 24.5126953125 -8.88671875 c 0
 18.033203125 -22.7255859375 12.7744140625 -46.357421875 12.7744140625 -61.6376953125 c 0
 12.7744140625 -74.0087890625 16.2783203125 -93.4580078125 20.595703125 -105.051757812 c 1
 8.8974609375 -95.072265625 -0.5966796875 -74.4951171875 -0.5966796875 -59.119140625 c 0
 -0.5966796875 -54.08984375 0.6083984375 -46.107421875 2.0927734375 -41.3017578125 c 0
 31.5361328125 95.380859375 188.478515625 261.77734375 343.39453125 249.891601562 c 0
 387.610351562 248.043945312 451.809570312 224.446289062 486.6953125 197.217773438 c 1
 466.436523438 191.950195312 450.633789062 203.295898438 435.1015625 212.344726562 c 0
 388.640625 239.357421875 338.666992188 238.546875 288.559570312 231.388671875 c 0
 278.024414062 229.90234375 250.876953125 233.955078125 258.98046875 209.643554688 c 0
 265.193359375 191.275390625 279.645507812 203.970703125 291.935546875 209.643554688 c 0
 297.995117188 213.162109375 308.599609375 216.017578125 315.607421875 216.017578125 c 0
 329.057617188 216.017578125 346.287109375 207.111328125 354.064453125 196.137695312 c 1
 332.859375 197.083007812 310.168945312 208.5625 292.611328125 186.413085938 c 0
 270.055664062 178.713867188 246.825195312 172.90625 228.591796875 155.078125 c 0
 219.677734375 147.245117188 207.791992188 132.387695312 191.1796875 147.245117188 c 0
505.19921875 55.537109375 m 1
 513.16796875 182.765625 574.486328125 293.112304688 617.166015625 409.400390625 c 1
 612.84375 341.869140625 578.40234375 282.306640625 559.764648438 218.557617188 c 0
 547.338867188 175.743164062 517.489257812 137.520507812 525.999023438 89.16796875 c 0
 528.4296875 75.5263671875 527.213867188 57.29296875 505.19921875 55.537109375 c 1
556.1171875 -106.942382812 m 0
 547.068359375 -133.14453125 519.380859375 -132.19921875 502.092773438 -135.709960938 c 0
 432.670898438 -149.216796875 363.923828125 -170.69140625 291.80078125 -166.91015625 c 0
 291.763671875 -166.91015625 291.702148438 -166.91015625 291.665039062 -166.91015625 c 0
 278.115234375 -166.91015625 260.567382812 -158.076171875 252.498046875 -147.190429688 c 1
 340.288085938 -165.154296875 422.000976562 -132.874023438 505.874023438 -117.4765625 c 0
 522.622070312 -113.424804688 536.127929688 -97.0830078125 556.1171875 -106.942382812 c 0
70.298828125 -66.2880859375 m 1
 52.8759765625 -31.5771484375 68.0029296875 20.0166015625 107.305664062 54.1865234375 c 0
 131.887695312 75.5263671875 157.954101562 94.705078125 183.345703125 115.504882812 c 0
 191.584960938 115.504882812 196.852539062 113.479492188 192.935546875 104.024414062 c 0
 192.935546875 80.6591796875 179.4296875 72.150390625 159.3046875 61.48046875 c 0
 109.33203125 34.873046875 70.029296875 -2.9443359375 70.298828125 -66.2880859375 c 1
556.1171875 -106.942382812 m 1
 505.874023438 -117.4765625 l 2
 521.000976562 -96.2724609375 549.364257812 -94.921875 566.517578125 -76.9580078125 c 0
 570.005859375 -74.587890625 576.056640625 -71.501953125 580.0234375 -70.0703125 c 0
 596.635742188 -64.66796875 614.869140625 -49.2705078125 629.590820312 -69.259765625 c 0
 644.313476562 -89.2490234375 627.8359375 -102.890625 614.869140625 -115.991210938 c 0
 608.38671875 -118.828125 606.225585938 -129.498046875 596.366210938 -126.526367188 c 0
 585.15625 -115.856445312 582.184570312 -88.033203125 555.84765625 -107.211914062 c 2
 556.1171875 -106.942382812 l 1
192.935546875 104.024414062 m 2
 183.345703125 115.504882812 l 2
 182.01953125 118.385742188 180.942382812 123.296875 180.942382812 126.467773438 c 0
 180.942382812 133.594726562 185.528320312 142.90234375 191.1796875 147.245117188 c 0
 226.430664062 156.96875 248.8515625 199.108398438 292.611328125 187.763671875 c 1
 260.967773438 169.5703125 216.313476562 132.055664062 192.935546875 104.024414062 c 2
614.463867188 -115.721679688 m 1
 632.833007812 -65.2080078125 632.833007812 -65.2080078125 566.517578125 -76.6884765625 c 1
 572.0546875 -70.6103515625 576.646484375 -61.021484375 583.400390625 -59.400390625 c 0
 602.984375 -54.4033203125 623.918945312 -18.8818359375 642.692382812 -52.6474609375 c 0
 657.684570312 -78.849609375 647.284179688 -105.051757812 614.463867188 -115.721679688 c 1
556.1171875 -106.942382812 m 1
 562.735351562 -97.3525390625 569.624023438 -86.27734375 583.129882812 -91.8154296875 c 0
 599.202148438 -98.1630859375 593.259765625 -114.100585938 595.826171875 -126.255859375 c 2
 576.2421875 -136.520507812 l 2
 576.646484375 -121.529296875 576.646484375 -107.752929688 556.1171875 -106.942382812 c 1
EndSplineSet
Validated: 37
EndChar

StartChar: e
Encoding: 101 101 29
Width: 495
VWidth: 0
Flags: HW
LayerCount: 2
Fore
SplineSet
225.765625 -137 m 4
 108.791992188 -136.98828125 140.999023438 -134.90625 74.119140625 -119.19140625 c 4
 42.525390625 -111.767578125 8.560546875 -80.630859375 2.3056640625 -48.78515625 c 4
 1.0703125 -42.4951171875 0.0693359375 -32.1884765625 0.0693359375 -25.7783203125 c 4
 0.0693359375 -16.0869140625 2.4833984375 -0.73046875 5.12109375 8.595703125 c 4
 11.68359375 31.80078125 23.15625 69.37109375 34.33984375 90.736328125 c 4
 38.96875 99.5791015625 48.0458984375 112.870117188 54.2890625 120.658203125 c 4
 62.6796875 131.125 75.8544921875 148.564453125 81.62890625 160.672851562 c 4
 97.466796875 193.8828125 132.793945312 240.674804688 163.06640625 261.587890625 c 4
 167.232421875 264.465820312 172.803710938 270.311523438 174.80078125 274.96484375 c 4
 180.423828125 288.067382812 195.858398438 302.723632812 208.830078125 308.642578125 c 4
 245.088867188 325.188476562 279.55859375 344.213867188 315.495117188 359.100585938 c 4
 317.69921875 360.013671875 321.422851562 360.754882812 323.80859375 360.754882812 c 4
 325.6015625 360.754882812 328.477539062 360.416992188 330.162109375 359.8046875 c 4
 364.075195312 347.483398438 398.091796875 335.53125 431.3125 321.66796875 c 4
 447.623046875 314.861328125 449.619140625 303.245117188 442.34375 288.577148438 c 4
 435.068359375 273.909179688 426.096679688 259.993164062 419.930664062 244.807617188 c 4
 415.500976562 233.897460938 402.349609375 225.04296875 390.57421875 225.04296875 c 4
 389.670898438 225.04296875 388.2109375 225.264648438 387.30859375 225.211914062 c 4
 382.248046875 224.9140625 375.65234375 221.39453125 372.7578125 217.232421875 c 4
 359.453125 198.103515625 330.624023438 176.833984375 308.806640625 168.65234375 c 4
 291.908203125 162.315429688 274.990234375 155.751953125 258.348632812 148.234375 c 4
 255.080078125 146.7578125 249.517578125 145.55859375 245.931640625 145.55859375 c 4
 236.604492188 145.55859375 225.155273438 152.059570312 220.211914062 159.96875 c 4
 217.865234375 163.723632812 216.015625 171.228515625 217.865234375 173.580078125 c 4
 221.232421875 177.861328125 228.524414062 182.931640625 233.82421875 181.676757812 c 4
 251.66015625 177.453125 265.362304688 184.615234375 279.705078125 193.411132812 c 4
 298.822265625 205.134765625 331.252929688 221.3671875 351.98828125 229.905273438 c 4
 368.619140625 236.752929688 383.516601562 257.037109375 389.069335938 274.143554688 c 4
 393.411132812 287.520507812 378.2578125 302.995117188 363.37109375 304.770507812 c 4
 350.580078125 306.295898438 337.811523438 309.249023438 325.1171875 311.693359375 c 4
 324.037109375 311.901367188 322.268554688 312.0703125 321.168945312 312.0703125 c 4
 318.5703125 312.0703125 314.350585938 311.5234375 312.208984375 310.05078125 c 4
 296.849609375 299.48828125 269.362304688 288.224609375 250.720703125 288.224609375 c 4
 249.313476562 288.224609375 247.435546875 288.107421875 246.732421875 287.286132812 c 4
 225.7265625 262.76171875 193.489257812 248.697265625 192.049804688 207.610351562 c 4
 191.458984375 190.749023438 187.860351562 163.64453125 186.53515625 146.826171875 c 4
 185.009765625 127.46484375 178.313476562 120.012695312 159.193359375 117.724609375 c 4
 101.34375 110.801757812 65.1943359375 78.4814453125 52.5283203125 21.97265625 c 4
 51.228515625 16.173828125 50.1748046875 6.6455078125 50.1748046875 0.703125 c 4
 50.1748046875 -12.2421875 55.1279296875 -32.015625 60.859375 -43.6220703125 c 4
 74.94140625 -72.13671875 100.408203125 -78.9150390625 128.918945312 -83.1669921875 c 4
 232.767578125 -98.65625 327.137695312 -70.8125 418.052734375 -23.439453125 c 4
 440.34765625 -11.822265625 459.66015625 0.4873046875 476.724609375 21.50390625 c 4
 478.474609375 23.6591796875 482.1484375 25.4091796875 484.923828125 25.4091796875 c 4
 485.155273438 25.4091796875 485.545898438 25.46484375 485.759765625 25.3759765625 c 4
 489.163085938 23.9677734375 493.619140625 19.7412109375 493.739257812 16.5751953125 c 4
 493.75390625 16.189453125 493.764648438 15.5634765625 493.764648438 15.177734375 c 4
 493.764648438 10.1865234375 492.247070312 2.3564453125 489.75 -1.96484375 c 4
 472.607421875 -31.630859375 437.473632812 -79.646484375 403.501953125 -84.10546875 c 4
 365.4765625 -89.0966796875 314.711914062 -137.008789062 225.765625 -137 c 4
295.765625 -134 m 4
 225.765625 -137 l 4
 107.696289062 -137 124.956054688 -131.659179688 73.884765625 -119.66015625 c 4
 42.291015625 -112.237304688 8.3203125 -81.1015625 2.0703125 -49.2548828125 c 4
 0.8359375 -42.96484375 -0.166015625 -32.658203125 -0.166015625 -26.248046875 c 4
 -0.166015625 -16.5556640625 2.25 -1.2001953125 4.88671875 8.1259765625 c 4
 11.4482421875 31.33203125 22.9228515625 68.9013671875 34.10546875 90.2666015625 c 4
 38.734375 99.1103515625 47.8154296875 112.3984375 54.0537109375 120.189453125 c 4
 62.529296875 130.774414062 75.7919921875 148.434570312 81.62890625 160.672851562 c 4
 97.466796875 193.8828125 132.793945312 240.674804688 163.06640625 261.587890625 c 4
 167.232421875 264.465820312 172.803710938 270.311523438 174.80078125 274.96484375 c 4
 180.423828125 288.067382812 195.92578125 302.577148438 208.830078125 308.642578125 c 4
 244.033203125 325.188476562 278.673828125 343.846679688 315.495117188 359.100585938 c 4
 317.69921875 360.013671875 321.422851562 360.754882812 323.80859375 360.754882812 c 4
 325.6015625 360.754882812 328.477539062 360.416992188 330.162109375 359.8046875 c 4
 364.075195312 347.483398438 398.091796875 335.53125 431.3125 321.66796875 c 4
 447.623046875 314.861328125 450.087890625 304.30078125 442.34375 288.577148438 c 4
 434.598632812 272.852539062 426.096679688 259.993164062 419.930664062 244.807617188 c 4
 415.500976562 233.897460938 402.349609375 225.04296875 390.57421875 225.04296875 c 4
 389.670898438 225.04296875 388.2109375 225.264648438 387.30859375 225.211914062 c 4
 382.248046875 224.9140625 375.6328125 221.408203125 372.7578125 217.232421875 c 4
 359.458984375 197.916015625 330.530273438 176.416992188 308.572265625 168.182617188 c 4
 291.673828125 161.845703125 274.755859375 155.282226562 258.114257812 147.764648438 c 4
 254.845703125 146.288085938 249.283203125 145.08984375 245.696289062 145.08984375 c 4
 236.369140625 145.08984375 224.920898438 151.58984375 219.977539062 159.499023438 c 4
 217.630859375 163.25390625 215.9375 170.958007812 217.630859375 173.111328125 c 4
 220.997070312 177.391601562 228.290039062 182.462890625 233.58984375 181.208007812 c 4
 251.42578125 176.983398438 265.126953125 184.146484375 279.470703125 192.942382812 c 4
 298.587890625 204.665039062 331.018554688 220.896484375 351.75390625 229.435546875 c 4
 368.384765625 236.284179688 383.282226562 256.567382812 388.833984375 273.673828125 c 4
 393.17578125 287.051757812 378.0234375 302.525390625 363.13671875 304.30078125 c 4
 350.345703125 305.826171875 337.579101562 308.791015625 324.8828125 311.224609375 c 4
 323.802734375 311.431640625 322.034179688 311.600585938 320.934570312 311.600585938 c 4
 318.3359375 311.600585938 314.116210938 311.053710938 311.974609375 309.581054688 c 4
 296.615234375 299.018554688 269.127929688 287.755859375 250.486328125 287.755859375 c 4
 249.078125 287.755859375 247.260742188 287.708007812 246.497070312 286.81640625 c 4
 225.4921875 262.291992188 192.9921875 248.237304688 191.814453125 207.140625 c 4
 191.3359375 190.44921875 188.081054688 163.58984375 186.76953125 146.943359375 c 4
 185.244140625 127.58203125 178.547851562 120.130859375 159.427734375 117.842773438 c 4
 101.578125 110.918945312 65.44921875 78.6728515625 52.763671875 22.08984375 c 4
 51.4638671875 16.2919921875 50.4091796875 6.7626953125 50.4091796875 0.8203125 c 4
 50.4091796875 -12.1240234375 55.36328125 -31.8984375 61.0947265625 -43.5048828125 c 4
 75.17578125 -72.01953125 100.625976562 -78.794921875 129.154296875 -83.0498046875 c 4
 233.001953125 -98.5390625 327.993164062 -71.8662109375 418.287109375 -23.3212890625 c 4
 440.11328125 -11.5869140625 460.0625 0.8115234375 476.958984375 21.62109375 c 4
 478.708984375 23.7763671875 482.3828125 25.5263671875 485.159179688 25.5263671875 c 4
 485.390625 25.5263671875 485.78125 25.5810546875 485.994140625 25.4931640625 c 4
 489.3984375 24.0849609375 493.862304688 19.8603515625 493.974609375 16.6923828125 c 4
 493.98828125 16.306640625 494 15.6806640625 494 15.294921875 c 4
 494 10.3037109375 492.481445312 2.4736328125 489.984375 -1.84765625 c 4
 472.841796875 -31.513671875 437.99609375 -83.501953125 403.737304688 -83.98828125 c 4
 380.63671875 -84.31640625 301.135742188 -135.540039062 295.765625 -134 c 4
EndSplineSet
Validated: 37
EndChar

StartChar: f
Encoding: 102 102 30
Width: 551
VWidth: 0
Flags: HW
LayerCount: 2
Fore
SplineSet
54.9443359375 165.838867188 m 0
 74.8759765625 165.838867188 93.0458984375 167.21875 110.908203125 165.225585938 c 0
 148.08984375 161.775390625 163.116210938 183.547851562 175.076171875 214.213867188 c 0
 207.658203125 298.54296875 242.616210938 381.799804688 275.811523438 466.129882812 c 0
 278.665039062 476.3984375 281.515625 493.365234375 282.174804688 504.001953125 c 1
 213.8671875 496.489257812 181.591796875 508.6015625 175.536132812 541.4140625 c 0
 170.24609375 570.392578125 200.375 606.884765625 235.41015625 614.55078125 c 0
 258.178710938 619.380859375 281.637695312 605.3515625 290.684570312 574.685546875 c 1
 267.685546875 597.991210938 247.0625 590.5546875 228.203125 580.588867188 c 0
 217.930664062 575.069335938 202.061523438 561.040039062 203.748046875 555.903320312 c 0
 207.936523438 544.543945312 220.060546875 530.805664062 230.810546875 525.237304688 c 0
 243.842773438 519.2578125 260.555664062 521.634765625 275.888671875 520.331054688 c 0
 277.572265625 520.034179688 280.327148438 519.791992188 282.037109375 519.791992188 c 0
 296.465820312 519.791992188 311.60546875 530.990234375 315.830078125 544.787109375 c 0
 334.842773438 589.661132812 354.877929688 633.870117188 375.934570312 677.415039062 c 0
 382.537109375 688.974609375 395.381835938 706.147460938 404.606445312 715.747070312 c 0
 423.465820312 738.1328125 442.68359375 760.237304688 462.2578125 782.060546875 c 0
 474.75390625 796.013671875 524.431640625 807.206054688 533.018554688 794.403320312 c 0
 544.748046875 777.23046875 554.713867188 753.311523438 552.4140625 733.838867188 c 0
 542.447265625 649.356445312 488.936523438 592.241210938 422.928710938 545.016601562 c 0
 410.739257812 536.353515625 397.016601562 530.067382812 384.060546875 522.401367188 c 2
 377.62109375 532.444335938 l 2
 385.059570312 538.689453125 397.629882812 548.168945312 405.6796875 553.603515625 c 0
 456.932617188 583.939453125 511.576171875 655.102539062 527.651367188 712.450195312 c 0
 529.314453125 718.787109375 530.6640625 729.248046875 530.6640625 735.799804688 c 0
 530.6640625 737.94921875 530.516601562 741.43359375 530.334960938 743.575195312 c 0
 529.26171875 763.278320312 515.155273438 773.55078125 499.055664062 765.884765625 c 0
 477.666992188 756.071289062 452.674804688 743.958984375 440.791992188 725.40625 c 0
 410.049804688 677.491210938 385.133789062 625.8203125 359.298828125 574.916015625 c 0
 352.705078125 561.8828125 351.555664062 546.08984375 347.568359375 531.677734375 c 0
 346.112304688 526.157226562 345.0390625 519.2578125 341.359375 516.344726562 c 0
 302.567382812 486.215820312 296.357421875 438.377929688 277.498046875 397.899414062 c 0
 248.90234375 336.645507812 224.600585938 273.474609375 199.377929688 210.763671875 c 0
 196.618164062 204.09375 196.311523438 191.291015625 200.451171875 187.764648438 c 0
 204.66015625 184.846679688 212.232421875 182.478515625 217.354492188 182.478515625 c 0
 219.65234375 182.478515625 223.310546875 182.9921875 225.520507812 183.625 c 0
 258.33203125 195.354492188 290.760742188 209.077148438 325.182617188 222.799804688 c 1
 322.823242188 201.9375 304.654296875 179.887695312 284.627929688 173.58203125 c 0
 265.139648438 167.061523438 232.854492188 159.127929688 212.564453125 155.872070312 c 0
 183.662109375 150.8125 164.956054688 138.086914062 154.68359375 108.340820312 c 0
 130.150390625 37.50390625 103.395507812 -32.6435546875 75.259765625 -102.100585938 c 0
 64.4189453125 -127.258789062 43.8115234375 -166.515625 29.26171875 -189.727539062 c 0
 25.658203125 -195.70703125 13.46875 -196.626953125 5.265625 -199.846679688 c 1
 3.65625 -190.80078125 -2.4775390625 -178.6875 1.203125 -173.244140625 c 0
 39.8408203125 -116.513671875 63.68359375 -53.802734375 81.8525390625 11.8984375 c 0
 88.90625 37.4267578125 104.008789062 60.5791015625 114.127929688 85.341796875 c 0
 120.415039062 100.061523438 123.481445312 116.0078125 128.081054688 131.33984375 c 1
 110.83203125 133.333007812 93.19921875 138.623046875 76.5634765625 136.4765625 c 0
 46.28125 132.56640625 46.5107421875 130.7265625 54.9443359375 165.838867188 c 0
54.9443359375 165.838867188 m 0
 74.8759765625 165.838867188 93.275390625 167.21875 110.908203125 165.838867188 c 0
 148.08984375 162.388671875 163.116210938 184.0078125 175.076171875 214.827148438 c 0
 207.658203125 299.15625 242.616210938 382.643554688 275.811523438 466.743164062 c 0
 278.665039062 477.01171875 281.515625 493.978515625 282.174804688 504.615234375 c 1
 213.791015625 496.94921875 181.591796875 509.21484375 175.536132812 542.02734375 c 0
 170.24609375 571.005859375 200.375 607.8046875 235.41015625 615.1640625 c 0
 258.409179688 619.994140625 281.408203125 605.887695312 290.684570312 575.298828125 c 1
 267.685546875 598.297851562 247.0625 591.16796875 228.203125 581.202148438 c 0
 217.930664062 575.682617188 202.061523438 561.653320312 203.748046875 556.516601562 c 0
 207.936523438 545.157226562 220.060546875 531.418945312 230.810546875 525.850585938 c 0
 243.842773438 519.87109375 260.708984375 522.248046875 275.888671875 520.944335938 c 0
 277.572265625 520.647460938 280.327148438 520.405273438 282.037109375 520.405273438 c 0
 296.465820312 520.405273438 311.60546875 531.603515625 315.830078125 545.400390625 c 0
 334.842773438 589.813476562 354.928710938 633.818359375 376.087890625 677.415039062 c 0
 382.690429688 688.974609375 395.53515625 706.147460938 404.759765625 715.747070312 c 0
 423.619140625 738.1328125 442.836914062 760.237304688 462.411132812 782.060546875 c 0
 474.907226562 796.013671875 524.584960938 807.206054688 533.171875 794.403320312 c 0
 544.670898438 777.23046875 554.8671875 753.311523438 552.567382812 733.838867188 c 0
 542.600585938 649.509765625 489.08984375 592.241210938 423.08203125 545.016601562 c 0
 410.892578125 536.353515625 397.169921875 529.684570312 384.213867188 522.401367188 c 2
 377.774414062 532.444335938 l 2
 385.171875 538.685546875 397.672851562 548.165039062 405.6796875 553.603515625 c 0
 456.877929688 583.918945312 511.486328125 655.013671875 527.575195312 712.296875 c 0
 529.23828125 718.633789062 530.587890625 729.094726562 530.587890625 735.646484375 c 0
 530.587890625 737.795898438 530.439453125 741.280273438 530.2578125 743.421875 c 0
 529.184570312 763.125 514.92578125 773.090820312 498.979492188 765.731445312 c 0
 477.58984375 755.91796875 452.59765625 743.805664062 440.71484375 725.252929688 c 0
 410.049804688 677.337890625 385.057617188 625.58984375 359.221679688 574.762695312 c 0
 352.62890625 561.729492188 351.555664062 545.936523438 347.4921875 531.524414062 c 0
 346.03515625 526.234375 344.961914062 519.334960938 341.282226562 516.19140625 c 0
 302.490234375 486.0625 296.28125 438.224609375 277.421875 397.74609375 c 0
 248.826171875 336.415039062 224.5234375 273.321289062 199.301757812 210.610351562 c 0
 196.541992188 203.787109375 196.235351562 190.984375 200.375 187.611328125 c 0
 204.583984375 184.693359375 212.15625 182.325195312 217.27734375 182.325195312 c 0
 219.576171875 182.325195312 223.234375 182.838867188 225.443359375 183.471679688 c 0
 258.5625 195.201171875 290.991210938 208.923828125 325.106445312 222.646484375 c 1
 322.74609375 201.784179688 304.577148438 179.734375 284.551757812 173.428710938 c 0
 265.0625 166.908203125 232.778320312 158.974609375 212.487304688 155.71875 c 0
 183.584960938 150.659179688 164.879882812 137.93359375 154.606445312 108.1875 c 0
 130.07421875 37.3505859375 103.318359375 -32.796875 75.1826171875 -102.25390625 c 0
 64.341796875 -127.412109375 43.734375 -166.668945312 29.1845703125 -189.880859375 c 0
 25.58203125 -195.860351562 13.392578125 -196.780273438 5.189453125 -200 c 1
 3.5791015625 -190.954101562 -2.4775390625 -178.840820312 1.1259765625 -173.397460938 c 0
 39.4580078125 -116.666992188 63.6064453125 -53.9560546875 81.7763671875 11.7451171875 c 0
 88.8291015625 37.2734375 103.931640625 60.42578125 114.051757812 85.1884765625 c 0
 120.03125 99.984375 123.404296875 115.854492188 128.00390625 131.186523438 c 1
 110.754882812 133.1796875 93.1220703125 138.853515625 76.486328125 136.323242188 c 0
 46.28125 132.56640625 46.5107421875 130.7265625 54.9443359375 165.838867188 c 0
EndSplineSet
Validated: 37
EndChar

StartChar: g
Encoding: 103 103 31
Width: 390
VWidth: -400
Flags: HW
LayerCount: 2
Fore
SplineSet
390.618164062 396.711914062 m 1
 367.129882812 350.674804688 348.926757812 317.087890625 332.955078125 281.62109375 c 0
 296.079101562 202.701171875 259.790039062 123.78125 224.557617188 43.8046875 c 0
 203.536132812 -3.9931640625 189.090820312 -54.4921875 168.303710938 -102.290039062 c 0
 126.73046875 -198.12109375 83.04296875 -293.012695312 39.9423828125 -388.138671875 c 0
 10.23046875 -453.552734375 -21.8310546875 -516.969726562 -77.4970703125 -565.58984375 c 0
 -106.504882812 -590.83984375 -134.92578125 -611.157226562 -175.676757812 -595.302734375 c 0
 -219.482421875 -578.15625 -249.077148438 -553.258789062 -262.817382812 -502.407226562 c 0
 -298.75390625 -368.526367188 -230.756835938 -285.143554688 -134.337890625 -213.740234375 c 0
 -68.806640625 -164.650390625 -0.8095703125 -119.7890625 66.3662109375 -72.8125 c 0
 69.0673828125 -70.69921875 74.234375 -71.638671875 89.8544921875 -69.6416015625 c 1
 81.28125 -87.2578125 78.8154296875 -103.112304688 69.537109375 -110.74609375 c 0
 29.0205078125 -143.981445312 -13.140625 -175.337890625 -55.4189453125 -206.341796875 c 0
 -129.053710938 -259.89453125 -199.282226562 -316.735351562 -232.283203125 -405.989257812 c 0
 -233.430664062 -410.106445312 -234.362304688 -416.916015625 -234.362304688 -421.190429688 c 0
 -234.362304688 -427.666015625 -232.2734375 -437.745117188 -229.69921875 -443.6875 c 0
 -215.372070312 -475.279296875 -198.9296875 -507.692382812 -182.723632812 -537.639648438 c 0
 -166.516601562 -567.586914062 -139.505859375 -572.87109375 -115.078125 -545.625 c 0
 -82.3125 -509.688476562 -47.5498046875 -471.755859375 -27.115234375 -428.185546875 c 0
 30.546875 -305.4609375 81.0458984375 -179.448242188 134.833984375 -54.9619140625 c 0
 149.161132812 -21.7265625 165.015625 10.8046875 180.283203125 43.6875 c 0
 197.546875 81.033203125 191.791992188 90.6630859375 151.275390625 90.6630859375 c 0
 88.6796875 91.1328125 66.6015625 119.319335938 84.216796875 180.270507812 c 0
 88.3740234375 196.805664062 100.73828125 220.744140625 111.815429688 233.705078125 c 0
 174.528320312 299.001953125 225.02734375 382.619140625 330.723632812 386.376953125 c 0
 339.766601562 386.612304688 348.221679688 398.23828125 357.6171875 399.530273438 c 0
 359.189453125 399.600585938 361.7421875 399.657226562 363.315429688 399.657226562 c 0
 370.938476562 399.657226562 383.169921875 398.337890625 390.618164062 396.711914062 c 1
390.618164062 396.711914062 m 1
 367.129882812 350.674804688 348.57421875 317.087890625 331.897460938 282.442382812 c 0
 295.021484375 203.5234375 258.145507812 124.603515625 223.500976562 44.626953125 c 0
 202.831054688 -3.1708984375 188.268554688 -53.669921875 167.247070312 -101.467773438 c 0
 125.673828125 -197.298828125 81.986328125 -292.190429688 38.8857421875 -387.31640625 c 0
 9.291015625 -452.73046875 -22.7705078125 -516.5 -78.5546875 -564.767578125 c 0
 -107.561523438 -590.017578125 -135.982421875 -610.334960938 -176.734375 -594.48046875 c 0
 -220.5390625 -577.333984375 -250.133789062 -552.436523438 -263.874023438 -501.584960938 c 0
 -300.045898438 -367.704101562 -231.813476562 -284.322265625 -135.395507812 -212.91796875 c 0
 -69.8642578125 -164.297851562 -1.8662109375 -118.966796875 65.3095703125 -71.990234375 c 0
 68.48046875 -69.876953125 73.6474609375 -70.81640625 88.7978515625 -68.8193359375 c 1
 80.341796875 -86.6708984375 77.7578125 -102.290039062 68.48046875 -109.923828125 c 0
 27.9638671875 -143.159179688 -13.7275390625 -174.515625 -56.4755859375 -205.51953125 c 0
 -130.110351562 -259.424804688 -200.33984375 -316.265625 -233.33984375 -405.166992188 c 0
 -234.487304688 -409.284179688 -235.418945312 -416.09375 -235.418945312 -420.368164062 c 0
 -235.418945312 -426.84375 -233.330078125 -436.922851562 -230.756835938 -442.865234375 c 0
 -216.78125 -474.926757812 -200.809570312 -506.400390625 -183.780273438 -536.817382812 c 0
 -166.751953125 -567.234375 -140.5625 -572.049804688 -116.134765625 -544.803710938 c 0
 -83.369140625 -508.396484375 -48.607421875 -470.463867188 -28.1728515625 -427.36328125 c 0
 29.490234375 -304.638671875 79.9892578125 -178.625976562 133.776367188 -54.1396484375 c 0
 148.104492188 -20.904296875 163.958984375 11.626953125 179.225585938 44.509765625 c 0
 196.489257812 81.97265625 190.969726562 91.4853515625 150.21875 91.4853515625 c 0
 87.623046875 91.4853515625 65.5439453125 120.140625 83.16015625 181.091796875 c 0
 87.390625 197.69140625 99.912109375 221.682617188 111.111328125 234.64453125 c 0
 173.82421875 299.706054688 224.087890625 383.323242188 330.018554688 387.31640625 c 0
 339.061523438 387.31640625 347.517578125 399.060546875 356.912109375 400.469726562 c 0
 357.68359375 400.486328125 358.934570312 400.5 359.705078125 400.5 c 0
 368.365234375 400.5 382.213867188 398.802734375 390.618164062 396.711914062 c 1
163.723632812 127.774414062 m 2
 198.396484375 131.923828125 237.59375 161.387695312 251.216796875 193.541015625 c 0
 266.131835938 228.772460938 283.747070312 261.538085938 299.014648438 295.948242188 c 0
 302.161132812 305.458984375 305.739257812 321.2421875 307.000976562 331.180664062 c 1
 295.256835938 332.001953125 277.053710938 338.461914062 271.768554688 332.70703125 c 0
 228.8125 292.591796875 163.204101562 223.563476562 125.321289062 178.625976562 c 0
 105.239257812 153.494140625 127.083007812 127.0703125 164.076171875 127.774414062 c 2
 163.723632812 127.774414062 l 2
164.076171875 127.774414062 m 0
 127.083007812 127.0703125 105.356445312 153.494140625 125.321289062 178.625976562 c 0
 163.153320312 223.423828125 228.65625 292.2421875 271.534179688 332.237304688 c 0
 277.405273438 337.9921875 295.021484375 331.532226562 306.765625 330.7109375 c 1
 305.50390625 320.772460938 301.926757812 304.989257812 298.779296875 295.478515625 c 0
 283.512695312 261.068359375 265.896484375 227.715820312 250.981445312 193.071289062 c 0
 237.349609375 161.268554688 198.416015625 132.015625 164.076171875 127.774414062 c 0
EndSplineSet
Validated: 37
EndChar

StartChar: h
Encoding: 104 104 32
Width: 593
VWidth: 0
Flags: HW
LayerCount: 2
Fore
SplineSet
197.87890625 145.057617188 m 2
 221.421875 155.8359375 244.397460938 168.31640625 268.791015625 176.826171875 c 0
 307.791992188 191.008789062 347.077148438 207.459960938 387.638671875 211.998046875 c 0
 428.201171875 216.537109375 454.154296875 182.640625 440.96484375 142.362304688 c 0
 431.290039062 117.995117188 410.004882812 81.71484375 393.454101562 61.3818359375 c 0
 361.685546875 17.416015625 325.520507812 -23.712890625 294.176757812 -68.24609375 c 0
 270.776367188 -102 287.51171875 -124.975585938 323.392578125 -135.328125 c 0
 403.665039062 -157.877929688 480.817382812 -157.02734375 549.459960938 -101.006835938 c 0
 558.537109375 -93.490234375 569.032226562 -87.67578125 578.817382812 -81.009765625 c 2
 593 -88.2431640625 l 2
 585.766601562 -104.126953125 582.36328125 -123.982421875 570.733398438 -135.612304688 c 0
 503.083984375 -202.411132812 355.161132812 -220.706054688 272.903320312 -174.330078125 c 0
 225.250976562 -147.383789062 214.614257812 -121.997070312 242.978515625 -76.1875 c 0
 276.875 -21.3017578125 317.15234375 29.61328125 354.736328125 82.37109375 c 0
 362.530273438 91.1904296875 373.013671875 106.947265625 378.13671875 117.543945312 c 0
 382.25 129.598632812 384.944335938 148.036132812 378.13671875 156.26171875 c 0
 372.08984375 160.856445312 361.018554688 164.5859375 353.423828125 164.5859375 c 0
 349.905273438 164.5859375 344.330078125 163.715820312 340.979492188 162.643554688 c 0
 222.272460938 114.28125 109.239257812 58.26171875 47.26171875 -64.2744140625 c 0
 40.73828125 -77.1806640625 20.3154296875 -82.9951171875 6.2744140625 -92.6396484375 c 1
 4.71484375 -73.4931640625 -5.212890625 -49.099609375 2.87109375 -35.91015625 c 0
 50.240234375 39.9658203125 106.40234375 110.594726562 150.935546875 188.030273438 c 0
 227.520507812 321.627929688 300.323242188 457.400390625 369.34375 595.348632812 c 0
 396.432617188 649.666992188 407.352539062 712.069335938 429.051757812 769.366210938 c 0
 433.874023438 782.272460938 452.594726562 789.7890625 464.932617188 799.858398438 c 1
 472.591796875 785.67578125 485.072265625 771.493164062 486.348632812 757.310546875 c 0
 486.366210938 756.594726562 486.380859375 755.432617188 486.380859375 754.716796875 c 0
 486.380859375 740.584960938 481.092773438 718.936523438 474.577148438 706.396484375 c 0
 414.443359375 581.307617188 354.59375 456.21875 291.624023438 332.548828125 c 0
 272.620117188 295.107421875 243.545898438 262.771484375 220.712890625 227.173828125 c 0
 206.530273438 206.041992188 196.602539062 182.924804688 184.546875 160.658203125 c 2
 197.87890625 145.057617188 l 2
EndSplineSet
Validated: 33
EndChar

StartChar: v
Encoding: 118 118 33
Width: 380
VWidth: -260
Flags: HW
LayerCount: 2
Fore
SplineSet
39.763671875 252.315429688 m 0
 51.5107421875 256.5390625 78.0419921875 273.69921875 85.9619140625 267.36328125 c 0
 99.7216796875 254.805664062 110.95703125 229.49609375 111.041015625 210.869140625 c 0
 107.081054688 122.563476562 97.841796875 34.390625 92.0341796875 -53.9150390625 c 0
 92.560546875 -66.46484375 95.5771484375 -86.51171875 98.765625 -98.662109375 c 2
 116.716796875 -101.830078125 l 2
 132.291992188 -58.40234375 144.963867188 -13.65625 164.235351562 28.1865234375 c 0
 200.270507812 106.724609375 238.9453125 184.073242188 279.3359375 260.3671875 c 0
 286.19921875 273.56640625 306.659179688 279.505859375 323.290039062 290.330078125 c 1
 350.877929688 225.255859375 296.891601562 202.420898438 279.3359375 164.93359375 c 0
 251.484375 103.02734375 215.185546875 44.94921875 186.938476562 -16.82421875 c 0
 176.907226562 -38.8671875 186.938476562 -69.623046875 176.115234375 -91.40234375 c 0
 158.673828125 -122.844726562 126.446289062 -171.275390625 104.177734375 -199.505859375 c 0
 99.689453125 -205.709960938 82.5302734375 -211.650390625 79.890625 -209.009765625 c 0
 69.06640625 -198.0546875 54.6787109375 -184.1953125 53.4912109375 -170.86328125 c 0
 50.0595703125 -98.662109375 48.607421875 -25.66796875 49.9267578125 45.8740234375 c 0
 50.71875 88.5078125 60.8828125 131.01171875 61.2783203125 173.646484375 c 0
 62.203125 195.42578125 50.19140625 217.46875 39.763671875 252.315429688 c 0
EndSplineSet
Validated: 33
EndChar

StartChar: i
Encoding: 105 105 34
Width: 467
VWidth: -180
Flags: HW
LayerCount: 2
Fore
SplineSet
396.537109375 -70.470703125 m 1
 385.06640625 -109.01171875 350.654296875 -123.923828125 280.68359375 -106.029296875 c 0
 239.504882812 -95.591796875 203.6015625 -64.3916015625 171.71484375 -46.1533203125 c 0
 125.029296875 -56.4765625 79.146484375 -68.0625 32.806640625 -75.748046875 c 0
 23.056640625 -77.353515625 11.01171875 -64.96484375 0 -59 c 1
 7.443359375 -49.6572265625 21.5234375 -36.65625 31.4296875 -29.98046875 c 0
 40.26171875 -25.736328125 54.37109375 -29.98046875 65.0390625 -31.9296875 c 0
 150.03515625 -44.77734375 173.205078125 -25.8505859375 206.240234375 52.4931640625 c 0
 243.51953125 140.81640625 288.484375 226.73046875 392.98046875 274.791015625 c 1
 391.375 251.850585938 394.2421875 234.071289062 388.506835938 219.16015625 c 0
 360.748046875 147.46875 327.369140625 79.5634765625 266.231445312 28.17578125 c 0
 250.630859375 15.099609375 232.623046875 -18.2802734375 238.931640625 -29.177734375 c 0
 248.91015625 -46.95703125 277.013671875 -58.8857421875 299.49609375 -63.5888671875 c 0
 329.663085938 -70.7001953125 361.78125 -68.6357421875 396.537109375 -70.470703125 c 1
267.836914062 87.36328125 m 2
 325.189453125 109.04296875 355.013671875 177.29296875 327.598632812 204.477539062 c 2
 267.836914062 87.36328125 l 2
454.921875 324.115234375 m 1
 411.333984375 363.688476562 l 2
 421.427734375 371.717773438 432.439453125 387.431640625 441.500976562 386.62890625 c 0
 472.126953125 383.1875 469.833007812 358.985351562 469.259765625 337.765625 c 2
 454.921875 324.115234375 l 1
267.836914062 87.36328125 m 2
 327.598632812 204.477539062 l 2
 355.013671875 177.29296875 325.533203125 109.04296875 267.836914062 87.36328125 c 2
EndSplineSet
Validated: 37
EndChar

StartChar: o
Encoding: 111 111 35
Width: 552
VWidth: -50
Flags: HW
LayerCount: 2
Fore
SplineSet
505.169921875 106.603515625 m 0
 496.05078125 -72.798828125 377.96875 -211.634765625 181.427734375 -200.471679688 c 0
 110.987304688 -196.541015625 87.087890625 -129.087890625 54.2265625 -81.7607421875 c 0
 25.767578125 -41.1953125 62.2451171875 -7.705078125 82.2138671875 28.3017578125 c 0
 104.5859375 73.7724609375 136.91796875 149.284179688 154.383789062 196.85546875 c 0
 181.270507812 261.634765625 272.779296875 310.376953125 340.546875 296.069335938 c 0
 443.69140625 274.685546875 499.3515625 209.591796875 505.169921875 106.603515625 c 0
446.8359375 117.294921875 m 0
 446.8359375 164.46484375 403.59765625 210.220703125 350.924804688 219.654296875 c 0
 301.239257812 228.616210938 205.169921875 191.98046875 196.20703125 157.705078125 c 0
 179.2265625 91.98046875 161.7734375 25.943359375 151.396484375 -41.037109375 c 0
 138.818359375 -122.484375 183.786132812 -153.458984375 263.974609375 -143.7109375 c 0
 356.11328125 -132.546875 446.6796875 35.53515625 446.8359375 117.294921875 c 0
EndSplineSet
Validated: 33
EndChar

StartChar: j
Encoding: 106 106 36
Width: 502
VWidth: -400
Flags: HW
LayerCount: 2
Fore
SplineSet
75.5615234375 -209.59375 m 0
 76.4853515625 -216.680664062 78.0263671875 -220.377929688 76.896484375 -221.5078125 c 0
 38.482421875 -260.435546875 3.4580078125 -303.676757812 -39.681640625 -336.544921875 c 0
 -84.771484375 -370.748046875 -91.8583984375 -453.01953125 -44.3037109375 -486.606445312 c 0
 -14.208984375 -507.970703125 17.3232421875 -527.69140625 48.13671875 -547.412109375 c 0
 95.384765625 -577.505859375 125.889648438 -569.391601562 144.7890625 -515.981445312 c 0
 175.602539062 -429.396484375 203.333984375 -341.372070312 230.245117188 -253.65625 c 0
 257.155273438 -165.940429688 281.600585938 -74.322265625 308.61328125 14.83203125 c 0
 314.365234375 33.935546875 328.333984375 50.3701171875 337.166992188 68.5498046875 c 0
 341.051757812 77.6875 346.34375 92.8720703125 348.979492188 102.444335938 c 0
 339.5703125 105.301757812 323.971679688 108.154296875 314.16015625 108.8125 c 0
 264.447265625 106.34765625 214.735351562 101.930664062 165.125976562 99.158203125 c 0
 159.086914062 100.129882812 149.883789062 103.397460938 144.583007812 106.450195312 c 2
 145.610351562 117.235351562 l 1
 219.87109375 128.944335938 293.92578125 141.783203125 368.391601562 151.643554688 c 0
 383.079101562 153.594726562 399.205078125 144.350585938 414.71484375 140.2421875 c 1
 408.962890625 126.068359375 403.827148438 111.5859375 397.458984375 97.6171875 c 0
 372.80859375 43.1796875 342.81640625 -9.5107421875 324.123046875 -65.8994140625 c 0
 296.083007812 -150.739257812 276.7734375 -238.352539062 252.224609375 -324.322265625 c 0
 239.823242188 -371.395507812 215.619140625 -446.491210938 198.198242188 -491.947265625 c 0
 185.319335938 -519.625 158.584960938 -560.76171875 138.5234375 -583.771484375 c 0
 130.409179688 -594.04296875 111.407226562 -598.97265625 97.4384765625 -599.794921875 c 0
 2.73828125 -605.135742188 -114.352539062 -503.348632812 -114.25 -409.264648438 c 0
 -113.704101562 -377.67578125 -96.4033203125 -332.719726562 -75.630859375 -308.915039062 c 0
 -37.0107421875 -269.473632812 13.8310546875 -241.947265625 59.8466796875 -209.901367188 c 0
 62.5166015625 -207.641601562 69.193359375 -209.59375 75.5615234375 -209.59375 c 0
430.943359375 392.810546875 m 1
 463.502929688 403.697265625 489.48828125 405.649414062 501.608398438 373.08984375 c 0
 504.279296875 366.002929688 492.877929688 346.384765625 484.353515625 343.611328125 c 0
 443.987304688 330.463867188 445.528320312 367.440429688 430.943359375 392.810546875 c 1
EndSplineSet
Validated: 33
EndChar

StartChar: k
Encoding: 107 107 37
Width: 658
VWidth: 0
Flags: HW
LayerCount: 2
Fore
SplineSet
34.5947265625 -100 m 0
 19.1064453125 -89.3515625 5.5546875 -84.650390625 1.6826171875 -75.9375 c 0
 1.0107421875 -73.494140625 0.46484375 -69.4541015625 0.46484375 -66.919921875 c 0
 0.46484375 -60.271484375 3.8603515625 -50.681640625 8.0439453125 -45.513671875 c 0
 181.04296875 127.900390625 285.451171875 340.44921875 364.966796875 568.2109375 c 0
 378.795898438 606.793945312 392.625 645.099609375 409.49609375 682.4375 c 0
 413.229492188 690.595703125 427.05859375 694.192382812 436.32421875 700 c 1
 442.9609375 687.96875 457.34375 674.139648438 454.9921875 664.322265625 c 0
 447.453125 639.813476562 433.017578125 600.844726562 422.771484375 577.337890625 c 0
 388.4765625 483.993164062 354.87109375 390.233398438 319.884765625 297.026367188 c 0
 314.625 287.017578125 304.33984375 271.962890625 296.928710938 263.422851562 c 0
 230.688476562 165.099609375 165.27734375 66.361328125 97.6552734375 -31.1318359375 c 0
 81.5556640625 -51.3349609375 53.3046875 -82.1875 34.5947265625 -100 c 0
658 362.990234375 m 2
 642.51171875 342.799804688 630.342773438 317.494140625 610.982421875 303.25 c 0
 528.9765625 243.923828125 445.036132812 187.779296875 361.094726562 130.803710938 c 0
 344.0859375 119.1875 326.383789062 108.5390625 297.205078125 89.3173828125 c 1
 334.8203125 70.2333984375 363.999023438 51.978515625 395.528320312 39.671875 c 0
 469.236328125 11.1845703125 544.327148438 -13.431640625 617.7578125 -42.4716796875 c 0
 632.416992188 -48.279296875 641.8203125 -67.087890625 653.575195312 -79.810546875 c 1
 637.395507812 -85.6181640625 617.620117188 -100.276367188 605.3125 -95.4365234375 c 0
 490.533203125 -51.322265625 375.615234375 -6.931640625 263.739257812 44.0966796875 c 0
 218.51953125 64.83984375 224.188476562 89.041015625 263.739257812 116.698242188 c 0
 359.296875 183.21484375 452.641601562 253.05078125 547.78515625 320.12109375 c 0
 576.825195312 340.44921875 609.323242188 355.9375 640.161132812 373.638671875 c 2
 658 362.990234375 l 2
EndSplineSet
Validated: 33
EndChar

StartChar: l
Encoding: 108 108 38
Width: 703
VWidth: -100
Flags: HW
LayerCount: 2
Fore
SplineSet
-0.0673828125 -178.059570312 m 2
 15.2978515625 -168.452148438 41.697265625 -155.940429688 58.861328125 -150.130859375 c 0
 178.951171875 -124.297851562 270.6953125 -72.2119140625 318.452148438 53.744140625 c 0
 374.30859375 199.388671875 435.052734375 344.056640625 559.33203125 451.161132812 c 0
 595.638671875 482.439453125 613.931640625 533.966796875 644.791992188 572.647460938 c 0
 656.243164062 586.611328125 680.12109375 591.499023438 698.4140625 600.576171875 c 1
 699.53125 581.305664062 706.234375 560.499023438 701.067382812 543.18359375 c 0
 662.666015625 415.552734375 596.4765625 302.443359375 516.043945312 196.875976562 c 0
 455.299804688 117.000976562 395.115234375 36.7080078125 338.001953125 -45.6796875 c 0
 307.001953125 -90.365234375 320.546875 -121.0859375 375.42578125 -129.463867188 c 0
 426.673828125 -137.703125 479.458007812 -136.446289062 531.543945312 -139.9375 c 0
 548.021484375 -141.0546875 564.359375 -144.405273438 580.836914062 -146.639648438 c 2
 586.142578125 -162.978515625 l 2
 570.642578125 -171.49609375 554.724609375 -187.694335938 539.783203125 -186.856445312 c 0
 469.962890625 -182.946289062 401.399414062 -176.244140625 332.974609375 -165.771484375 c 0
 315.897460938 -161.293945312 294.314453125 -145.591796875 284.798828125 -130.720703125 c 0
 263.57421875 -98.1845703125 247.375976562 -104.329101562 223.497070312 -127.229492188 c 0
 163.033203125 -184.901367188 85.951171875 -191.46484375 9.568359375 -199.005859375 c 1
 -0.0673828125 -178.059570312 l 2
589.076171875 377.849609375 m 1
 564.499023438 393.0703125 l 1
 501.939453125 327.998046875 452.787109375 254.965820312 427.092773438 166.853515625 c 1
 445.8046875 155.123046875 l 1
 589.076171875 377.849609375 l 1
589.076171875 377.849609375 m 1
 445.8046875 154.424804688 l 1
 427.092773438 166.154296875 l 1
 452.087890625 254.267578125 501.939453125 327.299804688 564.499023438 392.372070312 c 1
 589.076171875 377.849609375 l 1
EndSplineSet
Validated: 37
EndChar

StartChar: m
Encoding: 109 109 39
Width: 580
VWidth: -300
Flags: HW
LayerCount: 2
Fore
SplineSet
340.69921875 -64.0595703125 m 0
 334.578125 -63.4228515625 324.750976562 -61.7578125 318.76171875 -60.3447265625 c 0
 314.096679688 -58.81640625 306.79296875 -55.7021484375 302.459960938 -53.39453125 c 0
 305.826171875 -15.443359375 311.153320312 19.96484375 311.59375 55.37109375 c 0
 312.1640625 97.33984375 293.3359375 124.250976562 246.765625 125.6640625 c 0
 237.20703125 125.88671875 227.943359375 134.658203125 218.607421875 139.5546875 c 1
 223.553710938 147.565429688 233.622070312 158.7265625 241.083984375 164.46875 c 0
 280.12109375 184.157226562 323.416015625 165.706054688 349.90625 122.626953125 c 0
 358.053710938 109.599609375 373.622070312 90.830078125 384.072265625 91.8203125 c 0
 396.805664062 93.048828125 409.021484375 111.564453125 419.1953125 124.30078125 c 0
 434.015625 142.578125 444.04296875 165.48046875 461.1484375 180.73828125 c 0
 503.390625 218.475585938 566.349609375 198.888671875 575.318359375 142.91796875 c 0
 582.89453125 96.064453125 576.666992188 46.853515625 576.705078125 -1.2626953125 c 0
 576.75 -45.87109375 577.060546875 -90.53125 577.63671875 -135.2421875 c 0
 578.08203125 -154.775390625 590.123046875 -184.6015625 555.25 -177.89453125 c 0
 538.841796875 -175.12890625 514.888671875 -149.194335938 514.765625 -133.39453125 c 0
 514.415039062 -73.8408203125 525.12109375 -14.55859375 526.221679688 45.078125 c 0
 526.759765625 75.3359375 515.622070312 105.935546875 509.775390625 136.240234375 c 1
 487.095703125 118.803710938 460.291015625 104.16015625 442.926757812 82.291015625 c 0
 407.296875 37.779296875 377.623046875 -10.48828125 340.69921875 -64.0595703125 c 0
36.12890625 -211.4921875 m 1
 54.9931640625 -155.904296875 82.39453125 -105.05859375 87.55078125 -52.0908203125 c 0
 93.0859375 4.7177734375 76.29296875 63.46875 72.947265625 121.487304688 c 0
 71.82421875 140.034179688 82.3046875 159.25 87.5546875 178.19140625 c 1
 99.5146484375 166.264648438 117.859375 145.939453125 128.501953125 132.822265625 c 0
 132.84375 126.998046875 127.4609375 114.525390625 131.171875 107.58203125 c 0
 135.796875 96.2060546875 147.817382812 81.408203125 158.00390625 74.55078125 c 0
 165.091796875 71.353515625 180.424804688 83.7470703125 190.659179688 91.0263671875 c 0
 194.53125 95.38671875 202.119140625 100.54296875 207.59765625 102.537109375 c 0
 210.703125 103.66796875 215.90234375 104.756835938 219.201171875 104.96875 c 1
 207.22265625 84.12890625 190.091796875 49.166015625 180.96484375 26.9296875 c 0
 156.779296875 -43.33203125 137.349609375 -115.266601562 112.67578125 -185.408203125 c 0
 95.154296875 -235.32421875 88.4375 -235.9921875 36.12890625 -211.4921875 c 1
340.69921875 -64.0595703125 m 0
 334.720703125 -63.3525390625 325.127929688 -61.603515625 319.28515625 -60.154296875 c 0
 314.620117188 -58.625 307.31640625 -55.51171875 302.983398438 -53.2041015625 c 0
 306.348632812 -15.251953125 311.676757812 20.154296875 312.1171875 55.560546875 c 0
 312.6875 97.5302734375 293.859375 124.44140625 247.2890625 125.854492188 c 0
 237.73046875 126.078125 229.119140625 135.087890625 219.130859375 139.745117188 c 1
 223.9609375 147.66015625 233.794921875 158.736328125 241.083984375 164.46875 c 0
 280.12109375 184.157226562 323.416015625 165.706054688 349.90625 122.626953125 c 0
 358.053710938 109.599609375 373.622070312 90.830078125 384.072265625 91.8203125 c 0
 396.805664062 93.048828125 408.890625 111.516601562 419.1953125 124.30078125 c 0
 434.015625 142.578125 444.04296875 165.48046875 461.1484375 180.73828125 c 0
 503.521484375 218.5234375 566.16015625 199.412109375 575.318359375 142.91796875 c 0
 582.89453125 96.064453125 576.666992188 46.853515625 576.705078125 -1.2626953125 c 0
 576.78125 -45.9580078125 577.091796875 -90.6171875 577.63671875 -135.2421875 c 0
 577.986328125 -154.513671875 590.123046875 -184.6015625 555.25 -177.89453125 c 0
 539.221679688 -174.546875 514.81640625 -148.18359375 514.765625 -133.39453125 c 0
 514.557617188 -74.232421875 525.07421875 -14.427734375 526.221679688 45.078125 c 0
 526.90234375 74.943359375 515.622070312 105.935546875 509.775390625 136.240234375 c 1
 486.715820312 118.220703125 460.528320312 103.505859375 442.926757812 82.291015625 c 0
 407.688476562 37.921875 377.623046875 -10.48828125 340.69921875 -64.0595703125 c 0
36.12890625 -211.4921875 m 1
 54.9931640625 -155.904296875 82.6328125 -105.711914062 87.681640625 -52.04296875 c 0
 93.216796875 4.765625 76.423828125 63.5166015625 73.078125 121.53515625 c 0
 71.955078125 140.08203125 82.435546875 159.297851562 87.6845703125 178.23828125 c 1
 99.6455078125 166.3125 117.990234375 145.986328125 128.6328125 132.870117188 c 0
 132.974609375 127.045898438 127.591796875 114.572265625 131.302734375 107.629882812 c 0
 135.927734375 96.25390625 147.948242188 81.455078125 158.134765625 74.59765625 c 0
 165.22265625 71.40234375 180.555664062 83.794921875 190.790039062 91.07421875 c 0
 194.661132812 95.43359375 202.25 100.590820312 207.728515625 102.584960938 c 0
 210.833984375 103.71484375 216.033203125 104.8046875 219.33203125 105.016601562 c 1
 207.352539062 84.17578125 190.22265625 49.21484375 181.095703125 26.9765625 c 0
 156.91015625 -43.2841796875 137.48046875 -115.21875 112.806640625 -185.361328125 c 0
 95.154296875 -235.32421875 88.69921875 -235.896484375 36.12890625 -211.4921875 c 1
EndSplineSet
Validated: 37
EndChar

StartChar: n
Encoding: 110 110 40
Width: 493
VWidth: -300
Flags: HW
LayerCount: 2
Fore
SplineSet
276.822265625 176.225585938 m 1
 277.2578125 240.551757812 316.487304688 264.448242188 356.083007812 273.265625 c 0
 395.676757812 282.083007812 437.170898438 262.782226562 441.5703125 213.537109375 c 0
 446.708984375 155.361328125 450.02734375 60.7568359375 448.9765625 2.3642578125 c 0
 447.451171875 -47.2841796875 439.9921875 -127.411132812 432.327148438 -176.489257812 c 0
 429.836914062 -193.602539062 413.534179688 -208.71484375 403.53125 -224.857421875 c 1
 389.483398438 -205.918945312 363.192382812 -186.079101562 363.8671875 -168.21484375 c 0
 365.70703125 -116.186523438 380.829101562 -64.8740234375 386.482421875 -12.78515625 c 0
 392.307617188 33.20703125 396.430664062 108.153320312 395.686523438 154.505859375 c 0
 393.51171875 211.9453125 372.360351562 219.995117188 321.653320312 191.780273438 c 0
 309.606445312 186.54296875 289.522460938 179.575195312 276.822265625 176.225585938 c 1
168.172851562 241.508789062 m 1
 210.727539062 239.23046875 251.26953125 203.3203125 258.669921875 161.352539062 c 0
 261.357421875 146.107421875 258.79296875 122.100585938 252.944335938 107.767578125 c 0
 215.908203125 16.9814453125 134.249023438 -117.278320312 70.669921875 -191.919921875 c 0
 64.65234375 -197.590820312 54.009765625 -205.634765625 46.912109375 -209.875976562 c 1
 43.07421875 -199.385742188 34.5234375 -188.196289062 36.1923828125 -178.571289062 c 0
 43.318359375 -135.799804688 72.4375 -74.744140625 101.190429688 -42.28515625 c 0
 133.869140625 -3.787109375 149.235351562 53.07421875 161.3125 104.307617188 c 0
 171.529296875 147.870117188 166.376953125 195.30078125 168.172851562 241.508789062 c 1
EndSplineSet
Validated: 33
EndChar

StartChar: p
Encoding: 112 112 41
Width: 491
VWidth: -1000
Flags: HW
LayerCount: 2
Fore
SplineSet
-94.013671875 -699.42578125 m 2
 -134.7890625 -673.151367188 l 1
 -40.1728515625 -394.185546875 53.4375 -118.234375 147.766601562 159.583984375 c 1
 232.044921875 109.762695312 242.95703125 212.993164062 291.341796875 243.862304688 c 0
 332.834960938 270.280273438 363.12890625 314.213867188 421.8515625 295.405273438 c 0
 466.646484375 281.047851562 487.034179688 254.629882812 490.049804688 205.958007812 c 0
 500.673828125 44.580078125 421.27734375 -65.97265625 299.668945312 -159.87109375 c 0
 251.140625 -196.913085938 201.750976562 -193.036132812 150.063476562 -189.734375 c 0
 105.69921875 -187.006835938 78.2763671875 -194.47265625 78.2763671875 -248.025390625 c 0
 78.2763671875 -275.017578125 61.765625 -301.866210938 52.1455078125 -328.427734375 c 0
 10.1259765625 -443.862304688 -32.1328125 -559.15234375 -74.630859375 -674.299804688 c 0
 -79.15625 -681.87109375 -87.83984375 -693.126953125 -94.013671875 -699.42578125 c 2
441.090820312 187.868164062 m 2
 433.1875 202.40625 417.814453125 224.211914062 406.776367188 236.540039062 c 0
 400.889648438 242.5703125 378.060546875 239.267578125 368.297851562 232.51953125 c 0
 289.043945312 176.381835938 211.80078125 118.952148438 178.634765625 22.61328125 c 0
 167.149414062 -10.83984375 154.801757812 -44.005859375 144.033203125 -77.8896484375 c 0
 138.578125 -94.8310546875 135.5625 -112.778320312 131.54296875 -130.150390625 c 1
 154.658203125 -134.458007812 179.353515625 -146.518554688 200.602539062 -142.067382812 c 0
 347.91015625 -110.768554688 437.64453125 9.5478515625 441.090820312 187.293945312 c 2
 441.090820312 187.868164062 l 2
EndSplineSet
Validated: 33
EndChar

StartChar: q
Encoding: 113 113 42
Width: 749
VWidth: -500
Flags: HW
LayerCount: 2
Fore
SplineSet
452.216796875 249.602539062 m 2
 409.095703125 244.481445312 l 2
 408.200195312 240.147460938 406.388671875 233.205078125 405.052734375 228.985351562 c 0
 398.045898438 209.311523438 390.76953125 189.637695312 383.22265625 170.233398438 c 0
 381.471679688 165.786132812 375.811523438 162.1484375 375.541992188 157.970703125 c 0
 370.826171875 60.8134765625 301.83203125 -8.583984375 267.740234375 -92.9384765625 c 0
 251.272460938 -136.630859375 228.392578125 -208.772460938 216.668945312 -253.96875 c 0
 190.52734375 -345.780273438 165.642578125 -437.951171875 142.015625 -530.481445312 c 0
 140.814453125 -539.762695312 139.838867188 -554.892578125 139.838867188 -564.251953125 c 0
 139.838867188 -572.024414062 140.512695312 -584.604492188 141.341796875 -592.333007812 c 2
 154.008789062 -596.240234375 l 2
 163.967773438 -586.180664062 179.059570312 -568.915039062 187.697265625 -557.701171875 c 0
 238.993164062 -482.508789062 289.83984375 -406.958007812 340.237304688 -331.046875 c 0
 370.9609375 -284.961914062 401.145507812 -238.471679688 431.1953125 -191.982421875 c 0
 483.614257812 -111.130859375 534.8203125 -29.3359375 588.046875 50.572265625 c 0
 628.47265625 110.807617188 669.841796875 169.424804688 710.671875 228.446289062 c 0
 755.005859375 206.750976562 757.296875 190.446289062 735.736328125 160.26171875 c 0
 669.16796875 67.0126953125 603.948242188 -27.44921875 542.635742188 -124.201171875 c 0
 489.502929688 -207.635742188 392.006835938 -334.41015625 325.009765625 -407.182617188 c 0
 321.78515625 -411.5390625 317.499023438 -419.146484375 315.442382812 -424.161132812 c 0
 264.37109375 -522.260742188 214.243164062 -621.03515625 113.313476562 -700.5390625 c 1
 104.5546875 -676.1484375 87.9794921875 -653.375976562 89.7314453125 -632.084960938 c 0
 100.78125 -503.260742188 113.178710938 -374.16796875 168.696289062 -254.77734375 c 0
 171.693359375 -246.990234375 174.953125 -233.951171875 175.973632812 -225.669921875 c 0
 191.469726562 -147.513671875 191.469726562 -148.322265625 111.291992188 -154.116210938 c 0
 74.9091796875 -156.676757812 35.1572265625 -163.684570312 11.8447265625 -123.52734375 c 0
 -11.4677734375 -83.37109375 3.220703125 -50.4921875 21.546875 -14.1083984375 c 0
 66.1787109375 74.2822265625 175.206054688 180.048828125 264.91015625 221.978515625 c 0
 308.435546875 242.73046875 339.967773438 278.708984375 385.109375 294.071289062 c 0
 424.861328125 307.680664062 442.514648438 299.865234375 452.216796875 249.602539062 c 2
339.159179688 165.247070312 m 2
 296.711914062 190.311523438 268.548828125 196.779296875 239.577148438 163.899414062 c 0
 210.604492188 131.020507812 173.008789062 102.317382812 144.44140625 67.5517578125 c 0
 117.254882812 34.60546875 78.2568359375 -22.3837890625 57.390625 -59.6552734375 c 0
 51.4619140625 -70.435546875 70.8662109375 -109.91796875 74.9091796875 -109.37890625 c 0
 119.51171875 -103.71875 176.243164062 -125.953125 205.484375 -78.6552734375 c 0
 253.995117188 0.4443359375 294.555664062 83.5869140625 339.159179688 165.920898438 c 2
 339.159179688 165.247070312 l 2
EndSplineSet
Validated: 33
EndChar

StartChar: r
Encoding: 114 114 43
Width: 484
VWidth: -300
Flags: HW
LayerCount: 2
Fore
SplineSet
473.771484375 -183.139648438 m 2
 468.510742188 -193.610351562 465.701171875 -209.333984375 457.434570312 -213.126953125 c 0
 453.088867188 -215.314453125 445.670898438 -217.776367188 440.877929688 -218.622070312 c 0
 433.115234375 -219.990234375 420.686523438 -219.25390625 413.139648438 -216.977539062 c 0
 356.58203125 -191.010742188 347.258789062 -134.686523438 340.096679688 -82.5478515625 c 0
 335.189453125 -46.6630859375 347.375976562 -8.6767578125 348.341796875 28.4482421875 c 0
 348.575195312 38.6416015625 337.706054688 56.521484375 329.256835938 58.3828125 c 0
 321.842773438 59.2138671875 309.864257812 58.8369140625 302.517578125 57.5419921875 c 0
 296.817382812 56.537109375 287.860351562 53.904296875 282.521484375 51.6650390625 c 0
 269.120117188 47.0673828125 255.37890625 29.416015625 245.395507812 31.919921875 c 0
 209.840820312 40.6767578125 172.485351562 50.435546875 142.255859375 69.8759765625 c 0
 112.026367188 89.3173828125 106.528320312 123.373046875 119.310546875 162.581054688 c 0
 140.672851562 227.971679688 191.926757812 245.333984375 249.1328125 255.420898438 c 0
 249.626953125 255.536132812 250.43359375 255.702148438 250.93359375 255.791015625 c 0
 268.923828125 258.962890625 286.098632812 246.936523438 289.271484375 228.946289062 c 0
 289.608398438 227.036132812 289.822265625 223.913085938 289.750976562 221.974609375 c 0
 290.787109375 181.547851562 287.793945312 141.52734375 286.153320312 92.1015625 c 1
 418.40625 90.5478515625 l 1
 364.5703125 31.4111328125 370.8125 -104.74609375 402.237304688 -151.692382812 c 0
 417.5234375 -174.479492188 434.07421875 -190.038085938 464.6328125 -174.497070312 c 2
 473.771484375 -183.139648438 l 2
140.053710938 141.669921875 m 0
 148.056640625 91.1015625 207.150390625 57.6640625 247.07421875 73.63671875 c 0
 252.813476562 76.0458984375 258.890625 82.8486328125 260.641601562 88.8212890625 c 0
 263.637695312 118.342773438 264.814453125 166.3515625 263.267578125 195.984375 c 0
 262.458007812 205.181640625 235.314453125 221.512695312 227.3046875 218.577148438 c 0
 205.674804688 208.736328125 173.622070312 188.030273438 155.758789062 172.357421875 c 0
 146.155273438 164.065429688 142.956054688 147.6640625 140.053710938 141.669921875 c 0
193.37890625 -98.5703125 m 1
 180.478515625 -154.956054688 89.5458984375 -216.16796875 42.201171875 -208.475585938 c 0
 32.509765625 -205.795898438 21.689453125 -196.014648438 18.046875 -186.643554688 c 0
 16.7880859375 -176.337890625 21.5556640625 -161.852539062 28.6904296875 -154.310546875 c 0
 32.98828125 -149.897460938 48.7646484375 -153.00390625 57.1552734375 -157.412109375 c 0
 85.4404296875 -172.729492188 116.224609375 -165.373046875 144.885742188 -136.765625 c 0
 157.608398438 -125.384765625 179.333007812 -108.2734375 193.37890625 -98.5703125 c 1
230.541992188 11.9404296875 m 2
 250.547851562 -21.486328125 245.130859375 -36.248046875 201.33984375 -71.177734375 c 2
 230.541992188 11.9404296875 l 2
EndSplineSet
Validated: 33
EndChar

StartChar: s
Encoding: 115 115 44
Width: 405
VWidth: -250
Flags: HW
LayerCount: 2
Fore
SplineSet
231.985351562 217.111328125 m 2
 253.028320312 200.982421875 276.100585938 187.844726562 271.828125 152.916015625 c 0
 271.771484375 151.694335938 271.725585938 149.709960938 271.725585938 148.487304688 c 0
 271.725585938 135.149414062 276.84375 114.786132812 283.150390625 103.033203125 c 0
 326.944335938 11.9208984375 300.026367188 -76.5224609375 273.537109375 -164.537109375 c 0
 268.009765625 -175.822265625 253.654296875 -187.546875 241.4921875 -190.70703125 c 0
 190.0078125 -202.029296875 137.775390625 -200.3203125 91.951171875 -171.16015625 c 0
 37.1552734375 -135.911132812 33.310546875 -90.9423828125 78.0654296875 -29.0966796875 c 1
 35.33984375 -29.0966796875 l 2
 45.701171875 -2.072265625 55.634765625 11.9208984375 83.6201171875 21.9609375 c 0
 117.907226562 34.1376953125 145.892578125 64.0458984375 176.762695312 86.0498046875 c 0
 186.055664062 92.6728515625 195.989257812 98.546875 205.602539062 104.849609375 c 2
 214.147460938 95.3427734375 l 2
 205.068359375 83.9140625 196.5234375 71.736328125 186.696289062 61.0556640625 c 0
 155.61328125 27.1953125 116.625976562 -0.04296875 102.206054688 -46.6142578125 c 0
 93.447265625 -74.8134765625 83.833984375 -105.682617188 112.24609375 -127.045898438 c 0
 144.825195312 -151.505859375 178.791992188 -179.384765625 224.508789062 -162.1875 c 0
 233.001953125 -158.489257812 242.380859375 -148.391601562 245.444335938 -139.649414062 c 0
 268.088867188 -51.955078125 289.666015625 34.779296875 234.762695312 121.405273438 c 0
 218.954101562 146.29296875 220.770507812 182.396484375 214.467773438 213.266601562 c 2
 231.985351562 217.111328125 l 2
282.72265625 185.067382812 m 2
 292.3359375 250.7578125 l 1
 254.630859375 249.048828125 l 2
 256.874023438 253.108398438 257.834960938 257.060546875 260.3984375 258.662109375 c 0
 279.081054688 271.483398438 310.424804688 290.624023438 330.362304688 301.388671875 c 0
 336.450195312 304.592773438 350.336914062 298.611328125 356.745117188 292.629882812 c 0
 360.163085938 289.638671875 357.70703125 275.326171875 353.327148438 269.6640625 c 0
 332.391601562 242.854492188 309.9609375 217.111328125 282.72265625 185.067382812 c 2
231.985351562 217.111328125 m 2
 253.348632812 200.982421875 276.100585938 187.844726562 272.1484375 153.022460938 c 0
 272.091796875 151.80078125 272.045898438 149.81640625 272.045898438 148.59375 c 0
 272.045898438 135.255859375 277.1640625 114.892578125 283.470703125 103.140625 c 0
 327.584960938 12.02734375 300.34765625 -76.4150390625 273.857421875 -164.430664062 c 0
 268.330078125 -175.715820312 253.974609375 -187.439453125 241.8125 -190.600585938 c 0
 190.114257812 -201.922851562 137.881835938 -200.213867188 92.2724609375 -171.053710938 c 0
 37.4755859375 -136.017578125 33.630859375 -90.8349609375 78.3857421875 -28.9892578125 c 1
 35.66015625 -28.9892578125 l 2
 46.341796875 -1.9658203125 55.955078125 12.02734375 83.9404296875 22.0673828125 c 0
 118.227539062 34.2451171875 146.213867188 64.1533203125 177.083007812 86.15625 c 0
 186.375976562 92.779296875 196.309570312 98.654296875 205.922851562 104.956054688 c 2
 214.467773438 95.44921875 l 2
 205.388671875 84.0205078125 196.84375 72.0576171875 187.016601562 61.162109375 c 0
 156.25390625 27.3017578125 116.946289062 0.064453125 102.526367188 -46.5068359375 c 0
 93.767578125 -74.7060546875 84.154296875 -105.682617188 112.56640625 -126.938476562 c 0
 145.145507812 -151.29296875 179.112304688 -179.278320312 224.829101562 -162.081054688 c 0
 233.248046875 -158.342773438 242.53125 -148.245117188 245.55078125 -139.54296875 c 0
 268.73046875 -51.84765625 290.306640625 34.8857421875 234.870117188 121.512695312 c 0
 219.061523438 146.400390625 220.876953125 182.50390625 214.575195312 213.373046875 c 2
 231.985351562 217.111328125 l 2
282.72265625 185.6015625 m 2
 292.3359375 251.185546875 l 1
 254.630859375 249.4765625 l 2
 256.874023438 253.53515625 257.834960938 257.487304688 260.3984375 259.08984375 c 0
 279.081054688 271.91015625 310.424804688 291.051757812 330.362304688 301.815429688 c 0
 336.450195312 305.020507812 350.336914062 299.0390625 356.745117188 293.056640625 c 0
 360.163085938 290.06640625 357.70703125 275.752929688 353.327148438 270.091796875 c 0
 332.391601562 243.387695312 309.9609375 217.859375 282.72265625 185.6015625 c 2
EndSplineSet
Validated: 37
EndChar

StartChar: t
Encoding: 116 116 45
Width: 723
VWidth: 0
Flags: HW
LayerCount: 2
Fore
SplineSet
290.166992188 -21.771484375 m 2
 266.836914062 -39.1796875 227.51171875 -65.2373046875 202.38671875 -79.935546875 c 0
 174.650390625 -93.3779296875 128.33203125 -111.96484375 98.998046875 -121.424804688 c 0
 93.77734375 -123.54296875 84.9677734375 -125.262695312 79.3330078125 -125.262695312 c 0
 75.3330078125 -125.262695312 68.962890625 -124.379882812 65.11328125 -123.291992188 c 0
 53.8583984375 -117.157226562 37.0048828125 -105.204101562 27.4931640625 -96.611328125 c 1
 36.5498046875 -87.888671875 52.865234375 -75.935546875 63.912109375 -69.9306640625 c 0
 126.612304688 -45.2509765625 194.381835938 -29.9091796875 252.146484375 2.7744140625 c 0
 345.529296875 56.13671875 400.4921875 147.918945312 452.252929688 239.567382812 c 0
 465.59375 262.379882812 486.271484375 280.65625 500.01171875 303.202148438 c 0
 558.709960938 399.38671875 617.541015625 495.4375 673.4375 593.356445312 c 0
 701.852539062 643.25 721.462890625 698.211914062 749.87890625 748.239257812 c 0
 761.884765625 769.18359375 786.297851562 783.19140625 804.974609375 800.400390625 c 1
 802.70703125 774.919921875 807.2421875 746.104492188 796.970703125 724.359375 c 0
 754.814453125 635.245117188 710.124023438 547.065429688 662.231445312 460.885742188 c 0
 641.153320312 422.732421875 608.870117188 391.249023438 584.45703125 354.162109375 c 0
 576.719726562 342.422851562 578.987304688 324.146484375 576.5859375 308.8046875 c 1
 592.4609375 308.8046875 609.9375 303.869140625 623.677734375 308.8046875 c 0
 683.9765625 331.883789062 743.075195312 358.03125 802.83984375 382.577148438 c 0
 814.1796875 387.24609375 826.5859375 389.647460938 853 397.251953125 c 1
 838.325195312 375.240234375 833.922851562 361.499023438 824.71875 356.296875 c 0
 748.27734375 312.673828125 672.770507812 268.916992188 579.920898438 265.181640625 c 0
 552.243164062 261.513671875 516.921875 239.87890625 501.079101562 216.888671875 c 0
 444.249023438 126.041015625 392.48828125 31.7236328125 343.39453125 -63.2607421875 c 0
 331.921875 -85.4052734375 329.25390625 -122.358398438 340.59375 -142.236328125 c 0
 348.197265625 -155.576171875 388.752929688 -156.509765625 412.765625 -152.641601562 c 0
 458.65625 -144.904296875 503.346679688 -129.829101562 551.639648438 -117.022460938 c 1
 555.641601562 -139.434570312 550.438476562 -164.915039062 513.352539062 -171.717773438 c 0
 455.0546875 -182.390625 396.623046875 -193.997070312 337.658203125 -199.733398438 c 0
 294.8359375 -203.735351562 271.756835938 -181.723632812 282.162109375 -135.032226562 c 0
 289.899414062 -100.48046875 296.836914062 -65.662109375 304.041015625 -30.9765625 c 2
 290.166992188 -21.771484375 l 2
EndSplineSet
Validated: 524321
EndChar

StartChar: u
Encoding: 117 117 46
Width: 423
VWidth: -400
Flags: HW
LayerCount: 2
Fore
SplineSet
252.190429688 -105.001953125 m 1
 218.17578125 -160.814453125 98.96875 -200.515625 41.576171875 -178.716796875 c 0
 0.294921875 -162.81640625 -11.078125 -122.16796875 9.982421875 -77.7265625 c 0
 16.93359375 -63.08984375 15.458984375 -44.765625 18.619140625 -28.232421875 c 0
 20.302734375 -20.01953125 21.4609375 -9.27734375 26.9375 -4.64453125 c 0
 45.853515625 11.431640625 78.076171875 35.4921875 98.86328125 49.0625 c 0
 105.287109375 53.275390625 117.607421875 49.0625 127.190429688 48.009765625 c 1
 124.978515625 38.84765625 125.926757812 25.474609375 120.134765625 21.15625 c 0
 89.490234375 -2.48046875 54.107421875 -51.26171875 41.154296875 -87.7314453125 c 0
 27.5703125 -122.798828125 41.99609375 -147.756835938 80.1171875 -147.44140625 c 0
 140.037109375 -146.493164062 199.431640625 -140.701171875 252.190429688 -105.001953125 c 1
423 -174.92578125 m 1
 385.087890625 -208.203125 329.486328125 -206.517578125 310.3203125 -171.345703125 c 0
 289.2578125 -133.85546875 256.9296875 -94.2607421875 303.580078125 -50.453125 c 0
 311.900390625 -42.765625 311.689453125 -26.5478515625 317.060546875 -14.96484375 c 0
 321.341796875 -2.90625 331.438476562 14.87890625 339.595703125 24.736328125 c 0
 346.755859375 31.6875 361.5 30.94921875 372.873046875 33.6875 c 1
 373.18359375 30.779296875 373.435546875 26.044921875 373.435546875 23.119140625 c 0
 373.435546875 17.25 372.4296875 7.83203125 371.1875 2.095703125 c 0
 361.2890625 -21.9140625 347.809570312 -44.4501953125 337.173828125 -68.25 c 0
 311.373046875 -125.853515625 333.27734375 -160.814453125 397.3046875 -165.974609375 c 0
 404.6328125 -167.763671875 416.14453125 -171.774414062 423 -174.92578125 c 1
EndSplineSet
Validated: 33
EndChar

StartChar: w
Encoding: 119 119 47
Width: 1000
VWidth: -520
Flags: HW
LayerCount: 2
Fore
SplineSet
119.45703125 252.631835938 m 1
 137.685546875 226.383789062 158.283203125 208.51953125 155.913085938 195.942382812 c 0
 134.586914062 100.426757812 108.520507812 5.6396484375 85.734375 -88.7822265625 c 0
 82.4541015625 -102.271484375 82.4541015625 -125.23828125 90.109375 -130.524414062 c 0
 97.7255859375 -134.700195312 110.954101562 -138.087890625 119.638671875 -138.087890625 c 0
 124.83984375 -138.087890625 133.087890625 -136.823242188 138.049804688 -135.264648438 c 0
 208.228515625 -111.931640625 282.782226562 -94.615234375 345.122070312 -57.4296875 c 0
 391.057617188 -30.81640625 420.76953125 23.8681640625 456.497070312 67.2509765625 c 0
 474.724609375 89.671875 488.213867188 117.92578125 509.541015625 137.065429688 c 0
 523.758789062 149.825195312 548.184570312 151.1015625 568.235351562 157.481445312 c 2
 580.083984375 137.4296875 l 2
 548.9140625 99.8798828125 517.561523438 62.51171875 486.9375 24.4150390625 c 0
 475.127929688 12.130859375 459.775390625 -10.4072265625 452.668945312 -25.89453125 c 0
 448.131835938 -45.001953125 444.048828125 -76.44140625 443.5546875 -96.0732421875 c 0
 467.616210938 -97.896484375 494.958007812 -108.286132812 515.009765625 -100.083984375 c 0
 649.3515625 -45.3994140625 767.65234375 27.513671875 836.190429688 163.861328125 c 0
 854.995117188 198.765625 891.580078125 251.193359375 917.852539062 280.885742188 c 0
 927.149414062 292.004882812 952.486328125 289.817382812 970.532226562 293.645507812 c 1
 972.35546875 278.333984375 981.469726562 259.01171875 975.271484375 248.622070312 c 0
 911.655273438 142.8984375 845.668945312 38.6328125 776.219726562 -72.7412109375 c 1
 732.654296875 -6.5732421875 l 2
 706.952148438 -31.1806640625 682.344726562 -55.7890625 656.642578125 -79.486328125 c 0
 597.765625 -134.170898438 531.415039062 -170.626953125 448.4765625 -162.423828125 c 0
 432.071289062 -160.784179688 408.374023438 -154.404296875 401.629882812 -142.555664062 c 0
 370.82421875 -87.87109375 340.748046875 -101.541992188 296.817382812 -128.884765625 c 0
 255.227539062 -154.752929688 183.120117188 -186.193359375 135.862304688 -199.0625 c 0
 49.4609375 -222.212890625 13.369140625 -190.313476562 26.4931640625 -102.818359375 c 0
 38.888671875 -20.244140625 61.126953125 61.236328125 81.177734375 142.3515625 c 0
 88.46875 172.427734375 101.411132812 201.228515625 119.45703125 252.631835938 c 1
EndSplineSet
Validated: 33
EndChar

StartChar: x
Encoding: 120 120 48
Width: 839
VWidth: -260
Flags: HW
LayerCount: 2
Fore
SplineSet
819.661132812 -63.794921875 m 1
 801.44921875 -96.3408203125 776.490234375 -134.283203125 720.50390625 -134.958007812 c 0
 680.538085938 -134.958007812 640.234375 -139.6796875 600.60546875 -136.8125 c 0
 525.056640625 -131.5859375 471.09375 -97.3525390625 446.473632812 -20.1181640625 c 0
 424.55078125 47.3359375 414.095703125 47.3359375 356.9296875 1.97265625 c 0
 268.90234375 -67.1669921875 178.345703125 -132.93359375 88.80078125 -200.387695312 c 0
 84.802734375 -204.09375 77.248046875 -208.09765625 71.9375 -209.326171875 c 0
 53.05078125 -210.84375 33.826171875 -210.84375 14.7705078125 -211.349609375 c 1
 18.205078125 -196.551757812 27.1953125 -173.88671875 34.837890625 -160.758789062 c 0
 84.416015625 -99.0390625 147.31640625 -45.4130859375 185.259765625 22.546875 c 0
 254.568359375 146.998046875 206.67578125 195.05859375 110.38671875 214.451171875 c 0
 99 218.357421875 81.548828125 226.818359375 71.431640625 233.338867188 c 1
 129.104492188 295.564453125 266.541015625 248.684570312 276.153320312 162.681640625 c 0
 281.88671875 112.090820312 266.709960938 57.791015625 260.9765625 5.177734375 c 2
 275.647460938 -5.109375 l 2
 306.338867188 20.69140625 338.547851562 45.48046875 367.384765625 72.630859375 c 0
 426.575195312 130.134765625 483.573242188 188.98828125 541.24609375 246.4921875 c 0
 552.470703125 259.93359375 574.078125 277.611328125 589.475585938 285.953125 c 0
 606.338867188 292.192382812 626.744140625 285.953125 645.630859375 285.953125 c 1
 639.053710938 266.728515625 637.536132812 242.4453125 624.720703125 229.291015625 c 0
 594.365234375 198.263671875 557.266601562 174.31640625 525.39453125 143.962890625 c 0
 504.803710938 126.041015625 488.091796875 89.341796875 488.091796875 62.0439453125 c 0
 488.091796875 44.916015625 495.435546875 19.212890625 504.484375 4.6708984375 c 0
 525.783203125 -27.095703125 573.37890625 -59.58203125 610.723632812 -67.841796875 c 0
 679.525390625 -78.12890625 750.858398438 -66.4921875 819.661132812 -63.794921875 c 1
EndSplineSet
Validated: 33
EndChar

StartChar: y
Encoding: 121 121 49
Width: 493
VWidth: -560
Flags: HW
LayerCount: 2
Fore
SplineSet
325.995117188 101.319335938 m 2
 306.956054688 95.7919921875 288.162109375 89.0361328125 268.876953125 84.736328125 c 0
 238.045898438 77.2431640625 207.459960938 66.1884765625 175.890625 64.8369140625 c 0
 129.58203125 62.8720703125 108.823242188 94.80859375 128.967773438 135.712890625 c 0
 143.9921875 164.0390625 171.506835938 208.063476562 190.385742188 233.981445312 c 0
 193.947265625 239.140625 206.4765625 238.157226562 214.952148438 240 c 1
 216.671875 230.295898438 223.059570312 218.135742188 219.375 211.379882812 c 0
 209.1796875 192.954101562 193.2109375 177.72265625 182.524414062 159.297851562 c 0
 177.920898438 148.162109375 172.748046875 129.452148438 170.977539062 117.533203125 c 0
 184.98046875 114.216796875 199.59765625 106.35546875 212.618164062 108.56640625 c 0
 284.108398438 120.849609375 350.807617188 144.557617188 406.20703125 194.55078125 c 0
 414.313476562 201.797851562 428.5625 202.043945312 439.986328125 205.606445312 c 1
 438.266601562 193.322265625 439.986328125 178.213867188 434.3359375 168.755859375 c 0
 407.803710938 124.412109375 374.760742188 83.5078125 352.036132812 37.4453125 c 0
 312.974609375 -41.6611328125 278.334960938 -123.223632812 244.309570312 -204.540039062 c 0
 176.381835938 -364.225585938 133.758789062 -535.458007812 37.0869140625 -682.736328125 c 0
 17.556640625 -712.708984375 -13.029296875 -744.154296875 -45.3349609375 -755.578125 c 0
 -95.2060546875 -774.125976562 -161.905273438 -719.341796875 -182.05078125 -663.452148438 c 0
 -202.1953125 -607.561523438 -187.33203125 -551.916992188 -180.822265625 -496.02734375 c 0
 -161.537109375 -329.340820312 -32.314453125 -274.064453125 97.5224609375 -219.157226562 c 0
 100.592773438 -217.806640625 105.62890625 -220.75390625 122.088867188 -224.684570312 c 1
 87.572265625 -250.357421875 60.671875 -270.625 33.0341796875 -290.647460938 c 0
 10.0634765625 -307.598632812 -13.275390625 -324.05859375 -36.1220703125 -341.1328125 c 0
 -53.564453125 -354.030273438 -75.7978515625 -364.102539062 -86.607421875 -381.422851562 c 0
 -107.735351562 -415.079101562 -133.776367188 -451.806640625 -137.092773438 -489.026367188 c 0
 -142.005859375 -545.8984375 -132.916015625 -604.982421875 -122.352539062 -660.995117188 c 0
 -118.421875 -682.368164062 -95.8203125 -712.216796875 -77.517578125 -715.65625 c 0
 -59.21484375 -719.095703125 -24.6982421875 -700.793945312 -14.380859375 -682.491210938 c 0
 30.9453125 -601.419921875 72.3408203125 -517.892578125 110.911132812 -433.381835938 c 0
 134.373046875 -382.036132812 149.11328125 -326.760742188 169.625976562 -273.696289062 c 0
 201.563476562 -191.151367188 233.500976562 -108.60546875 268.876953125 -28.0263671875 c 0
 286.688476562 13.1240234375 311.74609375 51.2021484375 333.611328125 90.509765625 c 2
 325.995117188 101.319335938 l 2
EndSplineSet
Validated: 33
EndChar

StartChar: z
Encoding: 122 122 50
Width: 783
VWidth: -250
Flags: HW
LayerCount: 2
Fore
SplineSet
753.748046875 40.40625 m 1
 697.861328125 -65.40625 120.365234375 -243.684570312 13.25 -181.091796875 c 1
 485.865234375 210.115234375 l 1
 480.834960938 230.420898438 l 2
 471.415039062 231.659179688 456.05859375 232.6640625 446.55859375 232.6640625 c 0
 437.056640625 232.6640625 421.701171875 231.659179688 412.28125 230.420898438 c 0
 339.255859375 209.9296875 268.279296875 181.426757812 194.508789062 165.219726562 c 0
 165.26171875 158.700195312 109.93359375 167.26953125 102.482421875 183.848632812 c 0
 83.853515625 229.1171875 128.189453125 239.735351562 162.83984375 245.8828125 c 0
 291.005859375 267.306640625 419.173828125 289.288085938 547.899414062 305.309570312 c 0
 572.302734375 308.290039062 599.874023438 285.375976562 625.767578125 274.385742188 c 1
 612.541015625 252.403320312 604.344726562 223.528320312 585.34375 209.370117188 c 0
 505.611328125 150.31640625 421.22265625 97.5966796875 341.490234375 38.7294921875 c 0
 282.810546875 -4.3037109375 228.599609375 -53.296875 155.201171875 -114.400390625 c 1
 202.891601562 -114.400390625 236.05078125 -122.41015625 263.25 -113.095703125 c 0
 405.760742188 -64.474609375 546.409179688 -10.8232421875 688.546875 39.1025390625 c 0
 706.05859375 45.80859375 728.041015625 40.40625 753.748046875 40.40625 c 1
EndSplineSet
Validated: 33
EndChar

StartChar: I
Encoding: 73 73 51
Width: 655
VWidth: 0
Flags: HW
LayerCount: 2
Fore
SplineSet
313.838867188 188.455078125 m 1
 374.337890625 175.094726562 402.067382812 210.637695312 422.989257812 246.811523438 c 0
 468.112304688 324.956054688 509.075195312 405.369140625 550.1640625 486.287109375 c 0
 595.916015625 575.901367188 656.415039062 658.834960938 676.204101562 760.423828125 c 0
 678.165039062 770.928710938 685.505859375 785.948242188 692.588867188 793.950195312 c 0
 697.84375 797.693359375 707.344726562 800.731445312 713.796875 800.731445312 c 0
 715.825195312 800.731445312 719.0859375 800.404296875 721.07421875 800 c 0
 725.107421875 799.244140625 731.283203125 783.993164062 729.014648438 778.1953125 c 0
 706.327148438 717.696289062 683.639648438 657.071289062 657.801757812 597.83203125 c 0
 634.983398438 542.03125 593.48046875 453.548828125 565.162109375 400.328125 c 0
 527.350585938 332.64453125 480.841796875 269.498046875 439.123046875 203.579101562 c 0
 397.403320312 137.661132812 359.84375 68.5908203125 315.85546875 3.9326171875 c 0
 274.640625 -56.818359375 229.518554688 -115.048828125 182.505859375 -171.640625 c 0
 144.063476562 -217.897460938 96.9248046875 -197.731445312 53.4404296875 -177.943359375 c 0
 37.8310546875 -169.366210938 13.7763671875 -153.5 -0.251953125 -142.525390625 c 2
 4.6630859375 -128.157226562 l 2
 24.578125 -134.458984375 46.88671875 -137.106445312 64.0283203125 -147.9453125 c 0
 104.361328125 -173.153320312 137.887695312 -164.331054688 163.221679688 -129.795898438 c 0
 213.637695312 -60.2216796875 262.666992188 10.990234375 310.057617188 82.958984375 c 0
 317.116210938 93.6728515625 313.083007812 112.07421875 313.4609375 126.947265625 c 0
 314.217773438 145.22265625 313.838867188 163.625 313.838867188 188.455078125 c 1
EndSplineSet
Validated: 524321
EndChar
